<?xml version="1.0" encoding="utf-8"?>
<!-- Generator: Adobe Illustrator 16.0.0, SVG Export Plug-In . SVG Version: 6.00 Build 0)  -->
<!DOCTYPE svg PUBLIC "-//W3C//DTD SVG 1.1//EN" "http://www.w3.org/Graphics/SVG/1.1/DTD/svg11.dtd">
<svg version="1.1" id="Capa_1" xmlns="http://www.w3.org/2000/svg" xmlns:xlink="http://www.w3.org/1999/xlink" x="0px" y="0px"
	 width="81.846px" height="40.991px" viewBox="0 0 81.846 40.991" enable-background="new 0 0 81.846 40.991" xml:space="preserve">
<path fill-rule="evenodd" clip-rule="evenodd" fill="#4BFC00" d="M20.218,5.706c2.362,4.02,4.711,8.019,7.057,12.009
	c-8.342,5.5-12.857,13.143-13.071,23.229c-4.713,0-9.423,0-14.203,0c0.125-6.547,1.651-12.734,4.547-18.586
	C8.317,14.736,14.236,9.104,20.218,5.706z"/>
<path fill-rule="evenodd" clip-rule="evenodd" fill="#FF114D" d="M61.631,5.682c5.836,3.449,10.568,7.983,14.054,13.774
	c3.969,6.592,5.96,13.762,6.161,21.477c-4.768,0-9.485,0-14.215,0c-0.208-10.061-4.72-17.695-13.069-23.219
	C56.898,13.735,59.257,9.722,61.631,5.682z"/>
<path fill-rule="evenodd" clip-rule="evenodd" fill="#FFA200" d="M61.092,5.188c-2.331,4.124-4.637,8.201-6.938,12.272
	c-8.809-4.737-17.6-4.563-26.458-0.043c-2.295-3.959-4.61-7.955-6.938-11.972C26.996,1.854,33.664-0.033,40.839,0
	C48.01,0.033,54.746,1.791,61.092,5.188z"/>
</svg>
