<?xml version="1.0" encoding="utf-8"?>
<!-- Generator: Adobe Illustrator 16.0.0, SVG Export Plug-In . SVG Version: 6.00 Build 0)  -->
<!DOCTYPE svg PUBLIC "-//W3C//DTD SVG 1.1//EN" "http://www.w3.org/Graphics/SVG/1.1/DTD/svg11.dtd">
<svg version="1.1" id="Capa_1" xmlns="http://www.w3.org/2000/svg" xmlns:xlink="http://www.w3.org/1999/xlink" x="0px" y="0px"
	 width="22.532px" height="22.519px" viewBox="0 0 22.532 22.519" enable-background="new 0 0 22.532 22.519" xml:space="preserve">
<path fill-rule="evenodd" clip-rule="evenodd" fill="#FFA200" d="M11.283,22.565C5.045,22.578,0.02,17.582,0.005,11.352
	C-0.01,5.114,4.993,0.062,11.199,0.042c6.412-0.021,11.322,5.227,11.328,11.261C22.532,17.374,17.558,22.596,11.283,22.565z"/>
<path fill-rule="evenodd" clip-rule="evenodd" fill="#FF7C8C" d="M4.774,12.81c-0.025-1.192-0.085-2.38,0.133-3.571
	c0.677-3.699,3.737-5.458,6.512-5.487c1.425-0.016,2.764,0.226,3.983,0.975C16.79,5.58,17.59,6.775,17.48,8.468
	c-0.014,0.215-0.006,0.432-0.008,0.646c0.075,1.008-0.5,1.655-1.248,2.183c-0.827,0.583-1.759,0.967-2.703,1.314
	c-1.386,0.51-2.313,1.407-2.555,2.914c-0.183,1.143-0.816,1.859-1.972,2.076c-1.21,0.228-2.147-0.239-2.904-1.154
	C5.216,15.393,4.906,14.133,4.774,12.81z"/>
<path fill-rule="evenodd" clip-rule="evenodd" fill="#AB4C31" d="M4.774,12.81c0.209,0.336,0.186,0.733,0.288,1.099
	c0.246,0.889,0.602,1.724,1.184,2.439c0.846,1.04,1.92,1.412,3.196,0.945c0.661-0.242,1.071-0.699,1.241-1.378
	c0.082-0.324,0.173-0.646,0.246-0.973c0.228-1.01,0.851-1.698,1.759-2.143c0.451-0.221,0.918-0.409,1.377-0.614
	c0.437-0.196,0.875-0.39,1.308-0.592c1.08-0.504,1.841-1.278,2.099-2.479c0.311,1.774-0.268,2.947-1.388,3.709
	c-0.538,0.365-1.108,0.683-1.719,0.889c-1.429,0.481-2.364,1.377-2.702,2.882c-0.098,0.436-0.322,0.849-0.52,1.257
	c-0.645,1.337-1.493,1.533-2.852,1.271c-0.972-0.187-1.67-0.838-2.2-1.628C5.146,16.085,4.704,14.515,4.774,12.81z"/>
<path fill-rule="evenodd" clip-rule="evenodd" fill="#FF4555" d="M11.677,4.793c1.595,0.048,3.083,0.432,4.252,1.589
	c1.397,1.382,0.803,2.965-0.319,3.857c-0.775,0.616-1.66,1.053-2.607,1.333c-1.564,0.464-2.392,1.588-2.835,3.069
	c-0.089,0.298-0.178,0.592-0.298,0.88c-0.41,0.979-1.605,1.312-2.426,0.637c-0.579-0.477-1.022-1.055-1.275-1.788
	c-0.705-2.047-0.699-4.08,0.068-6.1c0.695-1.829,2.091-2.854,3.944-3.326C10.672,4.819,11.166,4.751,11.677,4.793z"/>
<path fill-rule="evenodd" clip-rule="evenodd" fill="#F4E1C9" d="M11.31,8.967c-0.369,0.028-0.676-0.101-0.939-0.316
	c-0.345-0.283-0.347-0.686-0.031-0.991c0.496-0.478,1.609-0.479,2.109-0.003c0.326,0.311,0.327,0.694-0.018,0.99
	C12.106,8.925,11.715,9.011,11.31,8.967z"/>
</svg>
