<?xml version="1.0" encoding="utf-8"?>
<!-- Generator: Adobe Illustrator 16.0.0, SVG Export Plug-In . SVG Version: 6.00 Build 0)  -->
<!DOCTYPE svg PUBLIC "-//W3C//DTD SVG 1.1//EN" "http://www.w3.org/Graphics/SVG/1.1/DTD/svg11.dtd">
<svg version="1.1" id="Capa_1" xmlns="http://www.w3.org/2000/svg" xmlns:xlink="http://www.w3.org/1999/xlink" x="0px" y="0px"
	 width="22.532px" height="22.519px" viewBox="0 0 22.532 22.519" enable-background="new 0 0 22.532 22.519" xml:space="preserve">
<path fill-rule="evenodd" clip-rule="evenodd" fill="#FF114D" d="M11.287,22.521C5.054,22.534,0.024,17.533,0.009,11.305
	C-0.007,5.039,5.014-0.008,11.274-0.002c6.384,0.007,11.275,5.25,11.249,11.258C22.495,17.493,17.522,22.506,11.287,22.521z"/>
<path fill-rule="evenodd" clip-rule="evenodd" fill="#FF7C8C" d="M4.781,12.771c0.005-0.886-0.089-1.772,0.001-2.656
	c0.179-1.765,0.729-3.381,2.075-4.606c1.204-1.098,2.633-1.714,4.284-1.787c1.338-0.061,2.625,0.097,3.837,0.715
	c0.652,0.332,1.218,0.768,1.687,1.321c0.509,0.601,0.83,1.284,0.806,2.098c-0.011,0.407,0.001,0.815,0.002,1.224
	c0.076,1.013-0.512,1.655-1.261,2.181c-0.81,0.568-1.72,0.951-2.645,1.287c-1.417,0.516-2.365,1.425-2.608,2.966
	c-0.177,1.121-0.811,1.814-1.935,2.036c-1.212,0.239-2.158-0.217-2.919-1.133C5.229,15.361,4.905,14.102,4.781,12.771z"/>
<path fill-rule="evenodd" clip-rule="evenodd" fill="#AB4B32" d="M4.781,12.771c0.207,0.336,0.184,0.733,0.286,1.098
	c0.246,0.887,0.603,1.722,1.185,2.436c0.846,1.037,1.918,1.408,3.195,0.94c0.66-0.241,1.069-0.698,1.24-1.376
	c0.087-0.348,0.184-0.692,0.267-1.04c0.226-0.953,0.817-1.609,1.672-2.039c0.47-0.235,0.958-0.433,1.438-0.648
	c0.436-0.196,0.874-0.39,1.307-0.591c1.079-0.502,1.841-1.275,2.104-2.472c0.36,1.313-0.185,2.86-1.262,3.609
	c-0.672,0.469-1.401,0.835-2.159,1.13c-1.142,0.445-1.947,1.174-2.271,2.396c-0.146,0.553-0.365,1.086-0.635,1.598
	c-0.744,1.41-1.478,1.535-2.918,1.24c-1.102-0.226-1.833-1.032-2.37-1.957C5.093,15.77,4.694,14.324,4.781,12.771z"/>
<path fill-rule="evenodd" clip-rule="evenodd" fill="#FF4555" d="M11.685,4.746c1.596,0.047,3.083,0.435,4.251,1.592
	c1.397,1.384,0.789,2.963-0.324,3.86c-0.949,0.765-2.09,1.154-3.207,1.578c-0.739,0.281-1.236,0.808-1.632,1.444
	c-0.38,0.613-0.611,1.298-0.801,1.993c-0.355,1.3-1.681,1.662-2.694,0.757c-0.812-0.725-1.164-1.663-1.405-2.684
	c-0.428-1.809-0.248-3.563,0.453-5.264C7.04,6.291,8.421,5.35,10.188,4.896C10.68,4.771,11.173,4.706,11.685,4.746z"/>
<path fill-rule="evenodd" clip-rule="evenodd" fill="#F4E1CA" d="M11.364,8.925c-0.327,0.034-0.665-0.066-0.957-0.296
	c-0.386-0.303-0.411-0.732-0.039-1.032c0.591-0.477,1.442-0.486,2.051-0.012c0.382,0.297,0.364,0.717-0.006,1.033
	C12.184,8.814,11.827,8.923,11.364,8.925z"/>
</svg>
