<?xml version="1.0" encoding="utf-8"?>
<!-- Generator: Adobe Illustrator 16.0.0, SVG Export Plug-In . SVG Version: 6.00 Build 0)  -->
<!DOCTYPE svg PUBLIC "-//W3C//DTD SVG 1.1//EN" "http://www.w3.org/Graphics/SVG/1.1/DTD/svg11.dtd">
<svg version="1.1" id="Capa_1" xmlns="http://www.w3.org/2000/svg" xmlns:xlink="http://www.w3.org/1999/xlink" x="0px" y="0px"
	 width="22.532px" height="22.519px" viewBox="0 0 22.532 22.519" enable-background="new 0 0 22.532 22.519" xml:space="preserve">
<path fill-rule="evenodd" clip-rule="evenodd" fill="#9FFF00" d="M11.291,0.001c6.188-0.009,11.182,4.998,11.239,11.186
	c0.057,6.066-4.872,11.322-11.248,11.332c-6.34,0.009-11.298-5.199-11.28-11.306C0.02,5.087,5.079-0.069,11.291,0.001z"/>
<path fill-rule="evenodd" clip-rule="evenodd" fill="#FF7C8C" d="M4.784,12.807c-0.089-1.389-0.107-2.769,0.258-4.133
	c0.699-2.612,2.396-4.197,4.985-4.825c1.814-0.439,3.574-0.195,5.21,0.715c1.496,0.833,2.362,2.066,2.269,3.851
	c-0.01,0.191-0.01,0.384-0.015,0.575c0.124,1.303-0.806,1.925-1.697,2.522c-0.716,0.479-1.545,0.767-2.348,1.081
	c-1.297,0.509-2.166,1.354-2.44,2.772c-0.179,0.929-0.603,1.706-1.579,2.07c-1.06,0.395-1.99,0.178-2.804-0.544
	c-1.073-0.951-1.58-2.199-1.757-3.596C4.844,13.131,4.877,12.959,4.784,12.807z"/>
<path fill-rule="evenodd" clip-rule="evenodd" fill="#AA4B32" d="M4.784,12.807c0.189,0.613,0.362,1.232,0.571,1.84
	c0.269,0.78,0.677,1.482,1.294,2.044c0.721,0.655,1.535,0.936,2.511,0.646c0.745-0.221,1.275-0.647,1.504-1.403
	c0.097-0.32,0.189-0.644,0.256-0.971c0.219-1.074,0.886-1.78,1.836-2.251c0.922-0.457,1.909-0.775,2.813-1.272
	c0.988-0.543,1.723-1.287,1.921-2.45c0.33,1.82-0.232,3.106-1.8,3.996c-0.665,0.377-1.36,0.711-2.066,1.005
	c-0.884,0.367-1.442,0.98-1.725,1.892c-0.192,0.616-0.432,1.221-0.693,1.812c-0.278,0.628-0.67,1.206-1.392,1.351
	c-0.787,0.158-1.573,0.104-2.303-0.31c-0.801-0.453-1.387-1.111-1.794-1.915C5.082,15.563,4.713,14.232,4.784,12.807z"/>
<path fill-rule="evenodd" clip-rule="evenodd" fill="#FF4555" d="M16.736,8.19c-0.065,0.89-0.6,1.628-1.387,2.196
	c-0.763,0.551-1.623,0.921-2.514,1.201c-1.269,0.399-2.066,1.237-2.467,2.485c-0.131,0.409-0.294,0.81-0.405,1.225
	c-0.369,1.371-1.877,1.406-2.699,0.688c-0.574-0.501-0.944-1.158-1.161-1.87c-0.384-1.261-0.568-2.54-0.351-3.879
	c0.135-0.834,0.299-1.636,0.675-2.395c0.917-1.853,2.427-2.8,4.455-3.049c1.477-0.181,2.852,0.073,4.12,0.815
	c0.747,0.437,1.396,1.008,1.657,1.898C16.714,7.695,16.74,7.879,16.736,8.19z"/>
<path fill-rule="evenodd" clip-rule="evenodd" fill="#F4E1C9" d="M11.4,8.964c-0.353-0.063-0.71-0.12-0.999-0.352
	c-0.374-0.3-0.378-0.725-0.022-1.042c0.479-0.428,1.496-0.442,2-0.029c0.437,0.357,0.428,0.805-0.034,1.121
	C12.063,8.854,11.732,8.913,11.4,8.964z"/>
</svg>
