<?xml version="1.0" encoding="utf-8"?>
<!-- Generator: Adobe Illustrator 16.0.0, SVG Export Plug-In . SVG Version: 6.00 Build 0)  -->
<!DOCTYPE svg PUBLIC "-//W3C//DTD SVG 1.1//EN" "http://www.w3.org/Graphics/SVG/1.1/DTD/svg11.dtd">
<svg version="1.1" id="Capa_1" xmlns="http://www.w3.org/2000/svg" xmlns:xlink="http://www.w3.org/1999/xlink" x="0px" y="0px"
	 width="22.532px" height="22.519px" viewBox="0 0 22.532 22.519" enable-background="new 0 0 22.532 22.519" xml:space="preserve">
<path fill-rule="evenodd" clip-rule="evenodd" fill="#FFA200" d="M11.25,0c6.292-0.048,11.269,5.169,11.282,11.223
	c0.014,6.016-4.849,11.272-11.218,11.295C5.074,22.542,0.058,17.524,0,11.324C-0.057,5.213,4.955-0.033,11.25,0z"/>
<path fill-rule="evenodd" clip-rule="evenodd" fill="#FFF5DC" d="M15.758,13.685c0.83-0.125,1.561,0.01,2.218,0.451
	c0.455,0.305,0.462,0.424,0.017,0.707c-1.021,0.648-2.07,0.688-3.127,0.089c-0.624-0.354-0.618-0.364-1.259,0.242
	c0.55,0.046,1.074,0.05,1.547,0.278c0.317,0.153,0.806,0.257,0.806,0.621c0,0.36-0.48,0.485-0.803,0.618
	c-0.897,0.371-1.779,0.312-2.623-0.181c-0.619-0.362-0.617-0.365-1.249,0.248c0.918,0.038,1.774,0.165,2.413,0.859
	c-0.628,0.913-2.405,1.227-3.479,0.45c-0.458-0.331-0.754-0.244-1.12,0.053c-0.205,0.165-0.433,0.301-0.654,0.445
	c-0.15,0.097-0.293,0.279-0.479,0.031c-0.216-0.289,0.043-0.372,0.203-0.488c0.272-0.196,0.548-0.389,0.834-0.563
	c0.276-0.168,0.355-0.336,0.282-0.695c-0.261-1.273,0.24-2.474,1.206-3.083c0.426-0.268,0.515-0.235,0.632,0.236
	c0.165,0.657,0.066,1.284-0.207,1.892c-0.038,0.085-0.1,0.167-0.02,0.266c0.185,0.025,0.291-0.126,0.433-0.199
	c0.292-0.15,0.36-0.333,0.284-0.69c-0.266-1.239,0.122-2.273,1.146-3.039c0.468-0.349,0.562-0.298,0.704,0.254
	c0.199,0.771-0.03,1.463-0.419,2.262c0.258-0.15,0.424-0.251,0.595-0.344c0.32-0.173,0.374-0.392,0.29-0.763
	c-0.278-1.229,0.302-2.526,1.321-3.094c0.329-0.184,0.384-0.159,0.498,0.199c0.191,0.598,0.122,1.185-0.075,1.764
	c-0.06,0.176-0.146,0.344-0.233,0.548c0.584-0.255,0.584-0.255,0.797-0.799c0.572-1.461,2.022-2.148,3.418-1.621
	c-0.171,1.608-1.32,2.688-2.854,2.604C16.357,13.219,16.073,13.357,15.758,13.685z"/>
<path fill-rule="evenodd" clip-rule="evenodd" fill="#FFF5DB" d="M7.636,10.028c0-0.149-0.015-0.271,0.003-0.388
	C7.708,9.18,7.485,8.99,7.065,8.828C5.747,8.316,5.06,7.086,5.283,5.724c1.014,0.113,1.653,0.753,2.187,1.585
	C7.596,6.826,7.458,6.492,7.175,6.15C6.254,5.039,6.476,3.24,7.574,2.413c1.282,0.884,1.62,2.379,0.797,3.701
	C8.144,6.478,7.979,6.812,8.13,7.237c0.776-1.168,1.08-1.422,2.071-1.69c0.254,1.042-0.024,1.915-0.741,2.674
	C9.245,8.448,8.984,8.619,8.705,8.763c-0.659,0.34-0.658,0.342-0.435,1.255c0.269-0.393,0.459-0.779,0.792-1.032
	c0.374-0.283,0.713-0.659,1.259-0.556c0.159,0.446,0.109,0.89-0.016,1.333c-0.227,0.808-0.706,1.45-1.463,1.771
	c-0.53,0.224-0.67,0.524-0.585,1.029c0.016,0.093,0.002,0.191,0.002,0.319c0.257-0.087,0.283-0.327,0.391-0.489
	c0.355-0.54,0.829-0.926,1.429-1.156c0.347-0.132,0.408-0.087,0.447,0.291c0.122,1.162-0.528,2.347-1.657,2.863
	c-0.399,0.183-0.545,0.387-0.498,0.803c0.038,0.332,0.023,0.67,0.026,1.006c0.001,0.149-0.022,0.292-0.219,0.307
	c-0.214,0.015-0.307-0.103-0.315-0.298c-0.017-0.359-0.055-0.721-0.031-1.078c0.024-0.378-0.141-0.536-0.48-0.658
	c-1.15-0.414-1.757-1.273-1.917-2.467c-0.013-0.095-0.022-0.191-0.02-0.286c0.01-0.366,0.078-0.417,0.431-0.319
	c0.625,0.172,1.11,0.544,1.509,1.047c0.115,0.146,0.151,0.357,0.354,0.445c0.111-0.126,0.007-0.258,0.018-0.384
	c0.043-0.491-0.146-0.734-0.646-0.919c-1.102-0.406-1.794-1.545-1.743-2.649C5.353,8.544,5.434,8.48,5.818,8.608
	c0.61,0.202,1.096,0.58,1.475,1.098C7.381,9.827,7.416,10.018,7.636,10.028z"/>
</svg>
