<?xml version="1.0" encoding="utf-8"?>
<!-- Generator: Adobe Illustrator 16.0.0, SVG Export Plug-In . SVG Version: 6.00 Build 0)  -->
<!DOCTYPE svg PUBLIC "-//W3C//DTD SVG 1.1//EN" "http://www.w3.org/Graphics/SVG/1.1/DTD/svg11.dtd">
<svg version="1.1" id="Capa_1" xmlns="http://www.w3.org/2000/svg" xmlns:xlink="http://www.w3.org/1999/xlink" x="0px" y="0px"
	 width="22.532px" height="22.519px" viewBox="0 0 22.532 22.519" enable-background="new 0 0 22.532 22.519" xml:space="preserve">
<path fill-rule="evenodd" clip-rule="evenodd" fill="#FF114D" d="M11.257,22.521C5.024,22.516,0.036,17.497,0.002,11.273
	C-0.029,5.23,4.905-0.026,11.308-0.002c6.384,0.023,11.286,5.299,11.221,11.363C22.462,17.529,17.459,22.526,11.257,22.521z"/>
<path fill-rule="evenodd" clip-rule="evenodd" fill="#FFF5DC" d="M13.128,14.621c0.221,0.034,0.308-0.098,0.427-0.159
	c0.356-0.184,0.479-0.402,0.37-0.856c-0.282-1.175,0.307-2.453,1.301-3.038c0.357-0.21,0.41-0.187,0.533,0.224
	c0.233,0.781,0.047,1.509-0.312,2.234c0.565-0.187,0.565-0.187,0.761-0.698c0.515-1.341,1.654-2.021,3.066-1.825
	c0.406,0.056,0.433,0.095,0.354,0.51c-0.248,1.316-1.346,2.225-2.702,2.236c-0.652,0.005-0.652,0.005-1.08,0.416
	c0.678-0.034,1.323,0.006,1.903,0.335c0.218,0.125,0.559,0.222,0.552,0.503c-0.007,0.276-0.337,0.379-0.564,0.5
	c-0.94,0.501-1.934,0.544-2.799-0.054c-0.556-0.385-0.888-0.25-1.29,0.107c-0.035,0.03-0.067,0.063-0.177,0.167
	c0.973-0.01,1.857,0.086,2.595,0.863c-0.635,0.631-1.389,0.899-2.251,0.84c-0.502-0.035-1.005-0.168-1.403-0.5
	c-0.293-0.245-0.531-0.254-0.806,0.001c-0.119,0.111-0.264,0.195-0.521,0.382c1.039-0.026,1.918,0.088,2.652,0.843
	c-0.625,0.651-1.386,0.899-2.246,0.847c-0.53-0.033-1.05-0.184-1.465-0.535c-0.258-0.218-0.451-0.18-0.69,0
	c-0.268,0.201-0.547,0.39-0.832,0.566c-0.162,0.1-0.324,0.351-0.541,0.062c-0.217-0.29,0.055-0.366,0.214-0.48
	c0.272-0.196,0.546-0.394,0.835-0.563s0.342-0.349,0.271-0.702c-0.292-1.464,0.296-2.61,1.657-3.292
	c0.464,0.942,0.258,1.83-0.205,2.727c0.246-0.036,0.369-0.193,0.533-0.271c0.36-0.172,0.417-0.39,0.327-0.799
	c-0.299-1.36,0.337-2.565,1.656-3.227C13.759,12.886,13.509,13.756,13.128,14.621z"/>
<path fill-rule="evenodd" clip-rule="evenodd" fill="#FFF5DC" d="M7.759,12.95c-0.013-0.156-0.044-0.292-0.031-0.424
	c0.049-0.497-0.157-0.729-0.645-0.913C5.877,11.158,5.243,9.96,5.384,8.61c0.84,0.017,1.252,0.29,2.248,1.521
	c0-0.241-0.011-0.417,0.002-0.592c0.026-0.36-0.11-0.527-0.477-0.664C5.783,8.363,5.072,7.151,5.275,5.788
	c0.84,0.031,1.297,0.332,2.16,1.426C7.539,6.651,7.539,6.651,7.221,6.23c-0.847-1.121-0.81-2.58,0.067-3.572
	c0.235-0.267,0.391-0.25,0.637-0.014C8.921,3.597,9.098,5,8.347,6.185C8.052,6.651,8.052,6.651,8.163,7.261
	c0.463-0.85,1.034-1.523,2.014-1.7c0.447,1.336-0.447,2.681-1.38,3.17C8.047,9.123,8.053,9.134,8.269,10.04
	c0.31-0.493,0.59-0.958,1.053-1.255c0.298-0.191,0.651-0.54,0.953-0.362c0.309,0.181,0.159,0.664,0.106,1
	c-0.147,0.928-0.643,1.639-1.468,2.104c-0.711,0.4-0.713,0.396-0.588,1.316c0.228-0.058,0.229-0.288,0.326-0.434
	c0.313-0.472,0.711-0.838,1.226-1.075c0.53-0.243,0.651-0.182,0.649,0.38c-0.004,1.209-0.528,2.149-1.622,2.663
	c-0.465,0.219-0.588,0.469-0.528,0.92c0.031,0.237,0.037,0.48,0.017,0.718c-0.017,0.201,0.154,0.538-0.262,0.526
	c-0.387-0.011-0.244-0.341-0.272-0.548c-0.032-0.236-0.044-0.48-0.024-0.718c0.036-0.438-0.108-0.656-0.561-0.826
	c-1.166-0.438-1.754-1.361-1.852-2.59c-0.039-0.482,0.086-0.568,0.531-0.419c0.561,0.188,1.014,0.528,1.379,0.992
	C7.464,12.6,7.532,12.818,7.759,12.95z"/>
</svg>
