<?xml version="1.0" encoding="utf-8"?>
<!-- Generator: Adobe Illustrator 16.0.0, SVG Export Plug-In . SVG Version: 6.00 Build 0)  -->
<!DOCTYPE svg PUBLIC "-//W3C//DTD SVG 1.1//EN" "http://www.w3.org/Graphics/SVG/1.1/DTD/svg11.dtd">
<svg version="1.1" id="Capa_1" xmlns="http://www.w3.org/2000/svg" xmlns:xlink="http://www.w3.org/1999/xlink" x="0px" y="0px"
	 width="22.532px" height="22.519px" viewBox="0 0 22.532 22.519" enable-background="new 0 0 22.532 22.519" xml:space="preserve">
<path fill-rule="evenodd" clip-rule="evenodd" fill="#9FFF00" d="M11.275,0.001c6.246-0.051,11.311,5.167,11.256,11.315
	c-0.056,6.205-5.065,11.218-11.307,11.201C4.88,22.5-0.01,17.27,0,11.229C0.01,5.147,5.016-0.052,11.275,0.001z"/>
<path fill-rule="evenodd" clip-rule="evenodd" fill="#E2B44C" d="M13.587,15.172c0.844,0.003,1.531,0.184,2.147,0.586
	c0.33,0.214,0.339,0.365,0.023,0.597c-0.866,0.639-2.164,0.787-3.185,0.175c-0.607-0.364-0.609-0.361-1.272,0.167
	c0.372,0.123,0.725,0.09,1.05,0.176c0.379,0.1,0.722,0.257,1.048,0.456c0.36,0.219,0.364,0.391,0.011,0.635
	c-0.924,0.637-2.218,0.775-3.178,0.105c-0.437-0.305-0.76-0.285-1.137,0.045c-0.215,0.188-0.465,0.336-0.7,0.5
	c-0.154,0.108-0.293,0.135-0.431-0.043c-0.152-0.198-0.032-0.305,0.112-0.405c0.315-0.217,0.626-0.445,0.956-0.638
	c0.269-0.157,0.313-0.319,0.257-0.639c-0.192-1.097,0.015-2.1,0.897-2.875c0.107-0.095,0.217-0.191,0.338-0.266
	c0.364-0.224,0.497-0.161,0.6,0.25c0.18,0.724,0.023,1.408-0.276,2.093c0.771-0.185,0.814-0.264,0.725-0.959
	c-0.15-1.156,0.191-2.134,1.121-2.868c0.465-0.368,0.605-0.303,0.784,0.258c0.146,0.46,0.085,0.899-0.063,1.337
	c-0.089,0.267-0.2,0.526-0.337,0.879c0.232-0.136,0.405-0.234,0.575-0.338c0.274-0.167,0.358-0.362,0.28-0.716
	c-0.277-1.255,0.215-2.435,1.214-3.063c0.447-0.281,0.532-0.251,0.662,0.283c0.128,0.526,0.08,1.046-0.106,1.553
	c-0.071,0.193-0.159,0.381-0.253,0.603c0.518-0.115,0.694-0.445,0.822-0.853c0.468-1.487,2.35-2.095,3.308-1.625
	c0.04,0.02,0.07,0.06,0.104,0.09c-0.133,1.38-1.143,2.37-2.414,2.565c-0.141,0.021-0.284,0.044-0.426,0.04
	c-0.548-0.02-0.548-0.024-1.057,0.387c0.851-0.119,1.584,0.054,2.242,0.5c0.347,0.236,0.346,0.404,0.001,0.647
	c-0.972,0.685-2.219,0.681-3.125,0.146C14.262,14.579,14.268,14.569,13.587,15.172z"/>
<path fill-rule="evenodd" clip-rule="evenodd" fill="#E2B44C" d="M8.129,7.341c0.414-0.777,0.866-1.378,1.615-1.686
	c0.435-0.178,0.5-0.144,0.527,0.314c0.076,1.282-0.47,2.212-1.599,2.81C8.01,9.13,8.01,9.131,8.275,9.895
	c0.201-0.104,0.278-0.307,0.392-0.473C8.973,8.97,9.384,8.651,9.889,8.46c0.355-0.135,0.493-0.045,0.513,0.326
	c0.061,1.15-0.352,2.118-1.378,2.641c-0.67,0.341-0.934,0.723-0.728,1.457c0.206-0.092,0.251-0.321,0.351-0.488
	c0.322-0.541,0.804-0.879,1.36-1.125c0.426-0.188,0.502-0.137,0.533,0.313c0.081,1.151-0.582,2.345-1.64,2.799
	C8.496,14.556,8.338,14.76,8.38,15.18c0.028,0.285,0.014,0.575,0.011,0.862c-0.002,0.189,0.022,0.41-0.258,0.425
	c-0.273,0.014-0.297-0.188-0.302-0.389c-0.008-0.335-0.029-0.672-0.009-1.006c0.021-0.319-0.115-0.488-0.405-0.582
	c-1.241-0.398-1.814-1.326-2.001-2.553c-0.086-0.572,0.07-0.7,0.63-0.492c0.602,0.224,1.077,0.609,1.417,1.161
	c0.069,0.113,0.092,0.286,0.28,0.29c0.068-0.118-0.009-0.231-0.005-0.343c0.021-0.547-0.244-0.779-0.752-1.002
	c-1.072-0.472-1.635-1.366-1.629-2.565C5.36,8.559,5.488,8.48,5.891,8.619c0.59,0.203,1.016,0.619,1.403,1.084
	C7.381,9.809,7.396,9.979,7.6,10.019c0.108-0.134,0.033-0.304,0.056-0.455C7.709,9.2,7.561,9.008,7.205,8.882
	C6.241,8.542,5.597,7.883,5.311,6.88C5.202,6.498,5.193,6.134,5.277,5.725C6.282,5.856,6.938,6.428,7.419,7.26
	c0.137-0.605,0.167-0.631-0.294-1.173C6.363,5.189,6.452,3.131,7.596,2.42c1.327,1.038,1.602,2.383,0.721,3.778
	C8.102,6.538,8.072,6.855,8.129,7.341z"/>
</svg>
