<?xml version="1.0" encoding="utf-8"?>
<!-- Generator: Adobe Illustrator 16.0.0, SVG Export Plug-In . SVG Version: 6.00 Build 0)  -->
<!DOCTYPE svg PUBLIC "-//W3C//DTD SVG 1.1//EN" "http://www.w3.org/Graphics/SVG/1.1/DTD/svg11.dtd">
<svg version="1.1" id="Capa_1" xmlns="http://www.w3.org/2000/svg" xmlns:xlink="http://www.w3.org/1999/xlink" x="0px" y="0px"
	 width="13.1px" height="12.325px" viewBox="0 0 13.1 12.325" enable-background="new 0 0 13.1 12.325" xml:space="preserve">
<path fill-rule="evenodd" clip-rule="evenodd" fill="#9F9F9F" d="M0.024,3.612c4.354,0,8.688,0,13.055,0
	c0.008,0.125,0.02,0.241,0.02,0.356c0.001,2.314,0.002,4.628,0.001,6.942c-0.001,0.822-0.56,1.407-1.393,1.409
	c-3.524,0.008-7.05,0.006-10.575,0.001c-0.612,0-1.011-0.361-1.103-0.966c-0.018-0.118-0.027-0.239-0.027-0.358
	C0,8.635,0,6.272,0,3.911C0,3.817,0.015,3.724,0.024,3.612z M6.4,6.788c0.831,0,0.831,0,0.831-0.816c0-0.013,0-0.024,0-0.036
	c0-0.827,0-0.827-0.827-0.827c-0.85,0.001-0.85,0.001-0.85,0.838C5.554,6.788,5.554,6.788,6.4,6.788z M10.491,5.956
	c0-0.848,0-0.848-0.802-0.848c-0.869,0-0.869,0-0.869,0.853c0,0.827,0,0.827,0.824,0.827C10.491,6.788,10.491,6.788,10.491,5.956z
	 M10.491,9.63c0-0.832,0-0.832-0.817-0.832c-0.013,0-0.024,0-0.036,0c-0.817,0-0.817,0-0.817,0.833c0,0.845,0,0.845,0.841,0.845
	C10.491,10.476,10.491,10.476,10.491,9.63z M3.165,5.108c-0.096,0-0.192,0-0.288,0.001C2.389,5.111,2.333,5.166,2.33,5.64
	c-0.001,0.252,0.001,0.503,0,0.755C2.329,6.662,2.464,6.789,2.729,6.787c0.287-0.001,0.574,0,0.861,0
	C3.853,6.786,3.988,6.649,4,6.392c0.007-0.144,0.002-0.287,0.002-0.431C4.001,5.108,4.001,5.108,3.165,5.108z M2.33,9.622
	c0,0.12-0.002,0.239,0,0.359c0.005,0.416,0.072,0.486,0.476,0.492c0.228,0.004,0.455,0.004,0.682,0.001
	c0.416-0.005,0.508-0.097,0.515-0.506c0.002-0.107,0-0.215,0-0.322c0-0.848,0-0.848-0.843-0.849C2.33,8.798,2.33,8.798,2.33,9.622z
	 M6.405,10.476c0.826,0,0.826,0,0.826-0.818c0-0.012,0-0.023,0-0.035c0-0.824,0-0.824-0.832-0.824c-0.845,0-0.845,0-0.845,0.843
	C5.554,10.475,5.554,10.475,6.405,10.476z"/>
<path fill-rule="evenodd" clip-rule="evenodd" fill="#9F9F9F" d="M0.04,2.697c0-0.593-0.033-1.169,0.01-1.74
	c0.039-0.525,0.464-0.899,0.987-0.928c0.394-0.021,0.789-0.004,1.24-0.004c0,0.372-0.003,0.727,0.001,1.081
	C2.281,1.472,2.424,1.66,2.693,1.662C2.96,1.663,3.119,1.465,3.122,1.113c0.004-0.347,0.001-0.694,0.001-1.065
	c2.164,0,4.306,0,6.5,0c0,0.353-0.002,0.707,0.001,1.062c0.002,0.354,0.155,0.552,0.422,0.553s0.412-0.188,0.417-0.557
	C10.466,0.76,10.463,0.414,10.463,0c0.544,0.028,1.062,0.005,1.56,0.094c0.649,0.114,1.023,0.632,1.029,1.286
	c0.003,0.396-0.001,0.791-0.003,1.188c0,0.034-0.015,0.068-0.028,0.13C8.709,2.697,4.397,2.697,0.04,2.697z"/>
</svg>
