<?xml version="1.0" encoding="utf-8"?>
<!-- Generator: Adobe Illustrator 16.0.0, SVG Export Plug-In . SVG Version: 6.00 Build 0)  -->
<!DOCTYPE svg PUBLIC "-//W3C//DTD SVG 1.1//EN" "http://www.w3.org/Graphics/SVG/1.1/DTD/svg11.dtd">
<svg version="1.1" id="Capa_1" xmlns="http://www.w3.org/2000/svg" xmlns:xlink="http://www.w3.org/1999/xlink" x="0px" y="0px"
	 width="10.36px" height="13.975px" viewBox="0 0 10.36 13.975" enable-background="new 0 0 10.36 13.975" xml:space="preserve">
<path fill-rule="evenodd" clip-rule="evenodd" fill="#FFFFFF" d="M3.134,9.509c-0.471,1.241-0.948,2.48-1.412,3.725
	c-0.24,0.645-0.568,0.862-1.083,0.679c-0.551-0.195-0.787-0.687-0.547-1.28c0.678-1.675,1.339-3.357,2.087-5.001
	C2.823,6.217,3.534,4.83,4.291,3.473c0.68-1.22,1.568-2.296,2.91-2.834c0.715-0.286,1.487-0.435,2.241-0.617
	c0.314-0.076,0.592,0.049,0.777,0.331c0.312,0.477,0.087,0.918-0.467,1.027C9.108,1.508,8.458,1.644,7.848,1.874
	C7.019,2.186,6.393,2.782,5.928,3.516C6.385,4.05,6.825,4.577,7.281,5.091c0.502,0.566,0.889,1.19,1.013,1.95
	C8.368,7.493,8.168,7.817,7.741,7.9C6.73,8.096,5.717,8.275,4.677,8.466c0.032,0.082,0.064,0.18,0.107,0.271
	c0.573,1.227,1.147,2.451,1.72,3.677c0.222,0.475,0.168,0.847-0.162,1.147c-0.462,0.421-1.039,0.338-1.312-0.223
	c-0.565-1.163-1.105-2.338-1.656-3.508C3.329,9.734,3.283,9.638,3.238,9.542C3.203,9.531,3.169,9.52,3.134,9.509z M6.148,5.88
	C5.875,6.238,5.632,6.556,5.342,6.936c0.297-0.053,0.507-0.088,0.716-0.128c0.206-0.039,0.41-0.082,0.671-0.134
	C6.531,6.403,6.365,6.176,6.148,5.88z"/>
<path fill-rule="evenodd" clip-rule="evenodd" fill="#FFFFFF" d="M8.061,2.352c0.659,0,1.199,0.53,1.202,1.181
	C9.265,4.177,8.719,4.72,8.067,4.724C7.412,4.727,6.876,4.194,6.873,3.539C6.87,2.882,7.4,2.353,8.061,2.352z"/>
</svg>
