<?xml version="1.0" encoding="utf-8"?>
<!-- Generator: Adobe Illustrator 16.0.0, SVG Export Plug-In . SVG Version: 6.00 Build 0)  -->
<!DOCTYPE svg PUBLIC "-//W3C//DTD SVG 1.1//EN" "http://www.w3.org/Graphics/SVG/1.1/DTD/svg11.dtd">
<svg version="1.1" id="Capa_1" xmlns="http://www.w3.org/2000/svg" xmlns:xlink="http://www.w3.org/1999/xlink" x="0px" y="0px"
	 width="13.401px" height="12.727px" viewBox="0 0 13.401 12.727" enable-background="new 0 0 13.401 12.727" xml:space="preserve">
<path fill-rule="evenodd" clip-rule="evenodd" fill="#FFA200" d="M6.704,0c0.694,1.251,1.369,2.438,2.009,3.644
	c0.156,0.295,0.364,0.397,0.661,0.452c1.273,0.233,2.543,0.48,3.814,0.723c0.055,0.011,0.109,0.026,0.214,0.051
	c-0.103,0.121-0.173,0.211-0.25,0.294c-0.878,0.937-1.754,1.876-2.641,2.803C10.352,8.13,10.3,8.283,10.33,8.508
	c0.167,1.26,0.319,2.521,0.477,3.782c0.016,0.128,0.028,0.257,0.047,0.435c-0.165-0.073-0.284-0.123-0.401-0.178
	c-1.162-0.541-2.326-1.078-3.483-1.629c-0.193-0.092-0.34-0.092-0.533,0c-1.157,0.552-2.321,1.088-3.483,1.629
	c-0.117,0.055-0.236,0.105-0.406,0.18c0.094-0.752,0.181-1.451,0.268-2.15c0.086-0.689,0.163-1.381,0.262-2.069
	c0.033-0.225-0.023-0.378-0.18-0.541C2.01,7.038,1.134,6.099,0.256,5.163C0.178,5.08,0.108,4.99,0,4.861
	c1.1-0.212,2.135-0.482,3.188-0.593c0.952-0.1,1.542-0.483,1.936-1.377C5.556,1.91,6.149,0.998,6.704,0z"/>
</svg>
