<?xml version="1.0" encoding="utf-8"?>
<!-- Generator: Adobe Illustrator 16.0.0, SVG Export Plug-In . SVG Version: 6.00 Build 0)  -->
<!DOCTYPE svg PUBLIC "-//W3C//DTD SVG 1.1//EN" "http://www.w3.org/Graphics/SVG/1.1/DTD/svg11.dtd">
<svg version="1.1" id="Capa_1" xmlns="http://www.w3.org/2000/svg" xmlns:xlink="http://www.w3.org/1999/xlink" x="0px" y="0px"
	 width="22.532px" height="22.519px" viewBox="0 0 22.532 22.519" enable-background="new 0 0 22.532 22.519" xml:space="preserve">
<path fill-rule="evenodd" clip-rule="evenodd" fill="#FFA200" d="M11.219,22.516C5.013,22.549-0.098,17.342,0.001,11.089
	C0.099,4.886,5.178-0.096,11.491,0.004C17.837,0.105,22.638,5.414,22.53,11.47C22.421,17.581,17.376,22.559,11.219,22.516z"/>
<path fill-rule="evenodd" clip-rule="evenodd" fill="#FFE211" d="M14.326,6.333c1.187,0.062,1.927,0.755,2.393,1.767
	c0.419,0.912,0.836,1.823,1.357,2.681c0.375,0.619,0.664,1.278,0.771,1.99c0.146,0.968-0.201,1.847-0.691,2.647
	c-1.357,2.215-4.536,2.835-6.602,1.43c-0.082-0.413,0.276-0.576,0.479-0.819c1.189-1.421,1.728-3.014,1.348-4.873
	c-0.146-0.717-0.64-1.219-1.023-1.792c0.05-0.662,0.219-1.299,0.407-1.931c0.15-0.503,0.498-0.845,0.947-1.094
	c0.042-0.004,0.083-0.007,0.125-0.007C14,6.329,14.163,6.331,14.326,6.333z"/>
<path fill-rule="evenodd" clip-rule="evenodd" fill="#FF386C" d="M12.425,9.342c1.215,0.9,1.359,2.183,1.224,3.539
	c-0.16,1.597-0.952,2.879-2.094,3.967c-0.329,0.188-0.656,0.38-0.989,0.562c-0.382,0.209-0.768,0.243-1.142-0.021
	c-0.309-0.218-0.651-0.278-1.018-0.235c-0.371-0.024-0.601-0.264-0.814-0.53c-0.938-1.17-1.459-2.517-1.677-3.986
	c-0.079-0.527-0.009-1.052,0.161-1.558C6.352,10.254,6.942,9.854,7.8,9.826c0.215,0.047,0.362,0.257,0.599,0.249
	c0.191-0.105,0.378-0.022,0.567,0.01c0.716-0.198,1.299-0.694,2.014-0.896C11.489,8.978,11.992,8.831,12.425,9.342z"/>
<path fill-rule="evenodd" clip-rule="evenodd" fill="#FF1857" d="M7.8,9.826C7.7,9.888,7.606,9.982,7.497,10.007
	c-1.099,0.25-1.353,1.079-1.417,2.042c-0.052,0.779,0.178,1.514,0.433,2.225c0.396,1.104,0.93,2.138,1.892,2.879
	c-0.707,0.59-1.374,0.467-2.085-0.038c-2.024-1.435-2.764-3.407-2.516-5.813c0.017-0.165,0.077-0.326,0.129-0.485
	c0.492-1.51,1.634-2.026,3.107-1.396C7.303,9.534,7.547,9.689,7.8,9.826z"/>
<path fill-rule="evenodd" clip-rule="evenodd" fill="#00C13B" d="M8.199,6.95c0.229-1.709,1.541-2.903,3.03-3.132
	c0.495-0.076,0.517-0.073,0.631,0.409c0.402,1.692-0.623,3.499-2.342,4.113C9.249,8.435,8.962,8.482,8.684,8.552
	C8.241,8.484,8.111,8.179,8.15,7.791C8.179,7.51,8.133,7.227,8.199,6.95z"/>
<path fill-rule="evenodd" clip-rule="evenodd" fill="#FFB828" d="M12.425,9.342c-0.464-0.217-0.96-0.13-1.445-0.153
	c0.111-0.26,0.231-0.518,0.333-0.782c0.43-1.121,1.18-1.866,2.4-2.067c-0.616,0.604-0.938,1.338-1.025,2.196
	C12.659,8.811,12.516,9.074,12.425,9.342z"/>
<path fill-rule="evenodd" clip-rule="evenodd" fill="#C37729" d="M8.199,6.95c0.057,0.565-0.09,1.193,0.485,1.603
	c-0.05,0.538,0.332,0.995,0.283,1.532c-0.193,0.227-0.38,0.105-0.567-0.01C8.39,9.042,8.075,8.169,7.121,7.629
	C7.009,7.566,6.927,7.474,6.988,7.341c0.077-0.168,0.221-0.139,0.364-0.095c0.255,0.078,0.421,0.296,0.651,0.426
	C8.223,7.46,7.994,7.146,8.199,6.95z"/>
<path fill-rule="evenodd" clip-rule="evenodd" fill="#C4752A" d="M14.326,6.333c-0.163,0.264-0.325,0.28-0.488,0
	c0.02-0.742,0.228-1.403,0.821-1.896c0.091-0.076,0.181-0.159,0.285-0.211c0.153-0.077,0.35-0.125,0.45,0.043
	c0.114,0.19-0.06,0.29-0.211,0.376C14.532,5.021,14.367,5.646,14.326,6.333z"/>
<path fill-rule="evenodd" clip-rule="evenodd" fill="#FF80A6" d="M11.673,11.813c-0.459-0.01-0.832-0.361-0.838-0.79
	c-0.007-0.459,0.389-0.822,0.885-0.813c0.458,0.009,0.831,0.36,0.838,0.789C12.564,11.458,12.167,11.823,11.673,11.813z"/>
</svg>
