<?xml version="1.0" encoding="utf-8"?>
<!-- Generator: Adobe Illustrator 16.0.0, SVG Export Plug-In . SVG Version: 6.00 Build 0)  -->
<!DOCTYPE svg PUBLIC "-//W3C//DTD SVG 1.1//EN" "http://www.w3.org/Graphics/SVG/1.1/DTD/svg11.dtd">
<svg version="1.1" id="Capa_1" xmlns="http://www.w3.org/2000/svg" xmlns:xlink="http://www.w3.org/1999/xlink" x="0px" y="0px"
	 width="22.532px" height="22.519px" viewBox="0 0 22.532 22.519" enable-background="new 0 0 22.532 22.519" xml:space="preserve">
<path fill-rule="evenodd" clip-rule="evenodd" fill="#FF114D" d="M11.241,22.519c-6.281,0.029-11.33-5.217-11.24-11.407
	C0.091,4.928,5.133-0.056,11.397,0.001C17.78,0.059,22.63,5.375,22.53,11.449C22.43,17.564,17.39,22.555,11.241,22.519z"/>
<path fill-rule="evenodd" clip-rule="evenodd" fill="#D3002B" d="M8.955,10.067c0.727-0.209,1.339-0.684,2.068-0.889
	c0.523-0.262,1.035-0.2,1.542,0.048c1.354,1.017,1.469,2.438,1.251,3.944c-0.176,1.213-0.706,2.278-1.503,3.208
	c-0.199,0.232-0.379,0.509-0.751,0.474c-0.329,0.192-0.624,0.432-0.957,0.623c-0.434,0.249-0.817,0.22-1.212-0.01
	c-0.503-0.292-0.989-0.307-1.473,0.032c-0.354,0.248-0.702,0.24-1.072,0.015C4.994,16.383,3.8,14.843,3.78,12.582
	c-0.005-0.57-0.046-1.138,0.118-1.71c0.278-0.967,0.812-1.606,1.855-1.719c0.542-0.059,1.023,0.155,1.504,0.358
	c0.417,0.176,0.788,0.457,1.24,0.555C8.649,10.049,8.803,9.97,8.955,10.067z"/>
<path fill-rule="evenodd" clip-rule="evenodd" fill="#FFE211" d="M11.561,16.853c1.463-1.324,2.211-2.961,2.125-4.946
	c-0.042-0.984-0.33-1.875-1.143-2.519c-0.313-1.04,0.217-2.412,1.17-3.032c0.042-0.017,0.085-0.026,0.13-0.027
	c0.157-0.008,0.313-0.006,0.47-0.003c1.189,0.114,1.983,0.748,2.433,1.842c0.346,0.843,0.762,1.653,1.222,2.439
	c0.085,0.145,0.163,0.293,0.25,0.437c1.667,2.738-0.233,5.602-2.602,6.325C14.211,17.798,12.827,17.696,11.561,16.853z"/>
<path fill-rule="evenodd" clip-rule="evenodd" fill="#00C03B" d="M8.219,6.76c0.354-1.62,1.357-2.595,2.963-2.957
	c0.542-0.123,0.584-0.08,0.698,0.489c0.395,1.96-0.938,3.794-3.063,4.217C8.288,8.617,8.135,8.268,8.151,7.869
	C8.167,7.501,8.107,7.124,8.219,6.76z"/>
<path fill-rule="evenodd" clip-rule="evenodd" fill="#FFB628" d="M13.714,6.356c-0.919,0.807-1.009,1.933-1.17,3.032
	c-0.479-0.275-1.004-0.207-1.521-0.209c0.153-0.377,0.297-0.758,0.461-1.13C11.913,7.074,12.647,6.494,13.714,6.356z"/>
<path fill-rule="evenodd" clip-rule="evenodd" fill="#C36C31" d="M8.219,6.76C8.225,7.088,8.21,7.417,8.242,7.742
	C8.277,8.102,8.38,8.438,8.817,8.51C8.665,8.695,8.681,8.881,8.761,9.104c0.11,0.308,0.229,0.623,0.194,0.964
	c-0.153,0.077-0.306,0.193-0.458-0.001C8.43,9.767,8.378,9.464,8.292,9.171c-0.191-0.654-0.49-1.233-1.154-1.538
	C7.025,7.582,6.936,7.494,6.984,7.355c0.06-0.174,0.212-0.167,0.354-0.141c0.288,0.054,0.427,0.359,0.695,0.46
	C8.176,7.363,7.984,7.02,8.219,6.76z"/>
<path fill-rule="evenodd" clip-rule="evenodd" fill="#C46D30" d="M14.313,6.326c-0.154,0.29-0.311,0.273-0.47,0.003
	c0.051-0.73,0.21-1.415,0.824-1.901c0.111-0.087,0.225-0.183,0.354-0.231c0.125-0.047,0.295-0.083,0.366,0.092
	c0.056,0.137-0.059,0.221-0.16,0.282C14.562,4.969,14.38,5.617,14.313,6.326z"/>
<path fill-rule="evenodd" clip-rule="evenodd" fill="#FF7DA2" d="M11.683,11.818c-0.432-0.007-0.855-0.432-0.826-0.831
	c0.03-0.413,0.468-0.793,0.889-0.771c0.381,0.021,0.784,0.425,0.794,0.797C12.551,11.411,12.109,11.825,11.683,11.818z"/>
</svg>
