<?xml version="1.0" encoding="utf-8"?>
<!-- Generator: Adobe Illustrator 16.0.0, SVG Export Plug-In . SVG Version: 6.00 Build 0)  -->
<!DOCTYPE svg PUBLIC "-//W3C//DTD SVG 1.1//EN" "http://www.w3.org/Graphics/SVG/1.1/DTD/svg11.dtd">
<svg version="1.1" id="Capa_1" xmlns="http://www.w3.org/2000/svg" xmlns:xlink="http://www.w3.org/1999/xlink" x="0px" y="0px"
	 width="22.532px" height="22.519px" viewBox="0 0 22.532 22.519" enable-background="new 0 0 22.532 22.519" xml:space="preserve">
<path fill-rule="evenodd" clip-rule="evenodd" fill="#9FFF00" d="M11.325,0.001c6.196-0.028,11.231,5.153,11.208,11.293
	c-0.023,6.037-4.943,11.234-11.29,11.224C4.936,22.508-0.036,17.317,0,11.177C0.035,5.068,5.092-0.084,11.325,0.001z"/>
<path fill-rule="evenodd" clip-rule="evenodd" fill="#FFE211" d="M13.568,6.397c0.087-0.007,0.175-0.015,0.263-0.022
	c0.166-0.026,0.331-0.02,0.497,0c1.046,0.053,1.853,0.524,2.267,1.487c0.493,1.146,1.09,2.233,1.683,3.326
	c0.068,0.126,0.123,0.26,0.19,0.387c0.869,1.629,0.148,3.37-0.709,4.388c-1.478,1.752-4.221,2.189-6.124,1
	c-0.059-0.037-0.136-0.044-0.204-0.065c-0.065-0.335,0.243-0.432,0.405-0.613c1.337-1.493,1.945-3.186,1.526-5.201
	c-0.139-0.668-0.593-1.128-0.926-1.672C12.482,8.283,12.53,7.154,13.568,6.397z"/>
<path fill-rule="evenodd" clip-rule="evenodd" fill="#FF386C" d="M12.561,9.413c1.009,0.833,1.203,1.982,1.115,3.174
	c-0.129,1.739-0.867,3.202-2.245,4.31c-0.16,0.098-0.325,0.189-0.48,0.294c-0.542,0.364-1.086,0.566-1.684,0.102
	c-0.217-0.168-0.5-0.108-0.754-0.142c-0.618-0.074-0.941-0.539-1.257-0.984c-0.75-1.057-1.154-2.256-1.332-3.529
	c-0.116-0.835,0-1.63,0.612-2.277c0.41-0.434,0.879-0.662,1.478-0.39c0.078,0.02,0.155,0.041,0.232,0.061
	c0.25-0.014,0.51-0.116,0.739,0.075c0.705-0.333,1.41-0.666,2.115-0.999C11.668,8.825,12.16,8.904,12.561,9.413z"/>
<path fill-rule="evenodd" clip-rule="evenodd" fill="#FF1857" d="M8.014,9.97c-1.211,0.065-1.915,0.783-1.93,2.003
	c-0.016,1.244,0.383,2.387,0.943,3.475c0.353,0.685,0.834,1.271,1.485,1.703c-0.045,0.016-0.098,0.021-0.134,0.049
	c-0.797,0.619-1.495,0.311-2.206-0.195c-2.134-1.52-2.814-4.166-2.23-6.214c0.411-1.443,1.562-1.994,2.952-1.438
	C7.29,9.51,7.693,9.67,8.014,9.97z"/>
<path fill-rule="evenodd" clip-rule="evenodd" fill="#00C23B" d="M8.198,7.815C8.25,7.365,8.157,6.899,8.291,6.459
	c0.406-1.335,1.28-2.212,2.624-2.604c0.158-0.046,0.33-0.047,0.495-0.064c0.25-0.026,0.379,0.062,0.444,0.334
	C12.147,5.348,11.776,6.383,11,7.313c-0.615,0.737-1.453,1.06-2.358,1.251C8.268,8.448,8.099,8.211,8.198,7.815z"/>
<path fill-rule="evenodd" clip-rule="evenodd" fill="#FFB927" d="M12.561,9.413c-0.459-0.234-0.95-0.315-1.46-0.307
	c0.112-0.569,0.374-1.081,0.661-1.572c0.399-0.682,1.027-1.04,1.806-1.138C12.865,7.279,12.648,8.325,12.561,9.413z"/>
<path fill-rule="evenodd" clip-rule="evenodd" fill="#BE7D27" d="M8.198,7.815C8.288,8.1,8.473,8.327,8.642,8.563
	c0.113,0.514,0.294,1.014,0.344,1.542c-0.252,0.033-0.51,0.119-0.739-0.075C8.508,9.823,8.42,9.537,8.348,9.307
	C8.149,8.667,7.877,8.059,7.265,7.689C7.224,7.665,7.18,7.646,7.141,7.619C7.015,7.531,6.917,7.421,7.028,7.268
	c0.1-0.136,0.232-0.11,0.381-0.053C7.736,7.337,7.92,7.636,8.198,7.815z"/>
<path fill-rule="evenodd" clip-rule="evenodd" fill="#BF7A2A" d="M14.328,6.375c-0.165,0.206-0.331,0.188-0.497,0
	c0.021-0.529,0.139-1.032,0.409-1.493c0.211-0.36,0.5-0.632,0.898-0.77c0.088-0.031,0.194-0.031,0.259,0.059
	c0.082,0.114,0.048,0.226-0.043,0.315c-0.05,0.049-0.12,0.077-0.179,0.116C14.542,5.025,14.311,5.64,14.328,6.375z"/>
<path fill-rule="evenodd" clip-rule="evenodd" fill="#FF80A6" d="M12.554,11.001c-0.001,0.455-0.424,0.867-0.877,0.855
	c-0.423-0.011-0.818-0.4-0.837-0.824c-0.021-0.448,0.39-0.882,0.841-0.892C12.135,10.131,12.555,10.545,12.554,11.001z"/>
</svg>
