<?xml version="1.0" encoding="utf-8"?>
<!-- Generator: Adobe Illustrator 16.0.0, SVG Export Plug-In . SVG Version: 6.00 Build 0)  -->
<!DOCTYPE svg PUBLIC "-//W3C//DTD SVG 1.1//EN" "http://www.w3.org/Graphics/SVG/1.1/DTD/svg11.dtd">
<svg version="1.1" id="Capa_1" xmlns="http://www.w3.org/2000/svg" xmlns:xlink="http://www.w3.org/1999/xlink" x="0px" y="0px"
	 width="22.532px" height="22.519px" viewBox="0 0 22.532 22.519" enable-background="new 0 0 22.532 22.519" xml:space="preserve">
<path fill-rule="evenodd" clip-rule="evenodd" fill="#9FFF00" d="M11.286,0.049c6.187-0.012,11.186,4.998,11.242,11.183
	c0.055,6.074-4.863,11.299-11.175,11.33C5.064,22.593,0.049,17.58,0.004,11.334C-0.04,5.19,5.033-0.018,11.286,0.049z"/>
<path fill-rule="evenodd" clip-rule="evenodd" fill="#FFEFD1" d="M12.662,6.763c0.003,0.983,0.019,1.965,0.002,2.948
	c-0.006,0.359,0.098,0.535,0.456,0.681c2.042,0.83,3.15,2.387,3.262,4.571c0.08,1.566-0.556,2.891-1.717,3.954
	c-0.188,0.172-0.401,0.239-0.655,0.238c-1.773-0.005-3.547-0.008-5.32,0.002c-0.346,0.002-0.591-0.151-0.817-0.378
	c-1.361-1.36-1.848-2.979-1.442-4.862c0.03-0.14,0.07-0.279,0.105-0.417c0.093-0.234-0.015-0.513,0.157-0.73
	c0.056-0.115,0.116-0.227,0.182-0.336c0.216-0.319,0.436-0.635,0.717-0.904c0.462-0.408,0.861-0.916,1.536-0.996
	c1.071-0.388,0.856-0.181,0.875-1.212c0.015-0.853,0.007-1.706,0.01-2.559C10.896,6.353,11.779,6.35,12.662,6.763z"/>
<path fill-rule="evenodd" clip-rule="evenodd" fill="#ABE751" d="M7.668,11.603c-0.22,0.297-0.44,0.594-0.66,0.89
	c-0.622-0.138-0.837-0.793-1.362-1.076c0.351,0.509,0.957,0.785,1.166,1.394c-0.084,0.233-0.113,0.488-0.277,0.689
	c-0.027-0.243-0.188-0.281-0.401-0.309c-0.474-0.063-0.927-0.206-1.34-0.462c-0.864-0.536-1.299-1.326-1.298-2.326
	c0.001-1.409-0.249-1.21,1.263-1.227c0.419-0.004,0.776,0.225,1.176,0.286c0.491-0.018,0.687,0.447,1.047,0.66
	C7.095,9.91,7.018,9.69,7.072,9.487c0.05-0.192,0.109-0.375,0.346-0.392c0.236-0.017,0.369,0.137,0.383,0.339
	C7.85,10.161,8.01,10.898,7.668,11.603z"/>
<path fill-rule="evenodd" clip-rule="evenodd" fill="#00C363" d="M9.98,5.685c0.005-0.499-0.005-0.999,0.019-1.498
	c0.032-0.675,0.302-0.923,0.981-0.938c0.262-0.006,0.523-0.008,0.785,0.001c0.588,0.02,0.871,0.272,0.908,0.864
	c0.032,0.521,0.017,1.045,0.022,1.569C11.79,6.098,10.885,6.095,9.98,5.685z"/>
<path fill-rule="evenodd" clip-rule="evenodd" fill="#00C364" d="M7.668,11.603c-0.002-0.693-0.003-1.387-0.008-2.081
	C7.66,9.374,7.631,9.21,7.445,9.215C7.261,9.22,7.239,9.385,7.238,9.533c-0.003,0.358-0.001,0.716-0.001,1.27
	c-0.438-0.593-0.85-0.989-1.302-1.34C6.193,8.76,6.736,8.28,7.244,7.771c0.152-0.153,0.261-0.137,0.419,0.001
	c0.84,0.736,1.479,1.573,1.465,2.761C8.641,10.89,8.155,11.246,7.668,11.603z"/>
<path fill-rule="evenodd" clip-rule="evenodd" fill="#7C4B54" d="M9.98,5.685c0.905,0.047,1.81,0.049,2.715-0.001
	c0.143,0.006,0.286,0.014,0.429,0.02c0.317,0.012,0.499,0.202,0.511,0.493c0.012,0.293-0.164,0.491-0.473,0.528
	c-0.166,0.02-0.333,0.027-0.499,0.04c-0.884-0.047-1.768-0.043-2.651-0.001C9.846,6.75,9.679,6.744,9.513,6.724
	C9.205,6.687,9.03,6.489,9.042,6.196c0.012-0.292,0.192-0.48,0.509-0.492C9.694,5.698,9.837,5.691,9.98,5.685z"/>
<path fill-rule="evenodd" clip-rule="evenodd" fill="#FFC80C" d="M11.293,18.117c-0.742,0-1.483-0.008-2.225,0.004
	c-0.282,0.004-0.508-0.062-0.698-0.283c-1.041-1.211-1.261-2.584-0.821-4.091c0.083-0.282,0.241-0.422,0.567-0.42
	c2.153,0.013,4.307,0.011,6.46,0.002c0.283-0.001,0.439,0.105,0.53,0.367c0.458,1.32,0.278,3.019-0.862,4.208
	c-0.188,0.195-0.409,0.216-0.655,0.215C12.824,18.114,12.059,18.117,11.293,18.117z"/>
<path fill-rule="evenodd" clip-rule="evenodd" fill="#00C464" d="M6.813,12.811c-0.528-0.417-0.965-0.929-1.441-1.399
	c-0.081-0.08-0.174-0.19-0.054-0.306c0.102-0.099,0.238-0.073,0.325,0.013c0.461,0.453,0.912,0.916,1.367,1.375
	C6.943,12.599,6.878,12.705,6.813,12.811z"/>
</svg>
