<?xml version="1.0" encoding="utf-8"?>
<!-- Generator: Adobe Illustrator 16.0.0, SVG Export Plug-In . SVG Version: 6.00 Build 0)  -->
<!DOCTYPE svg PUBLIC "-//W3C//DTD SVG 1.1//EN" "http://www.w3.org/Graphics/SVG/1.1/DTD/svg11.dtd">
<svg version="1.1" id="Capa_1" xmlns="http://www.w3.org/2000/svg" xmlns:xlink="http://www.w3.org/1999/xlink" x="0px" y="0px"
	 width="22.532px" height="22.519px" viewBox="0 0 22.532 22.519" enable-background="new 0 0 22.532 22.519" xml:space="preserve">
<path fill-rule="evenodd" clip-rule="evenodd" fill="#FFA200" d="M11.288,0.002c6.186-0.01,11.183,4.999,11.24,11.186
	c0.056,6.045-4.832,11.295-11.176,11.33c-6.286,0.034-11.305-4.987-11.349-11.23C-0.038,5.157,5.015-0.058,11.288,0.002z"/>
<path fill-rule="evenodd" clip-rule="evenodd" fill="#FFEFD1" d="M9.122,10.489c1.075-0.387,0.865-0.184,0.881-1.204
	c0.013-0.851-0.003-1.702-0.007-2.554c0.896-0.437,1.791-0.44,2.686,0.002c-0.003,1.006,0.001,2.013-0.015,3.019
	c-0.005,0.308,0.103,0.452,0.401,0.571c1.954,0.779,3.081,2.221,3.289,4.321c0.168,1.691-0.473,3.087-1.7,4.234
	c-0.188,0.175-0.405,0.231-0.657,0.23c-1.773-0.004-3.546-0.008-5.32,0.003c-0.348,0.002-0.587-0.159-0.814-0.384
	c-1.343-1.339-1.823-2.94-1.452-4.795c0.051-0.256,0.144-0.503,0.217-0.755c-0.079-0.167,0.008-0.309,0.067-0.455
	c0.054-0.115,0.114-0.228,0.18-0.336c0.215-0.318,0.435-0.633,0.714-0.9C8.048,11.071,8.457,10.583,9.122,10.489z"/>
<path fill-rule="evenodd" clip-rule="evenodd" fill="#ABE751" d="M7.669,11.558c-0.22,0.297-0.44,0.594-0.66,0.892
	c-0.622-0.138-0.837-0.793-1.362-1.076c0.351,0.508,0.956,0.785,1.166,1.394c-0.011,0.159-0.101,0.282-0.182,0.41
	C6.103,13.162,5.576,13.115,5.1,12.87c-1.044-0.539-1.622-1.39-1.611-2.584c0.013-1.296-0.236-1.139,1.203-1.14
	c0.435,0,0.833,0.194,1.252,0.28c0.47-0.009,0.674,0.394,1.022,0.665c0.146-0.206,0.047-0.447,0.105-0.652
	c0.055-0.191,0.114-0.373,0.35-0.387c0.235-0.014,0.367,0.142,0.38,0.342C7.849,10.12,8.01,10.855,7.669,11.558z"/>
<path fill-rule="evenodd" clip-rule="evenodd" fill="#00C263" d="M9.997,5.65c0.002-0.5-0.01-1,0.009-1.5
	c0.026-0.676,0.296-0.929,0.974-0.945c0.262-0.006,0.524-0.008,0.786,0.001c0.59,0.022,0.87,0.276,0.902,0.87
	c0.028,0.522,0.009,1.047,0.012,1.571C11.785,6.046,10.891,6.042,9.997,5.65z"/>
<path fill-rule="evenodd" clip-rule="evenodd" fill="#00C364" d="M7.669,11.558c-0.002-0.692-0.003-1.384-0.008-2.076
	C7.66,9.334,7.633,9.17,7.449,9.171C7.268,9.173,7.24,9.335,7.238,9.485c-0.002,0.37-0.001,0.739-0.06,1.126
	c-0.375-0.462-0.796-0.833-1.234-1.185c0.247-0.708,0.793-1.184,1.3-1.693C7.395,7.581,7.503,7.59,7.662,7.73
	c0.834,0.738,1.483,1.569,1.46,2.759C8.638,10.845,8.153,11.202,7.669,11.558z"/>
<path fill-rule="evenodd" clip-rule="evenodd" fill="#7D4A54" d="M9.997,5.65c0.894,0,1.789-0.001,2.682-0.002
	c0.167,0.009,0.334,0.006,0.499,0.029c0.307,0.043,0.47,0.247,0.455,0.541c-0.013,0.259-0.176,0.438-0.454,0.47
	c-0.165,0.02-0.331,0.031-0.497,0.046c-0.895-0.067-1.791-0.065-2.686-0.002C9.83,6.717,9.664,6.707,9.499,6.688
	C9.221,6.655,9.06,6.478,9.045,6.218C9.03,5.923,9.19,5.72,9.498,5.677C9.662,5.654,9.83,5.659,9.997,5.65z"/>
<path fill-rule="evenodd" clip-rule="evenodd" fill="#FFC80C" d="M11.333,13.291c1.056,0,2.112,0.011,3.167-0.007
	c0.34-0.005,0.538,0.109,0.631,0.436c0.432,1.514,0.209,2.89-0.847,4.097c-0.173,0.198-0.38,0.262-0.637,0.261
	c-1.536-0.007-3.072-0.006-4.607,0c-0.254,0.001-0.468-0.052-0.641-0.252c-1.045-1.207-1.3-2.577-0.859-4.095
	c0.093-0.319,0.277-0.453,0.625-0.446C9.221,13.303,10.277,13.291,11.333,13.291z"/>
<path fill-rule="evenodd" clip-rule="evenodd" fill="#00C464" d="M6.813,12.768c-0.529-0.417-0.965-0.929-1.442-1.399
	c-0.081-0.08-0.174-0.19-0.054-0.306c0.102-0.099,0.238-0.073,0.325,0.013c0.461,0.453,0.912,0.916,1.367,1.375
	C6.944,12.556,6.878,12.662,6.813,12.768z"/>
</svg>
