<?xml version="1.0" encoding="utf-8"?>
<!-- Generator: Adobe Illustrator 16.0.0, SVG Export Plug-In . SVG Version: 6.00 Build 0)  -->
<!DOCTYPE svg PUBLIC "-//W3C//DTD SVG 1.1//EN" "http://www.w3.org/Graphics/SVG/1.1/DTD/svg11.dtd">
<svg version="1.1" id="Capa_1" xmlns="http://www.w3.org/2000/svg" xmlns:xlink="http://www.w3.org/1999/xlink" x="0px" y="0px"
	 width="22.532px" height="22.519px" viewBox="0 0 22.532 22.519" enable-background="new 0 0 22.532 22.519" xml:space="preserve">
<path fill-rule="evenodd" clip-rule="evenodd" fill="#FF114D" d="M11.251,22.519c-6.288-0.027-11.265-5.038-11.244-11.32
	C0.028,4.954,5.087-0.051,11.378,0c6.362,0.052,11.214,5.331,11.146,11.361C22.454,17.535,17.434,22.545,11.251,22.519z"/>
<path fill-rule="evenodd" clip-rule="evenodd" fill="#FFEFD1" d="M9.113,10.497c0.89-0.312,0.891-0.312,0.89-1.212
	c0-0.836-0.003-1.672-0.004-2.508c0.889-0.371,1.777-0.372,2.666,0.001c-0.001,0.957,0.021,1.916-0.014,2.872
	c-0.015,0.408,0.137,0.572,0.501,0.722c1.95,0.801,3.048,2.279,3.211,4.373c0.131,1.68-0.52,3.083-1.786,4.199
	c-0.172,0.151-0.363,0.204-0.59,0.203c-1.771-0.005-3.542-0.01-5.314,0.003c-0.325,0.002-0.54-0.151-0.748-0.354
	c-1.459-1.427-1.956-3.127-1.445-5.111c0.048-0.185,0.099-0.368,0.149-0.553c-0.003-0.124,0.029-0.239,0.081-0.351
	c0.05-0.113,0.104-0.224,0.16-0.335c0.209-0.365,0.429-0.722,0.722-1.029C8.077,11.073,8.464,10.568,9.113,10.497z"/>
<path fill-rule="evenodd" clip-rule="evenodd" fill="#ABE751" d="M7.666,11.555c-0.227,0.318-0.453,0.637-0.679,0.955
	c-0.541-0.297-0.823-0.899-1.447-1.248c0.348,0.655,1.02,0.922,1.251,1.545c0.003,0.136-0.059,0.239-0.162,0.323
	c-0.429-0.023-0.86,0.007-1.276-0.156c-1.112-0.436-1.799-1.251-1.849-2.425c-0.07-1.644-0.278-1.333,1.31-1.362
	C5.209,9.18,5.566,9.314,5.921,9.465c0.522-0.021,0.779,0.376,1.09,0.713c0.065-0.226,0.007-0.442,0.054-0.65
	c0.05-0.219,0.123-0.459,0.371-0.467C7.687,9.053,7.8,9.288,7.813,9.509C7.85,10.196,7.98,10.893,7.666,11.555z"/>
<path fill-rule="evenodd" clip-rule="evenodd" fill="#00C264" d="M7.666,11.555c-0.002-0.595-0.002-1.19-0.006-1.786
	C7.658,9.627,7.652,9.484,7.632,9.344c-0.015-0.102-0.099-0.176-0.195-0.17C7.344,9.18,7.253,9.251,7.251,9.359
	c-0.006,0.425-0.002,0.85-0.002,1.456C6.813,10.202,6.428,9.767,5.92,9.465c0.243-0.672,0.725-1.164,1.221-1.65
	c0.207-0.203,0.35-0.239,0.59-0.024c0.815,0.728,1.397,1.561,1.382,2.707C8.631,10.85,8.148,11.202,7.666,11.555z"/>
<path fill-rule="evenodd" clip-rule="evenodd" fill="#00C364" d="M10.058,3.756c0.141-0.426,0.459-0.581,0.881-0.58
	c0.262,0.001,0.524,0,0.787,0c0.421-0.001,0.742,0.15,0.879,0.579c0.045,0.477-0.009,0.955,0.026,1.43
	c0.033,0.443-0.195,0.6-0.583,0.635c-0.095,0.008,0.024-0.006-0.071,0.004C10.09,6.038,9.962,5.9,10.058,3.756z"/>
<path fill-rule="evenodd" clip-rule="evenodd" fill="#7E4E56" d="M10.058,3.756c0.012,0.477,0.034,0.953,0.032,1.429
	c-0.001,0.298,0.109,0.438,0.419,0.432c0.549-0.01,1.099-0.01,1.647,0c0.31,0.006,0.42-0.136,0.418-0.433
	c-0.002-0.477,0.019-0.953,0.03-1.429c0.193,0.459,0.063,0.939,0.088,1.409c0.015,0.264,0.033,0.471,0.37,0.483
	c0.109,0.004,0.229,0.069,0.322,0.136c0.383,0.274,0.336,0.691-0.088,0.897c-0.203,0.099-0.424,0.047-0.632,0.097
	C11.776,6.7,10.888,6.701,9.999,6.776C9.856,6.764,9.713,6.76,9.572,6.739C9.287,6.696,9.063,6.545,9.023,6.255
	C8.981,5.947,9.218,5.709,9.465,5.692c0.542-0.038,0.497-0.372,0.508-0.743C9.985,4.551,9.875,4.142,10.058,3.756z"/>
<path fill-rule="evenodd" clip-rule="evenodd" fill="#FFC80C" d="M11.346,13.247c1.006,0,2.013-0.003,3.02,0.001
	c0.606,0.002,0.64-0.001,0.794,0.593c0.385,1.485,0.175,2.846-0.919,4c-0.194,0.205-0.402,0.301-0.692,0.298
	c-1.486-0.012-2.972-0.01-4.457-0.002c-0.259,0.001-0.448-0.084-0.634-0.263c-1.18-1.136-1.341-2.883-0.91-4.198
	c0.102-0.311,0.287-0.445,0.636-0.438C9.236,13.261,10.291,13.247,11.346,13.247z"/>
<path fill-rule="evenodd" clip-rule="evenodd" fill="#00C664" d="M6.791,12.808c-0.511-0.396-0.925-0.893-1.388-1.338
	c-0.122-0.118-0.246-0.256-0.07-0.423c0.175-0.166,0.313-0.034,0.423,0.09c0.405,0.462,0.96,0.791,1.23,1.374
	C6.945,12.625,6.903,12.739,6.791,12.808z"/>
</svg>
