<?xml version="1.0" encoding="utf-8"?>
<!-- Generator: Adobe Illustrator 16.0.0, SVG Export Plug-In . SVG Version: 6.00 Build 0)  -->
<!DOCTYPE svg PUBLIC "-//W3C//DTD SVG 1.1//EN" "http://www.w3.org/Graphics/SVG/1.1/DTD/svg11.dtd">
<svg version="1.1" id="Capa_1" xmlns="http://www.w3.org/2000/svg" xmlns:xlink="http://www.w3.org/1999/xlink" x="0px" y="0px"
	 width="15.264px" height="12.747px" viewBox="0 0 15.264 12.747" enable-background="new 0 0 15.264 12.747" xml:space="preserve">
<path fill-rule="evenodd" clip-rule="evenodd" fill="#9F9F9F" d="M12.884,12.747c-1.365,0-2.679,0-4.025,0c0-1.307,0-2.596,0-3.918
	c-0.754,0-1.477,0-2.233,0c0,1.285,0,2.576,0,3.9c-1.424,0-2.815,0-4.243,0c0-0.311,0-0.619,0-0.928
	c0-1.391-0.006-2.781,0.009-4.172c0.002-0.15,0.095-0.348,0.211-0.439c1.588-1.238,3.189-2.459,4.78-3.695
	C7.562,3.356,7.676,3.333,7.87,3.483c1.599,1.244,3.208,2.475,4.81,3.715c0.092,0.07,0.195,0.201,0.196,0.305
	C12.887,9.239,12.884,10.978,12.884,12.747z"/>
<path fill-rule="evenodd" clip-rule="evenodd" fill="#9F9F9F" d="M7.633,2.179C5.44,3.866,3.266,5.538,1.057,7.239
	C0.708,6.788,0.367,6.347,0,5.872C2.54,3.919,5.072,1.97,7.632,0.001c1.061,0.814,2.121,1.629,3.236,2.486c0-0.369,0-0.682,0-1.021
	c0.753,0,1.467,0,2.235,0c0,0.254,0,0.512,0,0.77c0,0.516,0.024,1.031-0.008,1.545c-0.021,0.33,0.106,0.521,0.36,0.707
	c0.608,0.443,1.196,0.912,1.81,1.385c-0.358,0.465-0.698,0.906-1.053,1.367C12.014,5.55,9.84,3.878,7.633,2.179z"/>
</svg>
