<?xml version="1.0" encoding="utf-8"?>
<!-- Generator: Adobe Illustrator 16.0.0, SVG Export Plug-In . SVG Version: 6.00 Build 0)  -->
<!DOCTYPE svg PUBLIC "-//W3C//DTD SVG 1.1//EN" "http://www.w3.org/Graphics/SVG/1.1/DTD/svg11.dtd">
<svg version="1.1" id="Capa_1" xmlns="http://www.w3.org/2000/svg" xmlns:xlink="http://www.w3.org/1999/xlink" x="0px" y="0px"
	 width="17.136px" height="17.136px" viewBox="0 0 17.136 17.136" enable-background="new 0 0 17.136 17.136" xml:space="preserve">
<path fill-rule="evenodd" clip-rule="evenodd" fill="#FFFFFF" d="M8.569,17.136c-4.726,0-8.565-3.835-8.569-8.558
	C-0.004,3.837,3.843-0.006,8.585,0c4.707,0.006,8.555,3.85,8.551,8.54C17.133,13.3,13.311,17.135,8.569,17.136z M8.558,1.004
	c-4.167,0.004-7.551,3.39-7.554,7.557c-0.003,4.185,3.389,7.574,7.575,7.57c4.168-0.003,7.551-3.387,7.554-7.556
	C16.136,4.391,12.744,1.001,8.558,1.004z"/>
<path fill-rule="evenodd" clip-rule="evenodd" fill="#FFFFFF" d="M5.901,13.077c0.122-0.407,0.303-1.127,0.556-1.819
	c0.407-1.113,0.861-2.209,1.294-3.312C7.8,7.823,7.865,7.702,7.881,7.574c0.014-0.108,0.004-0.266-0.063-0.325
	s-0.242-0.07-0.328-0.024c-0.188,0.099-0.368,0.229-0.517,0.38c-0.293,0.3-0.55,0.636-0.849,0.929
	C6.029,8.625,5.846,8.627,5.703,8.671c0.003-0.142-0.05-0.325,0.02-0.419C6.527,7.156,7.469,6.238,8.89,6.014
	c0.188-0.03,0.384-0.042,0.573-0.024c0.683,0.061,1.069,0.501,1.012,1.186c-0.027,0.33-0.1,0.666-0.211,0.979
	c-0.452,1.274-0.93,2.54-1.394,3.812c-0.077,0.213-0.148,0.432-0.185,0.654c-0.017,0.1,0.033,0.248,0.106,0.311
	c0.055,0.046,0.22,0.023,0.295-0.027c0.197-0.133,0.385-0.285,0.553-0.454c0.279-0.279,0.532-0.586,0.813-0.863
	c0.065-0.064,0.2-0.06,0.302-0.086c0.027,0.108,0.069,0.216,0.074,0.325c0.003,0.063-0.046,0.137-0.087,0.194
	c-0.854,1.198-1.931,2.089-3.4,2.421c-0.139,0.032-0.286,0.033-0.429,0.029C6.227,14.45,5.88,14.084,5.901,13.077z"/>
<path fill-rule="evenodd" clip-rule="evenodd" fill="#FFFFFF" d="M10.057,5.329C9.32,5.335,8.841,4.862,8.834,4.127
	c-0.007-0.801,0.649-1.461,1.455-1.462c0.719-0.001,1.225,0.497,1.229,1.212C11.524,4.681,10.878,5.322,10.057,5.329z"/>
</svg>
