<?xml version="1.0" encoding="utf-8"?>
<!-- Generator: Adobe Illustrator 16.0.0, SVG Export Plug-In . SVG Version: 6.00 Build 0)  -->
<!DOCTYPE svg PUBLIC "-//W3C//DTD SVG 1.1//EN" "http://www.w3.org/Graphics/SVG/1.1/DTD/svg11.dtd">
<svg version="1.1" id="Capa_1" xmlns="http://www.w3.org/2000/svg" xmlns:xlink="http://www.w3.org/1999/xlink" x="0px" y="0px"
	 width="22.532px" height="22.519px" viewBox="0 0 22.532 22.519" enable-background="new 0 0 22.532 22.519" xml:space="preserve">
<path fill-rule="evenodd" clip-rule="evenodd" fill="#FFA200" d="M11.228,22.55C4.986,22.578-0.061,17.363,0.002,11.202
	C0.065,4.98,5.108-0.025,11.412,0.035c6.362,0.062,11.196,5.356,11.118,11.388C22.45,17.59,17.436,22.569,11.228,22.55z"/>
<path fill-rule="evenodd" clip-rule="evenodd" fill="#FFBF00" d="M17.885,11.404c0.298,0.636,0.103,1.305,0.124,1.959
	c0.004,0.133-0.155,0.153-0.252,0.217c-0.748,0.494-0.757,0.979-0.038,1.481c0.115,0.08,0.289,0.126,0.292,0.289
	c0.013,0.524,0.011,1.051,0.001,1.575c-0.002,0.143-0.107,0.189-0.251,0.164c-0.77-0.137-1.559-0.154-2.318-0.36
	c-0.207-0.268-0.036-0.557-0.044-0.834c-0.02-0.727-0.523-1.294-1.227-1.356c-0.633-0.057-1.26,0.429-1.403,1.091
	c-0.05,0.229-0.007,0.486-0.209,0.668c-0.96,0.029-1.884-0.241-2.83-0.34c-0.046-0.005-0.091-0.047-0.135-0.045
	c-0.719,0.032-1.186-0.146-1.104-1.03c0.029-0.313-0.352-0.497-0.672-0.547c-0.268-0.042-0.623,0.28-0.721,0.599
	c-0.171,0.554-0.17,0.55-0.708,0.44c-0.395-0.081-0.793-0.149-1.19-0.224c-0.525-0.1-0.55-0.112-0.555-0.639
	c-0.01-1.077-0.003-2.154-0.003-3.232c0-0.599,0-1.197,0-1.796c0-0.146,0.009-0.288,0.126-0.396c0.493,0.102,1.011,0.106,1.46,0.377
	c0.207,0.211,0.235,0.511,0.377,0.756c0.569,0.978,1.62,1.077,2.332,0.214C9.104,10.233,9.232,10,9.52,9.947
	c0.824-0.066,1.611,0.177,2.408,0.308c1.626,0.269,3.256,0.513,4.883,0.778C17.194,11.096,17.555,11.199,17.885,11.404z"/>
<path fill-rule="evenodd" clip-rule="evenodd" fill="#FFDB28" d="M17.885,11.404c-0.749-0.113-1.499-0.221-2.247-0.341
	c-1.355-0.219-2.708-0.458-4.065-0.662c-0.725-0.108-1.437-0.327-2.181-0.294c-0.136-0.12-0.161-0.285-0.182-0.45
	C9.118,8.95,8.776,8.439,8.041,8.32C7.344,8.208,6.86,8.554,6.538,9.156C6.46,9.302,6.385,9.452,6.224,9.53
	c-0.371,0-0.711-0.188-1.09-0.16C4.959,9.383,4.851,9.235,4.769,9.089C4.874,8.07,5.373,7.241,6.022,6.485
	c0.174-0.201,0.34-0.303,0.606-0.101c0.274,0.207,0.577,0.18,0.856-0.046c0.268-0.217,0.428-0.504,0.293-0.817
	c-0.182-0.426,0.06-0.552,0.36-0.697c0.674-0.326,1.398-0.475,2.125-0.609c0.266-0.049,0.519-0.008,0.72,0.217
	c0.415,0.462,0.917,0.841,1.28,1.353c-0.144,0.265-0.436,0.358-0.639,0.557c-0.593,0.581-0.625,1.413-0.064,1.963
	c0.509,0.499,1.479,0.436,1.991-0.112c0.182-0.194,0.229-0.545,0.592-0.542C15.433,8.859,16.703,10.088,17.885,11.404z"/>
<path fill-rule="evenodd" clip-rule="evenodd" fill="#FFA81C" d="M14.144,7.649c-0.15,0.098-0.208,0.264-0.27,0.412
	c-0.416,0.986-2.271,1.087-2.75-0.023c-0.214-0.498-0.212-1.173,0.15-1.604c0.262-0.312,0.554-0.594,0.989-0.65
	C12.957,6.339,13.564,6.98,14.144,7.649z"/>
<path fill-rule="evenodd" clip-rule="evenodd" fill="#FF9900" d="M12.559,16.298c0.002-0.237-0.017-0.478,0.009-0.713
	c0.072-0.659,0.833-1.293,1.517-1.282c0.7,0.012,1.429,0.644,1.497,1.305c0.039,0.384-0.015,0.758-0.139,1.122
	C14.472,16.647,13.508,16.522,12.559,16.298z"/>
<path fill-rule="evenodd" clip-rule="evenodd" fill="#FF9900" d="M6.224,9.53c0.14-0.482,0.333-0.9,0.794-1.202
	C7.911,7.743,9.316,8.3,9.39,9.61c0.009,0.166,0.001,0.332,0.001,0.497c-0.3,0.35-0.452,0.815-0.965,0.989
	c-0.839,0.285-1.706-0.053-2.043-0.881C6.296,10.002,6.193,9.778,6.224,9.53z"/>
<path fill-rule="evenodd" clip-rule="evenodd" fill="#FF9900" d="M11.337,14.284c-0.657,0-1.199-0.486-1.206-1.084
	c-0.007-0.583,0.622-1.219,1.207-1.218c0.585,0,1.213,0.635,1.207,1.219C12.537,13.798,11.995,14.284,11.337,14.284z"/>
</svg>
