<?xml version="1.0" encoding="utf-8"?>
<!-- Generator: Adobe Illustrator 16.0.0, SVG Export Plug-In . SVG Version: 6.00 Build 0)  -->
<!DOCTYPE svg PUBLIC "-//W3C//DTD SVG 1.1//EN" "http://www.w3.org/Graphics/SVG/1.1/DTD/svg11.dtd">
<svg version="1.1" id="Capa_1" xmlns="http://www.w3.org/2000/svg" xmlns:xlink="http://www.w3.org/1999/xlink" x="0px" y="0px"
	 width="22.532px" height="22.519px" viewBox="0 0 22.532 22.519" enable-background="new 0 0 22.532 22.519" xml:space="preserve">
<path fill-rule="evenodd" clip-rule="evenodd" fill="#FF114D" d="M11.243,22.52C4.941,22.541-0.056,17.3,0.002,11.186
	C0.06,4.986,5.078-0.026,11.324-0.001c6.396,0.025,11.278,5.323,11.205,11.375C22.455,17.544,17.446,22.532,11.243,22.52z"/>
<path fill-rule="evenodd" clip-rule="evenodd" fill="#FFBF00" d="M17.739,11.248c0.275,0.073,0.274,0.294,0.274,0.514
	c0,0.383-0.016,0.766,0.005,1.147c0.019,0.338-0.066,0.542-0.391,0.741c-0.587,0.358-0.579,0.962,0.01,1.315
	c0.33,0.197,0.394,0.421,0.38,0.753c-0.018,0.427-0.004,0.855-0.004,1.336c-0.903-0.071-1.744-0.162-2.572-0.36
	c-0.207-0.267-0.036-0.557-0.044-0.835c-0.021-0.725-0.529-1.296-1.232-1.357c-0.63-0.055-1.259,0.438-1.399,1.102
	c-0.048,0.23-0.008,0.486-0.204,0.672c-1.266-0.054-2.502-0.35-3.761-0.467c-0.202-0.019-0.294-0.137-0.272-0.34
	c0.01-0.096,0.029-0.19,0.029-0.285c-0.001-0.489-0.258-0.821-0.669-0.871c-0.365-0.045-0.688,0.214-0.814,0.652
	c-0.139,0.481-0.141,0.482-0.615,0.396c-0.469-0.086-0.937-0.178-1.407-0.256c-0.246-0.041-0.394-0.152-0.393-0.419
	c0.009-1.841,0.017-3.682,0.029-5.522c0-0.04,0.046-0.081,0.071-0.121c0.491,0.115,1.012,0.116,1.462,0.386
	c0.198,0.192,0.228,0.47,0.352,0.7c0.564,1.049,1.635,1.159,2.389,0.237c0.153-0.186,0.278-0.394,0.539-0.447
	c0.239-0.049,0.476-0.027,0.712,0.014c2.067,0.363,4.144,0.667,6.215,1.007C16.874,11.011,17.311,11.111,17.739,11.248z"/>
<path fill-rule="evenodd" clip-rule="evenodd" fill="#FFDB28" d="M17.739,11.248c-0.425,0.216-0.831-0.032-1.232-0.087
	c-1.341-0.182-2.674-0.429-4.011-0.652c-0.773-0.13-1.545-0.269-2.32-0.388c-0.258-0.04-0.524-0.032-0.786-0.047
	c-0.135-0.12-0.16-0.285-0.181-0.451C9.117,8.917,8.775,8.406,8.04,8.287C7.343,8.175,6.86,8.521,6.538,9.123
	C6.46,9.269,6.384,9.42,6.224,9.498C5.851,9.492,5.505,9.313,5.124,9.335c-0.177,0.01-0.281-0.146-0.363-0.293
	c0.132-1.01,0.638-1.84,1.261-2.613c0.149-0.186,0.294-0.296,0.537-0.11C6.853,6.545,7.183,6.557,7.49,6.336
	C7.828,6.093,7.896,5.748,7.742,5.38C7.627,5.109,7.735,4.994,7.958,4.878c0.754-0.391,1.57-0.562,2.397-0.699
	c0.264-0.045,0.456,0.054,0.633,0.244c0.375,0.401,0.762,0.791,1.145,1.187c0.061,0.371-0.277,0.468-0.467,0.657
	c-0.625,0.624-0.661,1.476-0.07,2.036c0.527,0.501,1.516,0.372,2.041-0.255c0.142-0.169,0.188-0.466,0.509-0.425
	c1.098,1.08,2.198,2.158,3.293,3.241C17.553,10.978,17.64,11.12,17.739,11.248z"/>
<path fill-rule="evenodd" clip-rule="evenodd" fill="#FFA81C" d="M14.146,7.623c-0.156,0.093-0.199,0.265-0.276,0.408
	c-0.429,0.796-1.252,0.93-2.052,0.642c-0.863-0.312-1.111-1.576-0.526-2.307c0.243-0.303,0.639-0.42,0.843-0.757
	C12.841,6.244,13.514,6.913,14.146,7.623z"/>
<path fill-rule="evenodd" clip-rule="evenodd" fill="#FF9900" d="M12.563,16.275c0-0.238-0.02-0.479,0.005-0.715
	c0.068-0.661,0.822-1.297,1.511-1.292c0.696,0.006,1.434,0.641,1.502,1.304c0.04,0.383-0.012,0.758-0.139,1.122
	C14.472,16.625,13.512,16.487,12.563,16.275z"/>
<path fill-rule="evenodd" clip-rule="evenodd" fill="#FF9900" d="M6.224,9.498c0.141-0.482,0.332-0.901,0.794-1.203
	C7.91,7.711,9.314,8.264,9.39,9.577c0.01,0.165,0.001,0.332,0,0.497c-0.299,0.351-0.451,0.815-0.964,0.989
	c-0.838,0.285-1.705-0.053-2.042-0.88C6.296,9.969,6.192,9.746,6.224,9.498z"/>
<path fill-rule="evenodd" clip-rule="evenodd" fill="#FF9900" d="M11.369,14.251c-0.678,0.011-1.195-0.43-1.235-1.052
	c-0.036-0.571,0.58-1.229,1.17-1.25c0.585-0.02,1.212,0.582,1.235,1.186C12.561,13.715,12.01,14.24,11.369,14.251z"/>
</svg>
