<?xml version="1.0" encoding="utf-8"?>
<!-- Generator: Adobe Illustrator 16.0.0, SVG Export Plug-In . SVG Version: 6.00 Build 0)  -->
<!DOCTYPE svg PUBLIC "-//W3C//DTD SVG 1.1//EN" "http://www.w3.org/Graphics/SVG/1.1/DTD/svg11.dtd">
<svg version="1.1" id="Capa_1" xmlns="http://www.w3.org/2000/svg" xmlns:xlink="http://www.w3.org/1999/xlink" x="0px" y="0px"
	 width="22.532px" height="22.519px" viewBox="0 0 22.532 22.519" enable-background="new 0 0 22.532 22.519" xml:space="preserve">
<path fill-rule="evenodd" clip-rule="evenodd" fill="#9FFF00" d="M22.525,11.289c0.05,6.008-4.887,11.239-11.264,11.234
	C4.93,22.52-0.024,17.311,0.006,11.193C0.036,5.097,5.074-0.029,11.32-0.005C17.524,0.018,22.606,5.156,22.525,11.289z"/>
<path fill-rule="evenodd" clip-rule="evenodd" fill="#FFBF00" d="M17.774,11.284c0.222,0.118,0.264,0.318,0.259,0.547
	c-0.006,0.311-0.016,0.622,0.002,0.932c0.024,0.404-0.046,0.699-0.446,0.952c-0.542,0.344-0.566,0.823-0.055,1.151
	c0.469,0.303,0.512,0.67,0.504,1.143c-0.018,1.084-0.003,1.073-1.082,0.923c-0.653-0.092-1.319-0.1-1.956-0.299
	c0.43-0.381,0.56-0.854,0.278-1.35c-0.286-0.502-0.729-0.835-1.359-0.758c-0.583,0.072-0.956,0.399-1.114,0.973
	c-0.075,0.272-0.01,0.585-0.231,0.815c-0.851-0.109-1.701-0.217-2.551-0.33c-0.354-0.047-0.707-0.104-1.06-0.161
	c-0.3-0.049-0.465-0.188-0.425-0.534c0.029-0.254,0.059-0.527-0.166-0.74c-0.448-0.427-1.143-0.223-1.256,0.43
	c-0.075,0.43-0.186,0.504-0.594,0.385c-0.455-0.133-0.938-0.167-1.408-0.247c-0.332-0.056-0.47-0.231-0.465-0.591
	c0.026-1.749,0.027-3.5,0.037-5.25C5.191,8.957,5.678,9.228,6.17,9.323c0.283,0.197,0.274,0.545,0.414,0.817
	c0.495,0.955,1.496,1.116,2.257,0.355C9.058,10.28,9.19,9.969,9.522,9.878c1.929,0.182,3.829,0.552,5.737,0.868
	C16.104,10.886,16.977,10.918,17.774,11.284z"/>
<path fill-rule="evenodd" clip-rule="evenodd" fill="#FFDB28" d="M17.774,11.284c-0.867,0.05-1.694-0.222-2.541-0.335
	c-1.363-0.185-2.717-0.439-4.076-0.664c-0.585-0.097-1.17-0.194-1.755-0.291C9.235,9.861,9.246,9.659,9.199,9.479
	c-0.154-0.595-0.481-1.046-1.116-1.15C7.432,8.221,6.925,8.472,6.597,9.063C6.514,9.212,6.506,9.457,6.233,9.422
	C5.705,9.499,5.209,9.229,4.685,9.274c0.199-1.056,0.658-1.989,1.316-2.832c0.173-0.222,0.32-0.317,0.58-0.1
	c0.293,0.245,0.615,0.214,0.923-0.012c0.318-0.232,0.401-0.552,0.256-0.889C7.609,5.096,7.776,4.96,8.044,4.842
	c0.771-0.34,1.569-0.564,2.41-0.649c0.196-0.021,0.32,0.039,0.441,0.164c0.466,0.48,0.932,0.962,1.398,1.443
	c-0.071,0.138-0.209,0.188-0.337,0.25c-0.582,0.284-0.854,0.744-0.778,1.391c0.068,0.581,0.421,0.965,0.946,1.152
	c0.634,0.227,1.099-0.104,1.498-0.566c0.139-0.161,0.206-0.38,0.401-0.495C15.313,8.744,16.572,9.985,17.774,11.284z"/>
<path fill-rule="evenodd" clip-rule="evenodd" fill="#FFA81C" d="M14.024,7.531c-0.184,0.833-0.881,1.377-1.678,1.312
	c-0.688-0.058-1.323-0.72-1.362-1.422c-0.053-0.928,0.354-1.432,1.311-1.621C12.913,6.335,13.491,6.91,14.024,7.531z"/>
<path fill-rule="evenodd" clip-rule="evenodd" fill="#FF9900" d="M12.573,16.313c0.012-0.376-0.016-0.742,0.117-1.122
	c0.306-0.877,1.727-1.182,2.387-0.482c0.375,0.396,0.554,0.78,0.526,1.321c-0.022,0.427-0.193,0.61-0.604,0.603
	C14.18,16.611,13.382,16.419,12.573,16.313z"/>
<path fill-rule="evenodd" clip-rule="evenodd" fill="#FF9900" d="M6.233,9.422c0.221-0.177,0.13-0.483,0.32-0.696
	C7.012,8.207,7.708,7.954,8.356,8.14c0.479,0.137,1.016,0.908,1.042,1.497c0.005,0.119,0.002,0.238,0.004,0.357
	c-0.291,0.573-0.648,1.077-1.354,1.149C6.994,11.253,6.313,10.6,6.233,9.422z"/>
<path fill-rule="evenodd" clip-rule="evenodd" fill="#FF9900" d="M11.31,12.013c0.72-0.013,1.193,0.428,1.213,1.13
	c0.016,0.547-0.584,1.156-1.155,1.171c-0.584,0.016-1.208-0.589-1.228-1.188C10.122,12.545,10.67,12.023,11.31,12.013z"/>
</svg>
