<?xml version="1.0" encoding="utf-8"?>
<!-- Generator: Adobe Illustrator 16.0.0, SVG Export Plug-In . SVG Version: 6.00 Build 0)  -->
<!DOCTYPE svg PUBLIC "-//W3C//DTD SVG 1.1//EN" "http://www.w3.org/Graphics/SVG/1.1/DTD/svg11.dtd">
<svg version="1.1" id="Capa_1" xmlns="http://www.w3.org/2000/svg" xmlns:xlink="http://www.w3.org/1999/xlink" x="0px" y="0px"
	 width="22.532px" height="22.519px" viewBox="0 0 22.532 22.519" enable-background="new 0 0 22.532 22.519" xml:space="preserve">
<path fill-rule="evenodd" clip-rule="evenodd" fill="#FF114D" d="M11.265,22.521C4.962,22.553-0.047,17.321,0.004,11.207
	C0.055,5.002,5.064-0.018,11.305-0.001c6.375,0.017,11.261,5.269,11.224,11.283C22.489,17.512,17.501,22.52,11.265,22.521z"/>
<path fill-rule="evenodd" clip-rule="evenodd" fill="#BCEEFD" d="M13.716,18.115c-1.749,0.008-3.499,0.022-5.248,0.02
	c-0.509-0.001-0.669-0.144-0.76-0.674C7.495,16.21,7.276,14.958,7.114,13.7c-0.366-2.832-0.523-5.678-0.478-8.534
	c0.012-0.755,0.007-0.761,0.759-0.762c2.373-0.003,4.747-0.002,7.12,0.001c0.166,0,0.333,0.023,0.499,0.037
	c0.216,0.261,0.203,0.576,0.214,0.888c0.13,3.987-0.258,7.933-0.965,11.853C14.196,17.561,14.157,17.957,13.716,18.115z"/>
<path fill-rule="evenodd" clip-rule="evenodd" fill="#8EE2FA" d="M13.716,18.115c0.086-0.168,0.26-0.283,0.28-0.493
	c0.143-1.396,0.432-2.771,0.609-4.165c0.156-1.229,0.222-2.465,0.38-3.692c0.104-0.803,0.023-1.629,0.025-2.444
	c0.002-0.96,0.003-1.919,0.004-2.878c0.143-0.012,0.285-0.024,0.428-0.034C15.79,4.383,15.9,4.565,15.898,4.89
	c-0.009,1.557,0.018,3.114-0.084,4.669c-0.167,2.558-0.473,5.099-0.938,7.62C14.707,18.099,14.654,18.158,13.716,18.115z"/>
<path fill-rule="evenodd" clip-rule="evenodd" fill="#01CFFA" d="M11.333,8.776c0.912,0,1.824-0.004,2.736,0.001
	c0.649,0.003,0.673,0.009,0.648,0.631c-0.032,0.788-0.084,1.577-0.17,2.36c-0.11,1.02-0.258,2.035-0.399,3.051
	c-0.089,0.638-0.198,1.273-0.296,1.909c-0.039,0.252-0.185,0.38-0.438,0.387c-0.096,0.003-0.194,0.017-0.287,0.001
	c-1.239-0.214-2.488-0.078-3.731-0.114c-0.616-0.018-0.613-0.015-0.731-0.617c-0.273-1.407-0.435-2.827-0.595-4.251
	c-0.103-0.902-0.136-1.809-0.242-2.71C7.754,8.799,7.813,8.785,8.454,8.781c0.96-0.007,1.92-0.002,2.879-0.002
	C11.333,8.778,11.333,8.777,11.333,8.776z"/>
</svg>
