<?xml version="1.0" encoding="utf-8"?>
<!-- Generator: Adobe Illustrator 16.0.0, SVG Export Plug-In . SVG Version: 6.00 Build 0)  -->
<!DOCTYPE svg PUBLIC "-//W3C//DTD SVG 1.1//EN" "http://www.w3.org/Graphics/SVG/1.1/DTD/svg11.dtd">
<svg version="1.1" id="Capa_1" xmlns="http://www.w3.org/2000/svg" xmlns:xlink="http://www.w3.org/1999/xlink" x="0px" y="0px"
	 width="22.532px" height="22.519px" viewBox="0 0 22.532 22.519" enable-background="new 0 0 22.532 22.519" xml:space="preserve">
<path fill-rule="evenodd" clip-rule="evenodd" fill="#9FFF00" d="M22.525,11.303c0.045,6.025-4.938,11.273-11.351,11.221
	C4.867,22.472-0.031,17.266,0.006,11.18C0.044,5.077,5.097-0.036,11.334-0.005C17.524,0.026,22.615,5.16,22.525,11.303z"/>
<path fill-rule="evenodd" clip-rule="evenodd" fill="#BCEEFD" d="M13.856,18.079c-1.796,0.012-3.592,0.031-5.388,0.03
	c-0.525-0.001-0.666-0.134-0.762-0.669c-0.386-2.169-0.692-4.349-0.887-6.544c-0.174-1.96-0.186-3.924-0.174-5.889
	C6.65,4.441,6.688,4.385,7.181,4.385c2.611,0,5.223,0.013,7.834,0.021c0.243,0.25,0.209,0.571,0.219,0.879
	c0.117,3.932-0.219,7.829-0.918,11.697C14.243,17.379,14.203,17.794,13.856,18.079z"/>
<path fill-rule="evenodd" clip-rule="evenodd" fill="#8EE2F9" d="M13.856,18.079c0.262-1.107,0.439-2.229,0.586-3.358
	c0.131-1.009,0.272-2.018,0.408-3.026c0.013-0.094,0.013-0.189,0.021-0.285c0.181-2.331,0.157-4.667,0.144-7.003
	c0.119-0.008,0.238-0.027,0.357-0.021c0.481,0.022,0.521,0.05,0.525,0.554c0.012,1.487,0.026,2.975-0.065,4.459
	c-0.163,2.657-0.491,5.295-0.969,7.914C14.733,18.025,14.627,18.112,13.856,18.079z"/>
<path fill-rule="evenodd" clip-rule="evenodd" fill="#01CFFA" d="M11.341,8.71c0.911,0,1.821-0.007,2.731,0.003
	c0.592,0.006,0.682,0.075,0.649,0.667c-0.047,0.856-0.162,1.709-0.225,2.564c-0.07,0.952-0.191,1.897-0.341,2.839
	c-0.101,0.636-0.2,1.271-0.301,1.905c-0.041,0.258-0.202,0.365-0.452,0.365c-1.413-0.002-2.827-0.003-4.24-0.004
	c-0.284,0-0.441-0.128-0.478-0.419c-0.184-1.465-0.451-2.917-0.607-4.387c-0.096-0.901-0.128-1.807-0.239-2.707
	C7.743,8.767,7.842,8.718,8.609,8.714c0.911-0.004,1.821-0.001,2.731-0.001C11.341,8.712,11.341,8.711,11.341,8.71z"/>
</svg>
