<?xml version="1.0" encoding="utf-8"?>
<!-- Generator: Adobe Illustrator 16.0.0, SVG Export Plug-In . SVG Version: 6.00 Build 0)  -->
<!DOCTYPE svg PUBLIC "-//W3C//DTD SVG 1.1//EN" "http://www.w3.org/Graphics/SVG/1.1/DTD/svg11.dtd">
<svg version="1.1" id="Capa_1" xmlns="http://www.w3.org/2000/svg" xmlns:xlink="http://www.w3.org/1999/xlink" x="0px" y="0px"
	 width="22.532px" height="22.519px" viewBox="0 0 22.532 22.519" enable-background="new 0 0 22.532 22.519" xml:space="preserve">
<path fill-rule="evenodd" clip-rule="evenodd" fill="#FFA200" d="M11.261,22.519c-6.293,0.039-11.311-5.2-11.257-11.315
	C0.058,4.999,5.068-0.019,11.309,0c6.374,0.02,11.26,5.271,11.219,11.287C22.485,17.519,17.498,22.521,11.261,22.519z"/>
<path fill-rule="evenodd" clip-rule="evenodd" fill="#BCEEFD" d="M13.715,18.116c-1.749,0.008-3.498,0.022-5.248,0.02
	c-0.508-0.001-0.668-0.144-0.759-0.675c-0.213-1.251-0.432-2.502-0.595-3.76c-0.367-2.832-0.522-5.678-0.477-8.533
	c0.012-0.753,0.007-0.76,0.76-0.761c2.373-0.003,4.747-0.002,7.12,0.001c0.166,0,0.333,0.023,0.499,0.036
	c0.215,0.261,0.202,0.576,0.213,0.888c0.131,3.987-0.258,7.934-0.965,11.853C14.195,17.563,14.156,17.958,13.715,18.116z"/>
<path fill-rule="evenodd" clip-rule="evenodd" fill="#8EE2F9" d="M13.715,18.116c0.087-0.167,0.26-0.283,0.281-0.492
	c0.143-1.396,0.432-2.772,0.609-4.165c0.156-1.229,0.217-2.465,0.381-3.692c0.101-0.755,0.022-1.533,0.024-2.301
	c0.002-1.007,0.003-2.015,0.005-3.021c0.143-0.012,0.285-0.023,0.428-0.033c0.35-0.025,0.457,0.159,0.455,0.481
	c-0.008,1.558,0.018,3.115-0.084,4.67c-0.167,2.559-0.472,5.099-0.938,7.621C14.706,18.103,14.655,18.161,13.715,18.116z"/>
<path fill-rule="evenodd" clip-rule="evenodd" fill="#01CFFA" d="M11.279,8.777c0.983,0,1.968,0.01,2.951-0.005
	c0.376-0.006,0.498,0.146,0.501,0.511c0.007,0.816-0.139,1.62-0.188,2.433c-0.062,1.021-0.251,2.034-0.394,3.05
	c-0.09,0.638-0.206,1.271-0.29,1.91c-0.044,0.332-0.227,0.463-0.534,0.441c-0.405-0.029-0.808-0.103-1.212-0.109
	C11.202,16.99,10.29,17.007,9.379,17c-0.597-0.005-0.591-0.014-0.715-0.632c-0.279-1.382-0.419-2.781-0.59-4.179
	c-0.11-0.902-0.127-1.81-0.244-2.711C7.742,8.8,7.804,8.786,8.472,8.782c0.936-0.006,1.871-0.002,2.808-0.002
	C11.279,8.779,11.279,8.778,11.279,8.777z"/>
</svg>
