<?xml version="1.0" encoding="utf-8"?>
<!-- Generator: Adobe Illustrator 16.0.0, SVG Export Plug-In . SVG Version: 6.00 Build 0)  -->
<!DOCTYPE svg PUBLIC "-//W3C//DTD SVG 1.1//EN" "http://www.w3.org/Graphics/SVG/1.1/DTD/svg11.dtd">
<svg version="1.1" id="Capa_1" xmlns="http://www.w3.org/2000/svg" xmlns:xlink="http://www.w3.org/1999/xlink" x="0px" y="0px"
	 width="22.532px" height="22.519px" viewBox="0 0 22.532 22.519" enable-background="new 0 0 22.532 22.519" xml:space="preserve">
<path fill-rule="evenodd" clip-rule="evenodd" fill="#FFA200" d="M11.224,22.517c-6.253,0.025-11.289-5.2-11.223-11.351
	C0.068,4.945,5.109-0.059,11.415,0.002C17.78,0.066,22.609,5.364,22.53,11.393C22.448,17.558,17.432,22.539,11.224,22.517z"/>
<path fill-rule="evenodd" clip-rule="evenodd" fill="#6DC3FB" d="M17.985,5.607c0.309,0.84,0.387,1.729,0.441,2.604
	c0.121,1.933,0.106,3.868-0.234,5.785c-0.059,0.328-0.142,0.653-0.213,0.979c-0.157,0.174-0.372,0.202-0.583,0.202
	c-1.108,0.002-2.217,0.069-3.322-0.038c-0.352-0.078-0.486-0.362-0.601-0.656c-0.184-0.473-0.504-0.81-0.973-0.999
	c-0.805-0.325-1.479-0.88-2.252-1.261c-0.582-0.51-1.137-1.034-1.077-1.909c0.012-0.173-0.006-0.345-0.201-0.418
	c-0.184-0.068-0.338,0.015-0.444,0.152c-0.225,0.29-0.449,0.524-0.816,0.196c0.046-1.563,0.078-3.127,0.533-4.643
	c0.28-0.243,0.624-0.219,0.957-0.22c2.611-0.005,5.222-0.006,7.833,0.002C17.363,5.384,17.712,5.343,17.985,5.607z"/>
<path fill-rule="evenodd" clip-rule="evenodd" fill="#DEDEDE" d="M14.735,15.988c-0.024,0.63-0.375,1.029-0.941,1.224
	c-0.294,0.101-0.473,0.211-0.576,0.538c-0.164,0.515-0.609,0.712-1.132,0.717c-0.743,0.008-1.485,0.005-2.229,0.006
	c-0.959,0-1.917-0.01-2.876,0.002c-0.612,0.008-1.089-0.188-1.283-0.811c-0.076-0.244-0.224-0.323-0.453-0.386
	C4.589,17.1,4.264,16.645,4.239,15.97c1.494-0.261,3.001-0.244,4.508-0.199c0.308-0.012,0.615-0.011,0.923,0.003
	c0.968-0.02,1.937-0.01,2.904-0.005c0.41,0.002,0.799-0.051,1.16-0.25C14.075,15.659,14.432,15.765,14.735,15.988z"/>
<path fill-rule="evenodd" clip-rule="evenodd" fill="#B9E3FF" d="M17.985,5.607c-3.247-0.002-6.494-0.003-9.742-0.005
	C8.235,5.412,8.215,5.22,8.22,5.029c0.017-0.621,0.527-0.942,1.053-0.623c0.378,0.229,0.7,0.266,1.039-0.022
	c0.246-0.21,0.482-0.154,0.711,0.021c0.326,0.252,0.645,0.285,0.964-0.012c0.243-0.226,0.476-0.152,0.699,0.036
	c0.279,0.235,0.559,0.243,0.833-0.005c0.281-0.253,0.557-0.194,0.841-0.004c0.235,0.158,0.478,0.22,0.716-0.001
	c0.315-0.293,0.624-0.289,0.941,0.006c0.238,0.221,0.489,0.252,0.776,0.05c0.224-0.157,0.44-0.339,0.768-0.106
	c0.326,0.23,0.522,0.471,0.452,0.881C17.993,5.367,17.994,5.488,17.985,5.607z"/>
<path fill-rule="evenodd" clip-rule="evenodd" fill="#FF5C69" d="M9.676,15.923c-0.274,0.055-0.549,0.045-0.824,0.006
	c-0.331-0.548-0.941-0.832-1.284-1.374c-0.169-0.267-0.467-0.281-0.764-0.235c-0.203,0.03-0.384,0.201-0.607,0.095
	c-0.36-0.099-0.583-0.369-0.65-0.698c-0.07-0.34-0.196-0.503-0.551-0.502c-0.132,0-0.265-0.089-0.419-0.145
	c0.068-0.389,0.337-0.628,0.503-0.913c0.25,0.037,0.338,0.226,0.48,0.343c0.112,0.093,0.233,0.216,0.376,0.147
	c0.473-0.226,0.82,0.072,1.2,0.251c0.257,0.121,0.481,0.313,0.777,0.347c0.654,0.076,1.132,0.479,1.621,0.865
	C9.808,14.697,9.802,15.305,9.676,15.923z"/>
<path fill-rule="evenodd" clip-rule="evenodd" fill="#CDEE4F" d="M6.197,14.415c0.783-0.543,1.214-0.474,1.685,0.313
	c0.109,0.184,0.253,0.274,0.424,0.353c0.368,0.166,0.536,0.456,0.547,0.85c-1.538,0.087-3.076,0.011-4.614,0.041
	c0.065-0.128,0.186-0.136,0.303-0.126c0.352,0.031,0.647-0.016,0.782-0.414c0.032-0.094,0.165-0.185,0.269-0.216
	C5.996,15.092,6.096,14.756,6.197,14.415z"/>
<path fill-rule="evenodd" clip-rule="evenodd" fill="#B8E5FD" d="M14.735,15.988c-0.164-0.004-0.329-0.018-0.493-0.008
	c-0.329,0.021-0.389-0.188-0.396-0.446c-0.157-0.188-0.149-0.374,0.013-0.555c1.374-0.002,2.747-0.003,4.12-0.004
	c0.011,0.142,0.032,0.284,0.029,0.427c-0.01,0.693-0.553,1.013-1.207,0.699c-0.226-0.107-0.44-0.23-0.657-0.028
	c-0.362,0.337-0.713,0.295-1.074,0.009C14.972,16.005,14.859,15.973,14.735,15.988z"/>
<path fill-rule="evenodd" clip-rule="evenodd" fill="#FDFDFD" d="M7.71,10.245c0.24-0.036,0.528,0.15,0.647-0.298
	c0.085-0.319,0.504-0.406,0.775-0.271c0.285,0.143,0.355,0.427,0.243,0.665c-0.167,0.356-0.002,0.584,0.18,0.833
	c0.236,0.324,0.477,0.646,0.715,0.969c-0.18,0.474-0.512,0.733-1.027,0.738c-0.271-0.129-0.424-0.376-0.561-0.62
	c-0.229-0.409-0.546-0.698-0.986-0.856C7.233,10.9,7.236,10.729,7.71,10.245z"/>
<path fill-rule="evenodd" clip-rule="evenodd" fill="#6FC3F9" d="M7.696,11.404c0.424-0.103,0.703,0.07,0.917,0.438
	c0.199,0.343,0.444,0.659,0.668,0.987c-0.018,0.433,0.386,0.827,0.117,1.282c-0.516-0.253-1.015-0.534-1.484-0.868
	C7.841,12.63,7.769,12.017,7.696,11.404z"/>
<path fill-rule="evenodd" clip-rule="evenodd" fill="#FBAB34" d="M9.398,14.112c0.025-0.24-0.072-0.453-0.181-0.648
	c-0.134-0.239-0.071-0.435,0.064-0.634c0.373-0.168,0.685-0.421,0.989-0.688c0.256-0.094,0.449-0.008,0.639,0.18
	c0.342,0.338,0.733,0.627,1.19,0.771c0.952,0.301,1.525,0.928,1.76,1.886c-0.004,0.185-0.008,0.37-0.013,0.555
	c-0.131,0.209-0.188,0.451-0.55,0.437c-1.205-0.05-2.414,0.036-3.62-0.047c-0.105-0.319-0.147-0.645-0.138-0.981
	C9.547,14.659,9.571,14.367,9.398,14.112z"/>
<path fill-rule="evenodd" clip-rule="evenodd" fill="#F9FCFD" d="M12.859,9.389c0-0.335-0.007-0.502,0.001-0.667
	c0.018-0.371,0.016-0.726-0.388-0.924c-0.11-0.054-0.193-0.157-0.114-0.292c0.066-0.113,0.188-0.18,0.303-0.101
	c0.313,0.215,0.608,0.238,0.924,0.004c0.111-0.083,0.235-0.034,0.302,0.087c0.076,0.138-0.036,0.22-0.12,0.3
	c-0.551,0.529-0.568,0.596-0.351,1.531c0.345-0.114,0.638-0.311,0.938-0.496c0.263-0.161,0.172-0.423,0.228-0.644
	c0.025-0.1,0.094-0.183,0.194-0.183c0.096,0,0.198,0.071,0.195,0.174c-0.012,0.395,0.126,0.688,0.49,0.873
	c0.083,0.042,0.117,0.157,0.053,0.252c-0.055,0.081-0.145,0.157-0.24,0.095c-0.65-0.427-1.041,0.126-1.668,0.366
	c0.58,0.363,0.937,0.891,1.602,0.496c0.11-0.065,0.244-0.045,0.313,0.074c0.054,0.092,0.005,0.203-0.078,0.251
	c-0.319,0.182-0.487,0.433-0.47,0.814c0.006,0.115-0.099,0.224-0.242,0.207c-0.157-0.018-0.17-0.157-0.165-0.272
	c0.017-0.333-0.138-0.557-0.434-0.673c-0.229-0.089-0.421-0.382-0.704-0.209c-0.202,0.124-0.159,0.923,0.019,1.153
	c0.136,0.176,0.562,0.207,0.422,0.481c-0.186,0.363-0.438-0.007-0.664-0.067c-0.238-0.064-0.372,0.2-0.59,0.212
	c-0.098,0.005-0.203-0.001-0.259-0.089c-0.058-0.089-0.035-0.202,0.054-0.252c0.671-0.37,0.403-0.984,0.436-1.52
	c-0.223-0.079-0.336,0.086-0.478,0.155c-0.37,0.181-0.747,0.362-0.683,0.892c0.015,0.122-0.083,0.223-0.233,0.206
	c-0.113-0.013-0.178-0.102-0.172-0.196c0.024-0.383-0.148-0.632-0.474-0.813c-0.107-0.06-0.141-0.191-0.052-0.311
	c0.068-0.091,0.187-0.104,0.26-0.054c0.633,0.431,1.003-0.131,1.595-0.408c-0.545-0.316-0.883-0.859-1.552-0.466
	c-0.121,0.07-0.238,0.052-0.311-0.067c-0.076-0.125-0.019-0.258,0.093-0.305c0.373-0.158,0.452-0.455,0.448-0.815
	c-0.002-0.103,0.09-0.183,0.188-0.186c0.096-0.003,0.202,0.068,0.195,0.172C11.614,8.972,12.292,9.011,12.859,9.389z"/>
</svg>
