<?xml version="1.0" encoding="utf-8"?>
<!-- Generator: Adobe Illustrator 16.0.0, SVG Export Plug-In . SVG Version: 6.00 Build 0)  -->
<!DOCTYPE svg PUBLIC "-//W3C//DTD SVG 1.1//EN" "http://www.w3.org/Graphics/SVG/1.1/DTD/svg11.dtd">
<svg version="1.1" id="Capa_1" xmlns="http://www.w3.org/2000/svg" xmlns:xlink="http://www.w3.org/1999/xlink" x="0px" y="0px"
	 width="22.532px" height="22.519px" viewBox="0 0 22.532 22.519" enable-background="new 0 0 22.532 22.519" xml:space="preserve">
<path fill-rule="evenodd" clip-rule="evenodd" fill="#FF114D" d="M11.261,22.52c-6.312,0.029-11.31-5.214-11.258-11.318
	C0.056,5,5.067-0.019,11.31-0.001c6.37,0.019,11.258,5.268,11.219,11.288C22.489,17.513,17.495,22.523,11.261,22.52z"/>
<path fill-rule="evenodd" clip-rule="evenodd" fill="#6DC3FB" d="M7.685,10.315c0.066-1.421,0.123-2.843,0.416-4.241
	c0.033-0.16,0.097-0.314,0.147-0.472c0.279-0.244,0.624-0.219,0.956-0.219c2.609-0.006,5.219-0.007,7.829,0.001
	c0.329,0.001,0.678-0.04,0.951,0.221c0.312,0.84,0.39,1.729,0.444,2.604c0.12,1.934,0.105,3.87-0.235,5.788
	c-0.059,0.329-0.142,0.653-0.213,0.979c-0.158,0.174-0.372,0.201-0.584,0.202c-1.107,0.001-2.215,0.068-3.32-0.039
	c-0.351-0.077-0.485-0.361-0.6-0.654c-0.184-0.472-0.502-0.809-0.97-0.999c-0.802-0.326-1.478-0.876-2.247-1.259
	c-0.594-0.522-1.168-1.057-1.083-1.957c0.014-0.15-0.028-0.295-0.173-0.361c-0.206-0.095-0.378,0-0.499,0.162
	C8.288,10.362,8.063,10.583,7.685,10.315z"/>
<path fill-rule="evenodd" clip-rule="evenodd" fill="#DBDBDC" d="M14.738,15.987c-0.023,0.631-0.375,1.029-0.94,1.225
	c-0.292,0.101-0.475,0.206-0.578,0.536c-0.161,0.517-0.607,0.713-1.13,0.72c-0.694,0.008-1.39,0.005-2.085,0.006
	c-0.982,0-1.965-0.014-2.947,0.004c-0.668,0.012-1.185-0.181-1.382-0.879c-0.066-0.232-0.235-0.271-0.428-0.313
	c-0.493-0.106-0.778-0.443-0.948-0.893c-0.156-0.412-0.102-0.484,0.359-0.506c0.144-0.006,0.288,0.002,0.431,0.003
	c1.224-0.25,2.46-0.086,3.69-0.116c0.302-0.014,0.604-0.008,0.905,0.001c0.959-0.02,1.917-0.01,2.876-0.005
	c0.415,0.003,0.811-0.047,1.178-0.251C14.078,15.66,14.435,15.765,14.738,15.987z"/>
<path fill-rule="evenodd" clip-rule="evenodd" fill="#B9E3FF" d="M17.984,5.605c-3.245-0.001-6.491-0.002-9.736-0.003
	c-0.009-0.19-0.03-0.383-0.025-0.573c0.016-0.622,0.521-0.936,1.053-0.627C9.616,4.6,9.922,4.716,10.252,4.423
	c0.286-0.256,0.559-0.197,0.834,0.016c0.28,0.217,0.559,0.238,0.84-0.008c0.249-0.217,0.501-0.236,0.761-0.005
	c0.272,0.242,0.557,0.247,0.832-0.002c0.28-0.254,0.559-0.202,0.84-0.004c0.27,0.188,0.529,0.186,0.775-0.043
	c0.311-0.289,0.597-0.206,0.882,0.047c0.241,0.215,0.487,0.255,0.776,0.05c0.222-0.157,0.441-0.341,0.769-0.108
	c0.324,0.23,0.524,0.47,0.453,0.882C17.994,5.365,17.994,5.485,17.984,5.605z"/>
<path fill-rule="evenodd" clip-rule="evenodd" fill="#FF5D6A" d="M9.678,15.922c-0.274,0.055-0.549,0.045-0.824,0.006
	c-0.332-0.557-0.942-0.85-1.295-1.395c-0.19-0.294-0.527-0.283-0.846-0.19c-0.203,0.059-0.355,0.251-0.591,0.225
	c-0.147-0.187-0.312-0.361-0.437-0.562c-0.212-0.341-0.298-0.719-0.065-1.075c0.236-0.359,0.631-0.299,0.98-0.247
	c0.308,0.044,0.576,0.223,0.829,0.4c0.387,0.274,0.363-0.042,0.407-0.27c0.477,0.552,1.167,0.826,1.705,1.302
	C9.8,14.702,9.809,15.307,9.678,15.922z"/>
<path fill-rule="evenodd" clip-rule="evenodd" fill="#CDEE4B" d="M6.122,14.568c0.243-0.307,0.518-0.525,0.953-0.486
	c0.312,0.028,0.58,0.141,0.692,0.41c0.14,0.333,0.368,0.514,0.674,0.666c0.3,0.149,0.403,0.444,0.412,0.771
	c-1.255,0.035-2.511,0.11-3.765-0.039c0.128-0.369,0.338-0.667,0.716-0.816C6.035,14.982,6.091,14.784,6.122,14.568z"/>
<path fill-rule="evenodd" clip-rule="evenodd" fill="#B7E5FF" d="M14.738,15.987c-0.141-0.003-0.283-0.02-0.423-0.006
	c-0.341,0.035-0.475-0.13-0.467-0.449c-0.156-0.188-0.149-0.373,0.014-0.553c1.372-0.001,2.745-0.002,4.118-0.003
	c0.011,0.143,0.032,0.285,0.03,0.427c-0.009,0.657-0.555,1.008-1.145,0.73c-0.238-0.111-0.471-0.293-0.72-0.062
	c-0.363,0.337-0.712,0.296-1.073,0.009C14.976,16.004,14.862,15.973,14.738,15.987z"/>
<path fill-rule="evenodd" clip-rule="evenodd" fill="#FCFDFD" d="M7.685,10.315c0.275-0.055,0.57-0.002,0.694-0.405
	C8.475,9.598,8.82,9.569,9.114,9.671c0.27,0.095,0.381,0.369,0.275,0.583c-0.235,0.476,0.063,0.764,0.287,1.087
	c0.189,0.273,0.396,0.534,0.596,0.802c-0.18,0.473-0.512,0.732-1.028,0.737c-0.271-0.129-0.424-0.376-0.56-0.62
	c-0.229-0.409-0.546-0.699-0.986-0.855C7.241,10.903,7.239,10.743,7.685,10.315z"/>
<path fill-rule="evenodd" clip-rule="evenodd" fill="#70C2F9" d="M7.698,11.405c0.426-0.106,0.702,0.07,0.917,0.437
	c0.2,0.343,0.444,0.66,0.668,0.988c-0.017,0.433,0.387,0.826,0.116,1.281c-0.292-0.159-0.575-0.341-0.879-0.473
	c-0.376-0.164-0.604-0.426-0.683-0.823C7.83,12.34,7.789,11.871,7.698,11.405z"/>
<path fill-rule="evenodd" clip-rule="evenodd" fill="#FBAB34" d="M9.399,14.111c0.026-0.253-0.082-0.474-0.195-0.682
	c-0.127-0.233-0.037-0.412,0.079-0.6c0.373-0.168,0.687-0.42,0.99-0.688c0.257-0.096,0.449-0.006,0.639,0.181
	c0.342,0.336,0.733,0.627,1.19,0.771c0.954,0.3,1.524,0.93,1.761,1.886c-0.005,0.185-0.01,0.368-0.014,0.553
	c-0.133,0.208-0.188,0.452-0.55,0.438c-1.205-0.05-2.414,0.036-3.62-0.047c-0.106-0.319-0.147-0.645-0.138-0.981
	C9.549,14.658,9.573,14.366,9.399,14.111z"/>
<path fill-rule="evenodd" clip-rule="evenodd" fill="#F8FBFD" d="M12.86,9.376c0-0.32-0.008-0.511,0.002-0.699
	c0.019-0.349-0.002-0.671-0.365-0.861c-0.132-0.069-0.239-0.181-0.113-0.343c0.085-0.11,0.207-0.129,0.318-0.054
	c0.288,0.196,0.565,0.208,0.854,0.002c0.106-0.076,0.231-0.071,0.316,0.046c0.091,0.127,0.023,0.251-0.081,0.302
	c-0.708,0.344-0.459,0.946-0.451,1.554c0.426-0.087,0.728-0.313,1.042-0.515c0.229-0.146,0.151-0.382,0.192-0.584
	C14.6,8.1,14.664,7.993,14.807,8.008c0.102,0.012,0.185,0.106,0.177,0.2c-0.028,0.377,0.114,0.64,0.451,0.814
	c0.115,0.06,0.15,0.188,0.065,0.307c-0.061,0.085-0.165,0.118-0.253,0.063c-0.654-0.408-1.04,0.108-1.587,0.418
	c0.541,0.321,0.915,0.854,1.574,0.441c0.079-0.05,0.193-0.036,0.263,0.047c0.104,0.125,0.028,0.251-0.071,0.302
	c-0.343,0.177-0.454,0.46-0.455,0.821c-0.001,0.102-0.097,0.179-0.191,0.189c-0.151,0.018-0.22-0.102-0.208-0.227
	c0.048-0.488-0.294-0.664-0.645-0.841c-0.438-0.221-0.548-0.175-0.606,0.288c-0.051,0.396-0.038,0.771,0.405,0.974
	c0.127,0.058,0.259,0.161,0.136,0.334c-0.081,0.115-0.232,0.134-0.32,0.062c-0.29-0.238-0.552-0.188-0.837,0.004
	c-0.097,0.065-0.238,0.053-0.331-0.046c-0.079-0.084-0.063-0.201,0.023-0.249c0.665-0.364,0.425-0.978,0.464-1.605
	c-0.567,0.279-1.202,0.366-1.184,1.159c0.002,0.107-0.098,0.168-0.198,0.165c-0.101-0.002-0.2-0.067-0.19-0.174
	c0.039-0.419-0.186-0.667-0.511-0.87c-0.091-0.056-0.088-0.172-0.039-0.259c0.052-0.092,0.172-0.133,0.249-0.083
	c0.654,0.424,1.046-0.107,1.577-0.407c-0.503-0.344-0.881-0.854-1.545-0.445c-0.088,0.055-0.192,0.028-0.256-0.056
	c-0.085-0.113-0.066-0.247,0.051-0.31c0.328-0.174,0.506-0.413,0.468-0.802c-0.012-0.119,0.08-0.23,0.226-0.216
	c0.106,0.01,0.181,0.106,0.176,0.199C11.642,8.963,12.294,9.01,12.86,9.376z"/>
</svg>
