<?xml version="1.0" encoding="utf-8"?>
<!-- Generator: Adobe Illustrator 16.0.0, SVG Export Plug-In . SVG Version: 6.00 Build 0)  -->
<!DOCTYPE svg PUBLIC "-//W3C//DTD SVG 1.1//EN" "http://www.w3.org/Graphics/SVG/1.1/DTD/svg11.dtd">
<svg version="1.1" id="Capa_1" xmlns="http://www.w3.org/2000/svg" xmlns:xlink="http://www.w3.org/1999/xlink" x="0px" y="0px"
	 width="22.532px" height="22.519px" viewBox="0 0 22.532 22.519" enable-background="new 0 0 22.532 22.519" xml:space="preserve">
<path fill-rule="evenodd" clip-rule="evenodd" fill="#9FFF00" d="M11.305,0.002c6.2-0.037,11.239,5.138,11.228,11.274
	c-0.012,6.009-4.897,11.243-11.271,11.242c-6.337,0-11.29-5.212-11.262-11.321C0.026,5.081,5.079-0.075,11.305,0.002z"/>
<path fill-rule="evenodd" clip-rule="evenodd" fill="#6DC3FB" d="M17.98,5.532c0.38,1.268,0.468,2.574,0.498,3.887
	c0.043,1.888-0.057,3.765-0.499,5.609c-0.154,0.181-0.371,0.21-0.583,0.21c-1.112,0-2.225,0.076-3.334-0.047
	c-0.291-0.075-0.409-0.314-0.501-0.564c-0.211-0.577-0.616-0.976-1.168-1.203c-0.758-0.312-1.368-0.879-2.13-1.177
	c-0.547-0.552-1.173-1.059-1.093-1.965C9.186,10.11,9.128,9.944,8.949,9.87c-0.187-0.077-0.32,0.033-0.434,0.16
	c-0.226,0.251-0.435,0.542-0.82,0.24C7.77,8.677,7.787,7.077,8.248,5.528C8.523,5.277,8.868,5.3,9.2,5.299
	c2.611-0.005,5.222-0.007,7.833,0.002C17.362,5.302,17.712,5.259,17.98,5.532z"/>
<path fill-rule="evenodd" clip-rule="evenodd" fill="#DBDBDB" d="M14.759,15.924c-0.051,0.671-0.393,1.109-1.043,1.301
	c-0.237,0.069-0.399,0.172-0.478,0.455c-0.153,0.56-0.621,0.789-1.153,0.795c-1.77,0.021-3.539,0.016-5.309,0.001
	c-0.495-0.004-0.875-0.255-1.048-0.731c-0.087-0.24-0.188-0.38-0.456-0.466c-0.705-0.226-0.884-0.483-1.043-1.323
	c0.312-0.129,0.652-0.014,0.969-0.089c0.41-0.278,0.877-0.188,1.325-0.192c0.741-0.005,1.483-0.026,2.224,0.013
	c0.311-0.012,0.621-0.009,0.931,0.003c1.358-0.075,2.726,0.123,4.077-0.138C14.099,15.648,14.485,15.638,14.759,15.924z"/>
<path fill-rule="evenodd" clip-rule="evenodd" fill="#BBE6FF" d="M17.98,5.532c-3.244-0.001-6.488-0.003-9.732-0.004
	C8.238,5.313,8.209,5.098,8.224,4.886c0.032-0.461,0.578-0.779,0.975-0.534c0.405,0.249,0.762,0.342,1.15,0
	c0.253-0.223,0.5-0.102,0.712,0.064c0.31,0.242,0.589,0.257,0.889-0.013c0.222-0.2,0.463-0.227,0.702-0.011
	c0.288,0.26,0.575,0.296,0.879,0.013c0.246-0.229,0.515-0.211,0.782-0.023c0.291,0.204,0.581,0.206,0.849-0.032
	c0.291-0.26,0.556-0.198,0.817,0.036c0.256,0.229,0.49,0.281,0.823,0.078c0.648-0.396,1.201-0.052,1.207,0.712
	C18.01,5.295,17.99,5.413,17.98,5.532z"/>
<path fill-rule="evenodd" clip-rule="evenodd" fill="#FF5C68" d="M9.679,15.875c-0.279,0-0.559,0-0.838,0
	c-0.389-0.508-0.98-0.808-1.34-1.358c-0.364-0.558-0.854-0.138-1.292-0.068c-0.355-0.213-0.666-0.466-0.722-0.912
	c-0.022-0.173-0.13-0.237-0.278-0.275c-0.205-0.054-0.409-0.111-0.648-0.177c0.076-0.388,0.318-0.67,0.515-0.964
	c0.226-0.001,0.313,0.161,0.413,0.278c0.19,0.221,0.382,0.297,0.678,0.202c0.252-0.081,0.507,0.008,0.746,0.147
	c0.326,0.192,0.669,0.355,1.006,0.531c0.652-0.015,1.077,0.463,1.595,0.74C9.825,14.615,9.817,15.239,9.679,15.875z"/>
<path fill-rule="evenodd" clip-rule="evenodd" fill="#FCFDFD" d="M7.695,10.271c0.263,0.01,0.513,0.042,0.64-0.299
	c0.109-0.295,0.358-0.457,0.69-0.363c0.287,0.081,0.482,0.409,0.34,0.763c-0.142,0.351,0.023,0.545,0.182,0.776
	c0.229,0.337,0.469,0.666,0.704,0.998c-0.11,0.528-0.549,0.644-0.974,0.776c-0.348-0.156-0.485-0.5-0.663-0.793
	c-0.218-0.359-0.492-0.605-0.906-0.688C7.23,10.881,7.229,10.734,7.695,10.271z"/>
<path fill-rule="evenodd" clip-rule="evenodd" fill="#CCEF48" d="M6.209,14.448c0.704-0.633,1.181-0.568,1.646,0.237
	c0.098,0.17,0.184,0.299,0.392,0.374c0.359,0.13,0.583,0.408,0.594,0.815c-1.214,0.028-2.429,0.045-3.643-0.009
	c-0.013-0.319,0.151-0.544,0.417-0.675C5.938,15.032,6.102,14.769,6.209,14.448z"/>
<path fill-rule="evenodd" clip-rule="evenodd" fill="#BBE6FD" d="M14.759,15.924c-0.183-0.011-0.365-0.029-0.548-0.027
	c-0.223,0.002-0.339-0.104-0.374-0.314c-0.145-0.191-0.143-0.376,0.025-0.553c1.372,0,2.744,0,4.116-0.001
	c0.036,0.42,0.166,0.847-0.386,1.091c-0.296,0.132-0.521,0.147-0.79-0.02c-0.171-0.106-0.37-0.294-0.579-0.088
	c-0.428,0.422-0.85,0.289-1.28,0.021C14.882,15.995,14.821,15.96,14.759,15.924z"/>
<path fill-rule="evenodd" clip-rule="evenodd" fill="#6DC3F9" d="M7.708,11.441c0.417-0.128,0.7-0.009,0.907,0.397
	c0.18,0.354,0.438,0.667,0.662,0.999c0.076,0.419,0.334,0.817,0.146,1.268c-0.502-0.275-1.003-0.551-1.505-0.826
	C7.848,12.667,7.778,12.054,7.708,11.441z"/>
<path fill-rule="evenodd" clip-rule="evenodd" fill="#FBAB34" d="M9.423,14.105c-0.068-0.226-0.111-0.463-0.211-0.674
	c-0.108-0.227-0.066-0.407,0.064-0.594c0.343-0.205,0.687-0.409,0.974-0.692c0.308-0.079,0.545,0.017,0.765,0.25
	c0.314,0.334,0.712,0.571,1.141,0.713c0.952,0.313,1.511,0.949,1.707,1.921c-0.009,0.185-0.018,0.369-0.025,0.553
	c-0.124,0.227-0.294,0.326-0.571,0.321c-1.195-0.023-2.392-0.021-3.587-0.028C9.571,15.541,9.53,15.2,9.538,14.849
	C9.542,14.597,9.583,14.334,9.423,14.105z"/>
<path fill-rule="evenodd" clip-rule="evenodd" fill="#F9FCFD" d="M13.606,9.748c0.619,0.413,1.022,0.894,1.673,0.479
	c0.099-0.063,0.184,0.02,0.237,0.102c0.062,0.096,0.028,0.211-0.055,0.252c-0.368,0.182-0.499,0.479-0.49,0.872
	c0.003,0.103-0.102,0.17-0.198,0.169c-0.102-0.001-0.196-0.087-0.189-0.183c0.062-0.853-0.697-0.816-1.203-1.228
	c-0.093,0.671-0.238,1.205,0.35,1.589c0.112,0.073,0.251,0.188,0.146,0.352c-0.097,0.152-0.25,0.122-0.376,0.029
	c-0.299-0.221-0.569-0.161-0.851,0.042c-0.114,0.082-0.228,0.002-0.298-0.109c-0.062-0.097-0.032-0.215,0.049-0.253
	c0.691-0.327,0.384-0.937,0.486-1.554c-0.574,0.276-1.221,0.282-1.198,1.077c0.004,0.133-0.082,0.243-0.214,0.239
	c-0.131-0.004-0.212-0.122-0.201-0.253c0.027-0.353-0.117-0.589-0.432-0.746c-0.113-0.056-0.17-0.181-0.095-0.305
	c0.072-0.119,0.192-0.138,0.311-0.066c0.639,0.385,0.999-0.138,1.53-0.448c-0.532-0.304-0.894-0.84-1.552-0.435
	c-0.11,0.067-0.246,0.042-0.307-0.084c-0.061-0.124-0.004-0.238,0.113-0.303c0.301-0.165,0.455-0.403,0.433-0.758
	c-0.009-0.127,0.075-0.229,0.221-0.222c0.106,0.005,0.188,0.08,0.185,0.184c-0.033,0.744,0.569,0.829,1.114,1.113
	c0.038-0.617,0.31-1.19-0.375-1.562c-0.09-0.049-0.125-0.16-0.069-0.249c0.052-0.083,0.168-0.128,0.254-0.086
	c0.346,0.168,0.68,0.183,1.027,0.004c0.089-0.045,0.193,0.018,0.243,0.105c0.076,0.135-0.008,0.239-0.119,0.289
	c-0.592,0.262-0.448,0.778-0.435,1.244c0.006,0.177,0.146,0.275,0.297,0.18c0.381-0.24,0.953-0.299,0.947-0.938
	c-0.002-0.15,0.042-0.301,0.236-0.281c0.14,0.013,0.206,0.133,0.191,0.259c-0.04,0.363,0.13,0.582,0.441,0.734
	c0.117,0.058,0.161,0.18,0.09,0.303c-0.054,0.091-0.18,0.136-0.25,0.084C14.62,8.903,14.247,9.521,13.606,9.748z"/>
</svg>
