<?xml version="1.0" encoding="utf-8"?>
<!-- Generator: Adobe Illustrator 16.0.0, SVG Export Plug-In . SVG Version: 6.00 Build 0)  -->
<!DOCTYPE svg PUBLIC "-//W3C//DTD SVG 1.1//EN" "http://www.w3.org/Graphics/SVG/1.1/DTD/svg11.dtd">
<svg version="1.1" id="Capa_1" xmlns="http://www.w3.org/2000/svg" xmlns:xlink="http://www.w3.org/1999/xlink" x="0px" y="0px"
	 width="30.625px" height="30.625px" viewBox="0 0 30.625 30.625" enable-background="new 0 0 30.625 30.625" xml:space="preserve">
<g>
	<path fill-rule="evenodd" clip-rule="evenodd" fill="#EA184D" d="M29.735,15.273c0.045,6.282-4.112,12.014-10.37,13.831
		c-0.804,0.233-1.625,0.384-2.458,0.477c-0.818,0.091-1.637,0.106-2.454,0.052c-2.054-0.137-3.998-0.679-5.813-1.655
		c-2.453-1.318-4.37-3.192-5.75-5.609c-0.467-0.817-0.807-1.693-1.118-2.58c-0.306-0.872-0.523-1.768-0.629-2.686
		c-0.115-1.002-0.149-2.005-0.058-3.015c0.119-1.3,0.393-2.561,0.846-3.783C2.42,8.982,3.093,7.762,3.946,6.64
		C4.08,6.464,4.218,6.287,4.373,6.131C5.03,5.468,6.144,5.691,6.488,6.559C6.656,6.981,6.606,7.396,6.355,7.78
		C6.29,7.88,6.21,7.97,6.137,8.064c-1.212,1.549-1.982,3.296-2.329,5.23c-0.142,0.793-0.175,1.594-0.156,2.397
		c0.132,5.161,3.759,9.721,8.848,11.004c0.932,0.235,1.878,0.36,2.837,0.36c2.163,0,4.194-0.523,6.047-1.649
		c2.939-1.785,4.781-4.373,5.513-7.732c0.263-1.207,0.308-2.432,0.167-3.666c-0.269-2.356-1.156-4.448-2.682-6.258
		c-1.731-2.052-3.917-3.364-6.545-3.936c-0.72-0.156-1.449-0.226-2.182-0.262c-0.137-0.008-0.274-0.006-0.409-0.021
		c-0.6-0.063-1.08-0.549-1.14-1.135C14.033,1.692,14.477,1.161,15.054,1c0.129-0.036,0.271-0.037,0.406-0.039
		c0.529-0.005,1.056,0.023,1.583,0.086c0.85,0.1,1.683,0.271,2.501,0.517c4.83,1.449,8.564,5.402,9.767,10.238
		C29.597,12.95,29.742,14.114,29.735,15.273z"/>
	<path fill-rule="evenodd" clip-rule="evenodd" fill="#C0FF00" d="M26.549,15.22c0.032,3.5-1.575,6.736-4.203,8.823
		c-0.214,0.169-0.436,0.331-0.668,0.474c-0.683,0.416-1.481,0.098-1.806-0.504c-0.214-0.396-0.252-1.122,0.3-1.584
		c0.092-0.077,0.194-0.14,0.29-0.211c1.63-1.221,2.717-2.81,3.229-4.784c0.272-1.053,0.331-2.116,0.2-3.199
		c-0.396-3.293-2.786-6.202-6.133-7.16c-0.811-0.231-1.639-0.319-2.477-0.347c-2.142,0.084-4.04,0.786-5.638,2.235
		c-1.398,1.269-2.302,2.833-2.654,4.685c-0.919,4.84,2.21,8.979,6.348,9.979c1.816,0.438,3.59,0.31,5.321-0.394
		c0.125-0.051,0.254-0.096,0.383-0.137c0.02-0.007,0.073,0.024,0.075,0.042c0.013,0.101,0.017,0.202,0.02,0.304
		c0.021,0.706,0.345,1.234,0.944,1.6c0.086,0.053,0.179,0.099,0.263,0.155c0.016,0.011,0.021,0.076,0.006,0.088
		c-0.05,0.044-0.107,0.084-0.168,0.112c-0.835,0.401-1.708,0.691-2.617,0.867c-0.738,0.145-1.484,0.223-2.239,0.214
		c-2.488-0.031-4.736-0.779-6.71-2.294c-2.229-1.711-3.625-3.961-4.187-6.714c-0.212-1.04-0.256-2.094-0.166-3.159
		c0.338-3.99,2.892-7.612,6.682-9.254c0.977-0.423,1.993-0.697,3.05-0.833c0.75-0.096,1.5-0.116,2.249-0.056
		c2.236,0.18,4.254,0.947,6.02,2.337c2.073,1.633,3.41,3.744,4.017,6.312C26.474,13.634,26.563,14.464,26.549,15.22z"/>
	<path fill-rule="evenodd" clip-rule="evenodd" fill="#9A6200" d="M20.629,16.624c0.043,0,0.084-0.013,0.108,0.002
		c0.085,0.056,0.163,0.122,0.247,0.181c0.563,0.382,1.165,0.455,1.803,0.214c0.11-0.042,0.217-0.095,0.326-0.141
		c0.014-0.006,0.042-0.004,0.047,0.005c0.018,0.026,0.043,0.061,0.039,0.088c-0.082,0.473-0.231,0.926-0.412,1.368
		c-0.921,2.257-2.979,4.285-5.944,4.827c-4.286,0.783-8.175-1.944-9.181-5.849c-1.108-4.299,1.466-8.644,5.763-9.753
		c0.097-0.025,0.2-0.028,0.301-0.033c0.019-0.002,0.056,0.043,0.054,0.063c-0.006,0.049-0.025,0.098-0.047,0.144
		c-0.352,0.755-0.271,1.456,0.256,2.105c0.041,0.052,0.07,0.113,0.102,0.173c0.005,0.009-0.004,0.032-0.013,0.039
		c-0.028,0.019-0.058,0.037-0.089,0.048c-0.16,0.058-0.323,0.109-0.482,0.168c-1.761,0.65-3.066,2.231-3.399,4.05
		c-0.543,2.967,1.407,5.638,4.093,6.232c2.827,0.625,5.439-1.015,6.286-3.502C20.533,16.91,20.582,16.765,20.629,16.624z"/>
	<path fill-rule="evenodd" clip-rule="evenodd" fill="#FFA200" d="M23.37,14.988c0,0.094-0.001,0.23,0,0.367
		c0.007,0.606-0.563,1.161-1.175,1.205c-0.724,0.052-1.313-0.47-1.397-1.145c-0.019-0.151-0.018-0.306-0.03-0.459
		c-0.19-2.412-1.737-3.959-3.271-4.599c-0.508-0.211-1.031-0.355-1.581-0.397c-0.221-0.017-0.442-0.036-0.662-0.066
		c-0.543-0.075-0.914-0.382-1.075-0.897c-0.277-0.887,0.403-1.624,1.114-1.666c0.237-0.015,0.479-0.008,0.716,0.013
		c1.605,0.141,3.058,0.685,4.32,1.691c1.599,1.276,2.586,2.923,2.935,4.945c0.026,0.151,0.054,0.303,0.07,0.455
		C23.353,14.605,23.357,14.775,23.37,14.988z"/>
	<path fill-rule="evenodd" clip-rule="evenodd" fill="#990027" d="M13.98,3.62c-0.183,0.035-0.349,0.071-0.516,0.099
		c-2.192,0.362-4.119,1.285-5.798,2.733C7.537,6.563,7.406,6.673,7.273,6.777C7.257,6.789,7.196,6.775,7.189,6.76
		c-0.04-0.094-0.071-0.19-0.103-0.288C6.865,5.801,6.4,5.392,5.728,5.205C5.663,5.188,5.593,5.184,5.526,5.17
		C5.479,5.159,5.431,5.145,5.384,5.132c0.004-0.039-0.003-0.08,0.013-0.103c0.051-0.067,0.108-0.131,0.17-0.188
		c1.954-1.821,4.232-3.022,6.848-3.575c0.284-0.061,0.568-0.115,0.854-0.161c0.15-0.023,0.305-0.024,0.457-0.033
		c0.047-0.003,0.095,0.066,0.076,0.106c-0.035,0.077-0.071,0.154-0.107,0.23c-0.306,0.657-0.259,1.289,0.132,1.897
		C13.882,3.39,13.968,3.456,13.98,3.62z"/>
</g>
</svg>
