<?xml version="1.0" encoding="utf-8"?>
<!-- Generator: Adobe Illustrator 16.0.0, SVG Export Plug-In . SVG Version: 6.00 Build 0)  -->
<!DOCTYPE svg PUBLIC "-//W3C//DTD SVG 1.1//EN" "http://www.w3.org/Graphics/SVG/1.1/DTD/svg11.dtd">
<svg version="1.1" id="Capa_1" xmlns="http://www.w3.org/2000/svg" xmlns:xlink="http://www.w3.org/1999/xlink" x="0px" y="0px"
	 width="219.704px" height="52.093px" viewBox="0 0 219.704 52.093" enable-background="new 0 0 219.704 52.093"
	 xml:space="preserve">
<g>
	<path fill-rule="evenodd" clip-rule="evenodd" fill="#9F9F9F" d="M59.634,22.564c0-3.989,0-7.978,0.001-11.966
		c0-0.313,0.015-0.627,0.028-0.94c0.004-0.115,0.13-0.237,0.242-0.248c0.093-0.01,0.187-0.026,0.28-0.026
		c1.382-0.002,2.764,0.008,4.146-0.008c0.364-0.004,0.581,0.152,0.756,0.446c0.372,0.619,0.759,1.228,1.137,1.843
		c1.148,1.874,2.296,3.747,3.442,5.622c1.474,2.409,2.947,4.819,4.418,7.229c0.409,0.67,0.811,1.344,1.222,2.012
		c0.043,0.07,0.129,0.119,0.204,0.166c0.066,0.041,0.116-0.044,0.118-0.209c0.002-0.157,0.001-0.313,0.001-0.471
		c0-1.508,0-3.016,0-4.522c0-3.675,0-7.35,0-11.023c0-1.139-0.078-1.088,1.062-1.087c1.067,0.001,2.136-0.001,3.203,0.003
		c0.156,0.001,0.313,0.02,0.466,0.049c0.051,0.01,0.11,0.072,0.131,0.125c0.034,0.085,0.053,0.182,0.056,0.273
		c0.009,0.251,0.008,0.503,0.008,0.754c0,8.009,0,16.018,0,24.026c0,0.282-0.009,0.564-0.021,0.846
		c-0.007,0.162-0.138,0.281-0.308,0.292c-0.125,0.01-0.25,0.017-0.376,0.017c-1.351,0.002-2.701,0.002-4.051,0.001
		c-0.125,0-0.251-0.007-0.376-0.016c-0.132-0.011-0.242-0.07-0.314-0.181c-0.188-0.289-0.375-0.579-0.556-0.873
		c-1.517-2.458-3.029-4.917-4.548-7.373c-1.535-2.482-3.072-4.964-4.616-7.441c-0.196-0.315-0.323-0.683-0.628-0.925
		c-0.02-0.016-0.057-0.019-0.084-0.015c-0.03,0.005-0.079,0.019-0.083,0.037c-0.019,0.09-0.035,0.184-0.036,0.275
		c-0.002,0.723-0.002,1.444-0.002,2.167c0,4.365,0,8.73-0.001,13.097c0,0.313-0.011,0.627-0.025,0.94
		c-0.007,0.158-0.142,0.275-0.313,0.29c-0.063,0.005-0.125,0.014-0.188,0.014c-1.288,0.001-2.576,0.001-3.863,0.001
		c-0.063,0-0.126-0.006-0.188-0.01c-0.196-0.015-0.324-0.157-0.335-0.378c-0.006-0.125-0.008-0.251-0.009-0.377
		c-0.001-0.22,0-0.439,0-0.659C59.634,30.416,59.634,26.49,59.634,22.564z"/>
	<path fill-rule="evenodd" clip-rule="evenodd" fill="#606060" d="M151.848,17.084c-0.565,0.02-1.131,0.04-1.696,0.058
		c-0.157,0.005-0.314,0.003-0.47-0.001c-0.126-0.003-0.254-0.095-0.286-0.203c-0.035-0.12-0.062-0.242-0.098-0.362
		c-0.064-0.211-0.125-0.422-0.199-0.629c-0.444-1.251-1.303-2.058-2.599-2.361c-1.435-0.335-2.867-0.308-4.283,0.119
		c-0.423,0.128-0.817,0.324-1.183,0.573c-0.65,0.444-0.96,1.055-0.913,1.848c0.025,0.427,0.19,0.791,0.454,1.114
		c0.263,0.32,0.588,0.572,0.968,0.735c0.519,0.222,1.042,0.438,1.575,0.622c1.129,0.391,2.296,0.646,3.454,0.934
		c1.098,0.273,2.184,0.584,3.248,0.969c0.77,0.277,1.522,0.594,2.219,1.028c1.462,0.915,2.547,2.149,3.053,3.815
		c0.696,2.292,0.573,4.523-0.622,6.65c-0.813,1.448-1.983,2.498-3.484,3.19c-1.035,0.478-2.128,0.766-3.253,0.915
		c-1.152,0.152-2.313,0.238-3.478,0.184c-1.195-0.056-2.377-0.204-3.534-0.523c-0.607-0.168-1.193-0.39-1.758-0.67
		c-1.447-0.719-2.575-1.779-3.406-3.162c-0.621-1.034-1.021-2.152-1.271-3.327c-0.026-0.123-0.035-0.25-0.063-0.372
		c-0.25-1.072-0.164-0.987,0.866-1.104c0.967-0.11,1.939-0.174,2.909-0.261c0.219-0.019,0.439-0.038,0.655-0.076
		c0.473-0.081,0.614,0.008,0.711,0.489c0.124,0.619,0.333,1.211,0.619,1.774c0.7,1.378,1.817,2.215,3.318,2.55
		c1.249,0.278,2.498,0.243,3.738-0.037c0.875-0.199,1.641-0.605,2.263-1.277c0.712-0.771,0.978-1.668,0.813-2.692
		c-0.072-0.444-0.287-0.825-0.602-1.15c-0.289-0.298-0.636-0.509-1.003-0.691c-0.48-0.238-0.985-0.412-1.501-0.551
		c-1.213-0.324-2.429-0.639-3.645-0.955c-1.003-0.261-1.998-0.549-2.965-0.927c-0.703-0.275-1.393-0.582-2.03-0.988
		c-1.396-0.889-2.419-2.094-2.965-3.666c-1.109-3.194,0.206-6.682,3.174-8.348c1.053-0.592,2.188-0.941,3.373-1.145
		c1.403-0.24,2.817-0.252,4.229-0.155c1.002,0.069,1.997,0.231,2.96,0.537c1.275,0.404,2.431,1.01,3.385,1.972
		c1.242,1.254,1.938,2.762,2.14,4.507c0.025,0.217,0.035,0.438,0.049,0.656c0.007,0.114-0.105,0.239-0.232,0.25
		c-0.438,0.037-0.875,0.079-1.314,0.103C152.728,17.065,152.288,17.07,151.848,17.084z"/>
	<path fill-rule="evenodd" clip-rule="evenodd" fill="#606060" d="M199.466,26.201c0,2.827,0,5.653,0,8.48
		c0,0.282-0.012,0.564-0.023,0.847c-0.004,0.104-0.143,0.223-0.257,0.233c-0.062,0.005-0.125,0.014-0.187,0.014
		c-1.256,0-2.513,0-3.769-0.001c-0.031,0-0.063-0.001-0.094-0.002c-0.232-0.01-0.354-0.118-0.358-0.333
		c-0.007-0.346-0.006-0.691-0.009-1.036c-0.003-0.346-0.003-0.691-0.016-1.036c-0.001-0.042-0.066-0.087-0.11-0.12
		c-0.014-0.011-0.063,0.005-0.081,0.022c-0.153,0.156-0.306,0.313-0.454,0.474c-1.102,1.19-2.455,1.955-4.033,2.282
		c-1.438,0.299-2.874,0.253-4.266-0.275c-1.805-0.687-2.965-1.954-3.414-3.842c-0.13-0.549-0.24-1.104-0.253-1.674
		c-0.014-0.565-0.048-1.13-0.048-1.694c-0.004-3.612-0.004-7.225-0.001-10.836c0-0.281,0.022-0.563,0.048-0.844
		c0.004-0.047,0.073-0.1,0.124-0.127c0.052-0.028,0.118-0.041,0.179-0.041c1.444-0.003,2.889-0.003,4.333-0.001
		c0.06,0,0.128,0.012,0.178,0.042c0.05,0.029,0.113,0.086,0.117,0.135c0.022,0.281,0.038,0.563,0.039,0.846
		c0.003,2.701,0.009,5.402,0,8.103c-0.004,1.195,0.078,2.386,0.146,3.576c0.017,0.28,0.065,0.562,0.129,0.836
		c0.25,1.081,1.031,1.908,2.389,2.085c1.213,0.159,2.301-0.186,3.233-0.986c0.756-0.648,1.133-1.488,1.217-2.469
		c0.085-1.001,0.176-2.001,0.173-3.008c-0.005-2.67,0.003-5.339,0.006-8.009c0-0.282,0.003-0.565,0.011-0.848
		c0.005-0.185,0.108-0.288,0.288-0.297c0.157-0.009,0.313-0.015,0.47-0.015c1.194-0.002,2.387-0.002,3.581,0
		c0.156,0,0.313,0.016,0.468,0.027c0.111,0.009,0.218,0.134,0.226,0.259c0.006,0.094,0.015,0.188,0.016,0.281
		c0.002,0.251,0.002,0.503,0.002,0.754C199.466,20.736,199.466,23.469,199.466,26.201z"/>
	<path fill-rule="evenodd" clip-rule="evenodd" fill="#9F9F9F" d="M99.436,26.225c0,2.765,0,5.528,0,8.293
		c0,0.282-0.001,0.565-0.012,0.848c-0.01,0.27-0.133,0.394-0.417,0.395c-1.256,0.004-2.513,0.001-3.769-0.001
		c-0.062,0-0.135-0.005-0.182-0.037c-0.071-0.051-0.15-0.119-0.176-0.196c-0.039-0.116-0.044-0.246-0.046-0.371
		c-0.005-0.439,0.009-0.88-0.009-1.318c-0.008-0.203,0.106-0.444-0.13-0.601c-0.218,0.021-0.288,0.22-0.406,0.352
		c-0.592,0.662-1.267,1.224-2.05,1.639c-1.006,0.534-2.06,0.925-3.222,0.931c-0.376,0.002-0.753,0-1.13,0
		c-0.505,0-0.999-0.07-1.485-0.213c-1.175-0.347-2.188-0.944-2.97-1.896c-0.486-0.592-0.788-1.283-0.982-2.017
		c-0.112-0.422-0.172-0.857-0.234-1.293c-0.169-1.188-0.135-2.379-0.136-3.57c-0.003-3.078-0.001-6.157-0.001-9.235
		c0-0.282,0.003-0.565,0.009-0.848c0.007-0.315,0.187-0.368,0.426-0.387c0.031-0.002,0.063-0.005,0.094-0.005
		c1.319,0,2.638-0.002,3.958,0.001c0.125,0.001,0.256,0.007,0.37,0.048c0.074,0.027,0.166,0.12,0.174,0.191
		c0.031,0.279,0.041,0.563,0.041,0.845c0.003,2.262,0,4.522,0.002,6.785c0.001,1.13,0.023,2.261,0.012,3.392
		c-0.007,0.695,0.109,1.378,0.202,2.059c0.185,1.345,1.312,2.282,2.677,2.33c0.474,0.017,0.931-0.052,1.396-0.151
		c1.106-0.237,2.545-1.475,2.73-2.832c0.051-0.371,0.127-0.739,0.144-1.116c0.032-0.689,0.008-1.381,0.128-2.066
		c0.048-0.275,0.019-0.564,0.019-0.847c0.002-2.481,0.002-4.963,0.004-7.444c0-0.282,0.004-0.564,0.015-0.848
		c0.007-0.195,0.157-0.326,0.374-0.338c0.094-0.005,0.188-0.01,0.282-0.01c1.226,0,2.45-0.001,3.675,0.002
		c0.125,0.001,0.255,0.004,0.372,0.041c0.078,0.023,0.159,0.098,0.199,0.171c0.042,0.078,0.046,0.182,0.048,0.274
		c0.007,0.283,0.007,0.565,0.007,0.849C99.436,20.76,99.436,23.492,99.436,26.225z"/>
	<path fill-rule="evenodd" clip-rule="evenodd" fill="#9F9F9F" d="M103.376,26.149c0-1.476,0.001-2.952-0.001-4.427
		c0-0.251-0.014-0.501-0.028-0.752c-0.006-0.12-0.125-0.247-0.237-0.252c-0.375-0.015-0.751-0.029-1.128-0.031
		c-0.891-0.004-0.902,0.007-0.9-0.87c0.002-0.816-0.001-1.633,0.003-2.448c0-0.156,0.007-0.317,0.048-0.466
		c0.02-0.07,0.122-0.16,0.195-0.168c0.279-0.031,0.562-0.034,0.844-0.045c0.313-0.013,0.626-0.019,0.939-0.033
		c0.112-0.005,0.229-0.133,0.237-0.253c0.013-0.188,0.025-0.375,0.026-0.563c0.003-0.659,0.001-1.319,0.002-1.979
		c0-0.22,0.002-0.439,0.009-0.658c0.007-0.203,0.106-0.356,0.271-0.47c0.078-0.054,0.156-0.105,0.237-0.153
		c1.379-0.812,2.759-1.622,4.139-2.432c0.054-0.031,0.116-0.045,0.174-0.07c0.083-0.036,0.217,0.021,0.221,0.1
		c0.012,0.25,0.03,0.501,0.031,0.75c0.003,1.539,0,3.077,0.002,4.615c0,0.282,0.01,0.564,0.023,0.847
		c0.007,0.155,0.147,0.281,0.315,0.286c0.282,0.009,0.565,0.011,0.847,0.012c0.597,0.004,1.193,0.001,1.79,0.01
		c0.292,0.004,0.428,0.121,0.429,0.381c0.006,1.066,0.004,2.134,0.002,3.201c0,0.062-0.006,0.135-0.039,0.182
		c-0.05,0.07-0.118,0.158-0.194,0.177c-0.149,0.037-0.31,0.043-0.466,0.045c-0.627,0.004-1.255,0-1.883,0.003
		c-0.188,0.001-0.375,0.016-0.563,0.028c-0.11,0.008-0.229,0.134-0.235,0.253c-0.013,0.22-0.025,0.438-0.026,0.657
		c-0.002,1.068-0.002,2.136,0,3.203c0.001,1.727,0.003,3.453,0.008,5.18c0,0.252-0.005,0.505,0.026,0.753
		c0.042,0.35,0.178,0.662,0.451,0.906c0.219,0.196,0.463,0.317,0.762,0.32c0.377,0.003,0.75-0.002,1.115-0.13
		c0.265-0.092,0.545-0.142,0.819-0.208c0.104-0.026,0.254,0.075,0.287,0.188c0.018,0.061,0.049,0.118,0.055,0.18
		c0.088,0.936,0.175,1.872,0.256,2.809c0.013,0.154,0.01,0.315-0.016,0.468c-0.014,0.082-0.08,0.171-0.148,0.222
		c-0.099,0.074-0.217,0.131-0.335,0.169c-0.749,0.237-1.506,0.439-2.297,0.457c-0.627,0.015-1.257,0.033-1.883-0.001
		c-0.958-0.052-1.838-0.357-2.629-0.914c-0.343-0.241-0.605-0.54-0.801-0.908c-0.342-0.646-0.524-1.326-0.614-2.057
		c-0.155-1.252-0.132-2.505-0.137-3.759C103.374,27.719,103.376,26.935,103.376,26.149z"/>
	<path fill-rule="evenodd" clip-rule="evenodd" fill="#606060" d="M180.525,22.564c0,3.958,0,7.915,0,11.872
		c0,0.252,0.002,0.503-0.002,0.754c-0.009,0.544-0.044,0.583-0.593,0.585c-1.288,0.004-2.576,0.001-3.863,0
		c-0.094,0-0.188-0.011-0.282-0.017c-0.122-0.009-0.246-0.118-0.25-0.23c-0.011-0.345-0.026-0.689-0.026-1.034
		c-0.001-7.633-0.001-15.265-0.001-22.896c0-0.534-0.002-1.068,0.002-1.602c0.001-0.124,0.005-0.255,0.044-0.37
		c0.026-0.078,0.105-0.148,0.178-0.198c0.045-0.032,0.122-0.026,0.184-0.026c1.382-0.001,2.764-0.002,4.146-0.001
		c0.063,0,0.125,0.01,0.188,0.016c0.114,0.011,0.243,0.13,0.248,0.243c0.013,0.281,0.026,0.563,0.026,0.845
		C180.526,14.524,180.525,18.545,180.525,22.564z"/>
	<path fill-rule="evenodd" clip-rule="evenodd" fill="#9F9F9F" d="M118.596,30.447c0,1.476,0.001,2.951-0.001,4.428
		c0,0.218-0.01,0.439-0.044,0.654c-0.012,0.072-0.107,0.149-0.182,0.187c-0.08,0.04-0.182,0.048-0.275,0.048
		c-1.35,0.003-2.701,0.003-4.051,0.001c-0.093,0-0.195-0.003-0.277-0.039c-0.077-0.033-0.157-0.102-0.195-0.176
		c-0.04-0.079-0.042-0.182-0.044-0.275c-0.006-0.251-0.006-0.503-0.006-0.754c0-5.526,0-11.054,0.001-16.581
		c0-0.313,0.01-0.627,0.022-0.94c0.007-0.162,0.138-0.28,0.309-0.292c0.125-0.009,0.25-0.017,0.376-0.017
		c1.099-0.001,2.198-0.002,3.297,0.002c0.156,0,0.315,0.008,0.464,0.047c0.076,0.02,0.173,0.107,0.188,0.179
		c0.038,0.183,0.042,0.373,0.046,0.561c0.012,0.471,0.016,0.94,0.025,1.411c0,0.025,0.017,0.061,0.037,0.074
		c0.064,0.041,0.12,0.026,0.164-0.03c0.154-0.198,0.321-0.388,0.461-0.595c0.248-0.367,0.554-0.682,0.861-0.995
		c0.244-0.25,0.521-0.448,0.83-0.611c0.537-0.284,1.095-0.465,1.711-0.437c0.25,0.011,0.502,0.007,0.753,0.006
		c0.942-0.002,1.778,0.337,2.576,0.799c0.096,0.056,0.161,0.221,0.134,0.326c-0.016,0.062-0.029,0.122-0.05,0.182
		c-0.428,1.212-0.855,2.425-1.286,3.637c-0.021,0.058-0.055,0.115-0.099,0.156c-0.042,0.04-0.115,0.092-0.156,0.079
		c-0.118-0.038-0.229-0.101-0.337-0.162c-0.674-0.38-1.396-0.531-2.17-0.497c-1,0.043-1.739,0.494-2.199,1.372
		c-0.352,0.67-0.556,1.389-0.671,2.143c-0.19,1.247-0.193,2.501-0.203,3.756c-0.006,0.785-0.001,1.57-0.001,2.355
		C118.602,30.447,118.599,30.447,118.596,30.447z"/>
	<path fill-rule="evenodd" clip-rule="evenodd" fill="#9F9F9F" d="M127.501,26.221c0-2.792-0.001-5.584,0.001-8.376
		c0-0.282,0.01-0.564,0.021-0.846c0.006-0.156,0.145-0.282,0.308-0.294c0.062-0.006,0.125-0.012,0.188-0.012
		c1.349-0.001,2.698-0.001,4.047,0.002c0.093,0,0.195,0.005,0.275,0.043c0.076,0.037,0.149,0.11,0.185,0.187
		c0.038,0.081,0.037,0.184,0.039,0.276c0.005,0.251,0.004,0.502,0.004,0.753c0,5.521,0,11.044-0.001,16.565
		c0,0.313-0.009,0.627-0.021,0.94c-0.006,0.155-0.146,0.281-0.308,0.294c-0.063,0.005-0.125,0.012-0.188,0.012
		c-1.349,0-2.698,0-4.047-0.002c-0.092-0.001-0.195-0.005-0.275-0.044c-0.075-0.036-0.174-0.115-0.182-0.185
		c-0.032-0.278-0.043-0.562-0.043-0.843C127.5,31.868,127.501,29.045,127.501,26.221z"/>
	<path fill-rule="evenodd" clip-rule="evenodd" fill="#9F9F9F" d="M129.995,14.065c-0.72,0-1.439,0.002-2.159-0.002
		c-0.165-0.001-0.3-0.135-0.313-0.286c-0.008-0.094-0.02-0.188-0.02-0.28c-0.001-1.189-0.002-2.379,0.001-3.568
		c0-0.123,0.021-0.249,0.053-0.368c0.015-0.052,0.076-0.109,0.128-0.128c0.086-0.031,0.183-0.044,0.276-0.045
		c1.377-0.003,2.754-0.002,4.131-0.002c0.062,0,0.124,0.013,0.186,0.02c0.12,0.012,0.245,0.125,0.257,0.231
		c0.011,0.093,0.029,0.186,0.03,0.278c0.001,1.221,0.001,2.441-0.002,3.662c0,0.093-0.001,0.195-0.04,0.275
		c-0.036,0.074-0.114,0.159-0.188,0.179c-0.149,0.038-0.309,0.045-0.464,0.045c-0.626,0.005-1.252,0.003-1.878,0.003
		C129.995,14.074,129.995,14.069,129.995,14.065z"/>
	<path fill-rule="evenodd" clip-rule="evenodd" fill="#606060" d="M219.703,34.889c0.001-4.113,0-8.227,0-12.339
		c0-3.988,0-7.976-0.001-11.963c0-0.313-0.013-0.627-0.025-0.939c-0.004-0.115-0.128-0.224-0.251-0.233
		c-0.031-0.002-0.062-0.011-0.093-0.011c-1.413-0.002-2.826-0.003-4.238,0c-0.093,0-0.19,0.016-0.276,0.049
		c-0.052,0.02-0.119,0.08-0.125,0.13c-0.029,0.216-0.051,0.436-0.051,0.653c-0.003,2.48-0.001,4.961-0.003,7.442
		c0,0.281-0.015,0.563-0.025,0.844c-0.001,0.028-0.018,0.076-0.034,0.08c-0.056,0.012-0.137,0.031-0.169,0.004
		c-0.191-0.163-0.368-0.342-0.555-0.508c-0.932-0.829-1.992-1.416-3.216-1.688c-0.743-0.165-1.496-0.159-2.25-0.118
		c-1.351,0.073-2.579,0.511-3.686,1.281c-1.411,0.983-2.375,2.306-2.945,3.925c-0.453,1.286-0.635,2.62-0.697,3.972
		c-0.042,0.91,0.003,1.818,0.119,2.725c0.112,0.876,0.298,1.731,0.594,2.562c0.609,1.705,1.639,3.103,3.123,4.145
		c1.898,1.333,3.982,1.619,6.19,0.983c1.198-0.345,2.232-0.991,3.093-1.902c0.215-0.228,0.427-0.459,0.644-0.686
		c0.012-0.013,0.059-0.001,0.084,0.009c0.024,0.01,0.059,0.033,0.06,0.053c0.015,0.281,0.029,0.563,0.036,0.844
		c0.01,0.439,0.013,0.879,0.022,1.317c0.002,0.119,0.122,0.23,0.246,0.237c0.188,0.011,0.375,0.021,0.563,0.021
		c1.005,0.002,2.01,0.001,3.015,0C219.759,35.777,219.703,35.807,219.703,34.889z M214.599,27.642
		c-0.062,0.725-0.229,1.428-0.542,2.087c-0.147,0.31-0.314,0.618-0.52,0.892c-1.107,1.468-2.711,1.937-4.439,1.365
		c-0.741-0.245-1.302-0.743-1.768-1.356c-0.426-0.56-0.687-1.194-0.835-1.879c-0.119-0.554-0.213-1.11-0.222-1.679
		c-0.005-0.346-0.001-0.69-0.001-1.036c-0.031-0.881-0.01-1.759,0.229-2.618c0.24-0.864,0.647-1.622,1.299-2.255
		c1.57-1.525,4.428-1.455,5.854,0.63c0.215,0.313,0.386,0.648,0.513,1.004c0.212,0.594,0.359,1.205,0.417,1.833
		C214.674,25.632,214.685,26.637,214.599,27.642z"/>
	<path fill-rule="evenodd" clip-rule="evenodd" fill="#606060" d="M174.792,35.461c-0.054-0.147-0.11-0.294-0.172-0.438
		c-0.489-1.14-0.743-2.331-0.76-3.57c-0.02-1.445-0.026-2.891-0.038-4.336c0.013,0,0.026,0,0.039,0c0-0.974,0.002-1.948,0-2.922
		c-0.002-0.597,0.006-1.194-0.019-1.79c-0.036-0.849-0.127-1.691-0.345-2.516c-0.164-0.621-0.47-1.159-0.915-1.623
		c-0.714-0.744-1.584-1.232-2.559-1.532c-0.69-0.213-1.402-0.347-2.125-0.396c-1.192-0.081-2.386-0.093-3.58-0.024
		c-0.789,0.046-1.559,0.19-2.312,0.419c-2.355,0.713-3.683,2.39-4.355,4.675c-0.045,0.151,0.066,0.316,0.229,0.346
		c1.328,0.24,2.657,0.479,3.985,0.718c0.134,0.023,0.26-0.036,0.317-0.145c0.161-0.306,0.305-0.621,0.484-0.915
		c0.357-0.591,0.877-0.966,1.549-1.146c0.807-0.216,1.619-0.174,2.433-0.082c0.248,0.028,0.495,0.088,0.737,0.156
		c0.766,0.216,1.238,0.717,1.398,1.497c0.057,0.276,0.106,0.558,0.118,0.839c0.023,0.549,0.043,0.677-0.612,0.863
		c-0.211,0.061-0.42,0.129-0.631,0.19c-1.026,0.3-2.073,0.507-3.119,0.724c-0.86,0.179-1.721,0.358-2.574,0.57
		c-0.731,0.183-1.447,0.425-2.12,0.774c-1.323,0.688-2.187,1.751-2.61,3.185c-0.2,0.678-0.203,1.364-0.178,2.056
		c0.038,1.067,0.397,2.027,1.041,2.878c0.767,1.013,1.781,1.663,2.998,2.009c0.95,0.269,1.921,0.289,2.898,0.249
		c0.857-0.036,1.674-0.244,2.464-0.571c0.82-0.339,1.56-0.807,2.244-1.368c0.145-0.119,0.29-0.237,0.445-0.342
		c0.032-0.021,0.141,0.002,0.156,0.033c0.082,0.167,0.153,0.342,0.213,0.519c0.123,0.355,0.234,0.715,0.355,1.071
		c0.056,0.166,0.18,0.248,0.354,0.252c0.22,0.005,0.439,0.011,0.66,0.011c1.005,0.001,2.011,0.001,3.016,0
		c0.22,0,0.44-0.003,0.66-0.011C174.749,35.761,174.852,35.622,174.792,35.461z M168.793,29.567
		c-0.068,0.68-0.348,1.269-0.825,1.755c-0.83,0.848-1.851,1.293-3.027,1.325c-0.847,0.022-1.601-0.247-2.192-0.902
		c-0.42-0.465-0.646-1.005-0.661-1.619c-0.02-0.906,0.422-1.558,1.207-1.974c0.275-0.146,0.576-0.253,0.876-0.337
		c0.634-0.178,1.274-0.331,1.914-0.489c0.792-0.194,1.584-0.384,2.377-0.575c0.061-0.014,0.124-0.022,0.185-0.033
		c0.103-0.019,0.25,0.103,0.251,0.218c0.003,0.314,0.001,0.628,0.001,0.942c0.01,0,0.019,0.001,0.029,0.001
		C168.885,28.441,168.85,29.006,168.793,29.567z"/>
</g>
<g>
	<path fill="#EA184D" d="M52.087,25.975c0.082,11.4-7.461,21.804-18.818,25.1c-1.459,0.424-2.948,0.699-4.46,0.867
		c-1.485,0.164-2.972,0.192-4.453,0.094c-3.729-0.248-7.256-1.231-10.549-3.002c-4.452-2.393-7.933-5.794-10.436-10.181
		c-0.849-1.482-1.465-3.073-2.03-4.682c-0.555-1.583-0.948-3.208-1.141-4.874c-0.21-1.818-0.27-3.64-0.105-5.473
		c0.216-2.359,0.714-4.648,1.536-6.864c0.886-2.402,2.107-4.615,3.655-6.652C5.53,9.988,5.78,9.668,6.062,9.384
		C7.253,8.181,9.277,8.586,9.9,10.161c0.305,0.766,0.213,1.519-0.241,2.216c-0.119,0.181-0.264,0.345-0.397,0.515
		c-2.2,2.811-3.598,5.981-4.225,9.491c-0.259,1.439-0.319,2.894-0.284,4.351c0.239,9.365,6.822,17.643,16.057,19.971
		c1.69,0.426,3.408,0.652,5.148,0.652c3.926,0,7.612-0.948,10.974-2.992c5.333-3.239,8.677-7.936,10.005-14.032
		c0.478-2.19,0.56-4.413,0.304-6.653c-0.489-4.275-2.098-8.071-4.868-11.356c-3.143-3.724-7.109-6.105-11.878-7.144
		c-1.306-0.282-2.628-0.41-3.96-0.476c-0.249-0.014-0.497-0.011-0.741-0.037c-1.088-0.114-1.96-0.997-2.07-2.06
		c-0.131-1.278,0.673-2.242,1.723-2.533c0.234-0.066,0.49-0.068,0.735-0.072c0.958-0.009,1.916,0.042,2.873,0.156
		c1.542,0.182,3.055,0.492,4.539,0.938c8.766,2.63,15.541,9.804,17.724,18.579C51.839,21.76,52.102,23.872,52.087,25.975z"/>
	<path fill="#C0FF00" d="M46.307,25.879c0.058,6.352-2.857,12.225-7.628,16.012c-0.388,0.307-0.791,0.601-1.212,0.861
		c-1.239,0.755-2.687,0.178-3.277-0.914c-0.388-0.72-0.457-2.038,0.544-2.875c0.167-0.142,0.353-0.256,0.526-0.385
		c2.958-2.215,4.932-5.099,5.861-8.683c0.493-1.909,0.599-3.839,0.362-5.805c-0.718-5.977-5.055-11.255-11.13-12.993
		c-1.471-0.42-2.974-0.579-4.495-0.63c-3.888,0.152-7.332,1.426-10.233,4.056c-2.536,2.303-4.177,5.142-4.817,8.502
		c-1.666,8.785,4.013,16.295,11.521,18.11c3.295,0.794,6.517,0.563,9.657-0.716c0.227-0.093,0.461-0.174,0.695-0.248
		c0.036-0.013,0.131,0.044,0.137,0.078c0.023,0.182,0.03,0.364,0.037,0.549c0.037,1.283,0.624,2.24,1.712,2.904
		c0.156,0.098,0.324,0.18,0.477,0.282c0.029,0.02,0.037,0.139,0.012,0.159c-0.092,0.08-0.195,0.153-0.305,0.203
		c-1.517,0.728-3.102,1.254-4.75,1.573c-1.34,0.264-2.694,0.404-4.064,0.39c-4.516-0.057-8.596-1.414-12.177-4.165
		c-4.045-3.104-6.579-7.188-7.6-12.182c-0.384-1.89-0.465-3.802-0.301-5.734c0.613-7.241,5.25-13.814,12.125-16.794
		c1.774-0.769,3.619-1.266,5.537-1.512c1.361-0.175,2.722-0.211,4.082-0.103c4.057,0.327,7.72,1.72,10.926,4.241
		c3.761,2.965,6.187,6.795,7.288,11.455C46.171,23,46.331,24.507,46.307,25.879z"/>
	<path fill="#9A6200" d="M35.563,28.427c0.078,0,0.153-0.023,0.195,0.004c0.156,0.101,0.297,0.221,0.45,0.328
		c1.021,0.694,2.112,0.825,3.271,0.39c0.199-0.078,0.394-0.174,0.592-0.258c0.025-0.01,0.075-0.007,0.085,0.009
		c0.032,0.049,0.078,0.11,0.071,0.16c-0.149,0.857-0.42,1.68-0.749,2.482c-1.671,4.096-5.405,7.777-10.788,8.761
		c-7.778,1.421-14.835-3.526-16.661-10.615c-2.01-7.801,2.661-15.687,10.458-17.699c0.175-0.045,0.363-0.051,0.547-0.06
		c0.034-0.004,0.101,0.078,0.096,0.114c-0.011,0.089-0.044,0.178-0.085,0.262c-0.638,1.37-0.491,2.642,0.464,3.819
		c0.075,0.095,0.128,0.206,0.186,0.314c0.009,0.016-0.007,0.058-0.022,0.07c-0.052,0.035-0.106,0.066-0.164,0.088
		c-0.289,0.105-0.584,0.197-0.874,0.304c-3.195,1.181-5.563,4.049-6.169,7.352c-0.985,5.383,2.556,10.23,7.43,11.308
		c5.129,1.135,9.872-1.841,11.406-6.354C35.389,28.946,35.478,28.684,35.563,28.427z"/>
	<path fill="#FFA200" d="M40.538,25.457c0,0.172-0.002,0.417,0,0.667c0.012,1.1-1.022,2.105-2.132,2.188
		c-1.315,0.092-2.384-0.854-2.537-2.079c-0.033-0.273-0.033-0.556-0.055-0.833c-0.344-4.377-3.151-7.185-5.935-8.347
		c-0.924-0.382-1.872-0.644-2.87-0.72c-0.4-0.031-0.801-0.065-1.202-0.12c-0.985-0.136-1.659-0.692-1.95-1.628
		c-0.503-1.609,0.731-2.946,2.021-3.022c0.429-0.028,0.868-0.015,1.299,0.022c2.912,0.256,5.549,1.243,7.841,3.069
		c2.901,2.315,4.693,5.305,5.326,8.975c0.047,0.273,0.099,0.55,0.127,0.825C40.507,24.763,40.515,25.071,40.538,25.457z"/>
	<path fill="#990027" d="M23.498,4.827c-0.333,0.063-0.635,0.129-0.938,0.18c-3.979,0.657-7.473,2.332-10.521,4.96
		c-0.234,0.202-0.472,0.4-0.712,0.589c-0.03,0.022-0.142-0.003-0.153-0.03c-0.074-0.171-0.129-0.345-0.188-0.521
		c-0.401-1.219-1.244-1.961-2.463-2.3C8.403,7.673,8.275,7.665,8.153,7.64C8.068,7.62,7.983,7.595,7.896,7.57
		C7.905,7.5,7.891,7.426,7.919,7.384c0.091-0.121,0.197-0.237,0.308-0.341c3.548-3.305,7.681-5.484,12.429-6.488
		c0.516-0.109,1.03-0.208,1.55-0.292c0.271-0.042,0.553-0.043,0.83-0.059c0.084-0.007,0.17,0.119,0.138,0.191
		c-0.064,0.14-0.131,0.279-0.195,0.417c-0.556,1.193-0.471,2.341,0.24,3.443C23.318,4.41,23.474,4.53,23.498,4.827z"/>
</g>
</svg>
