<?xml version="1.0" encoding="utf-8"?>
<!-- Generator: Adobe Illustrator 16.0.0, SVG Export Plug-In . SVG Version: 6.00 Build 0)  -->
<!DOCTYPE svg PUBLIC "-//W3C//DTD SVG 1.1//EN" "http://www.w3.org/Graphics/SVG/1.1/DTD/svg11.dtd">
<svg version="1.1" id="Capa_1" xmlns="http://www.w3.org/2000/svg" xmlns:xlink="http://www.w3.org/1999/xlink" x="0px" y="0px"
	 width="22.532px" height="22.519px" viewBox="0 0 22.532 22.519" enable-background="new 0 0 22.532 22.519" xml:space="preserve">
<path fill-rule="evenodd" clip-rule="evenodd" fill="#FFA200" d="M11.302-0.001c6.221,0.019,11.262,5.077,11.238,11.277
	c-0.022,6.241-5.09,11.26-11.354,11.246C5.008,22.507-0.057,17.418-0.008,11.197C0.044,4.729,5.327-0.071,11.302-0.001z"/>
<path fill-rule="evenodd" clip-rule="evenodd" fill="#3FA8FF" d="M13.639,12.72c-1.455,0.824-2.967,1.521-4.561,2.03
	c-0.307,0.098-0.472,0.173-0.369,0.586c0.174,0.693-0.065,1.315-0.586,1.818c-0.24,0.232-0.462,0.484-0.711,0.706
	c-0.344,0.306-0.575,0.269-0.792-0.137c-0.256-0.478-0.34-0.988-0.194-1.523c-0.086-0.386,0.236-0.55,0.44-0.757
	c1.329-1.347,2.669-2.684,4.013-4.016c0.284-0.282,0.433-0.577,0.473-0.996c0.098-1.021,0.445-1.96,1.209-2.693
	c0.209-0.2,0.454-0.417,0.749-0.156c0.256,0.226,0.218,0.527,0.062,0.791c-0.342,0.575-0.695,1.142-0.952,1.762
	c0.027,0.237-0.217,0.364-0.248,0.633c0.869-0.065,1.611-0.381,2.267-0.92c0.11-0.091,0.253-0.217,0.17-0.356
	c-0.119-0.199-0.295-0.072-0.436,0.012c-0.521,0.313-0.973,0.796-1.669,0.681c-0.145-0.256,0.081-0.416,0.201-0.541
	C13.325,9,13.898,8.305,14.633,7.779c0.07-0.013,0.14-0.009,0.208,0.012c0.681,0.625,1.594,0.788,2.383,1.199
	c-0.283,0.728-0.741,1.335-1.301,1.87C15.43,11.81,14.603,12.349,13.639,12.72z"/>
<path fill-rule="evenodd" clip-rule="evenodd" fill="#00CBF2" d="M14.651,7.824c-0.459,0.63-1.078,1.108-1.602,1.677
	c-0.189,0.207-0.382,0.412-0.572,0.618c-0.04,0.056-0.084,0.06-0.133,0.012c0.121-0.568,0.353-1.085,0.703-1.551
	c0.1-0.133,0.203-0.271,0.264-0.423c0.075-0.186,0.062-0.385-0.12-0.517c-0.19-0.138-0.312,0.021-0.427,0.133
	c-0.824,0.802-1.268,1.776-1.203,2.93c0.018,0.312-0.152,0.433-0.31,0.59c-1.433,1.442-2.873,2.877-4.309,4.317
	c-0.185,0.185-0.4,0.345-0.518,0.59c-0.37-0.105-0.76,0.034-1.132-0.106c-0.224-0.084-0.457-0.14-0.646-0.292
	c-0.191-0.156-0.272-0.362-0.087-0.556c0.409-0.43,0.781-0.908,1.301-1.217c0.378-0.224,0.793-0.313,1.237-0.244
	c0.529,0.081,0.534,0.078,0.715-0.453c0.483-1.426,1.073-2.804,1.82-4.113c0.059-0.103,0.132-0.198,0.198-0.296
	c0.307-1,0.88-1.794,1.796-2.323c0.541-0.473,1.076-0.954,1.761-1.22c0.074-0.001,0.167,0.012,0.19,0.073
	C13.887,6.265,14.336,7.014,14.651,7.824z"/>
<path fill-rule="evenodd" clip-rule="evenodd" fill="#A6EAF9" d="M14.651,7.824c-0.526-0.603-0.909-1.276-1.063-2.073
	c-0.025-0.132-0.132-0.249-0.2-0.373c1.198-0.722,2.509-0.927,3.881-0.83c0.204,0.015,0.432,0.028,0.545,0.256
	c-0.293,0.583-0.782,0.978-1.29,1.356c-0.376-0.016-0.573,0.17-0.603,0.542C15.655,7.19,15.31,7.6,14.783,7.824l-0.066,0.003
	L14.651,7.824z"/>
<path fill-rule="evenodd" clip-rule="evenodd" fill="#00CBF2" d="M16.516,6.116c0.365-0.505,0.815-0.925,1.299-1.311
	c0.278,0.462,0.164,0.973,0.153,1.46c-0.022,0.964-0.246,1.885-0.744,2.725c-0.943-0.117-1.818-0.377-2.44-1.167
	c0.283-0.444,0.767-0.709,1.037-1.165C16.162,6.619,16.338,6.365,16.516,6.116z"/>
<path fill-rule="evenodd" clip-rule="evenodd" fill="#A6EAF8" d="M11.628,6.599c-0.696,0.7-1.288,1.48-1.797,2.324
	C9.445,8.644,8.978,8.511,8.605,8.199C7.981,7.677,7.969,7.483,8.577,6.984C9.515,6.215,10.523,6.034,11.628,6.599z"/>
<path fill-rule="evenodd" clip-rule="evenodd" fill="#00CBF1" d="M13.639,12.72c0.583-0.475,1.25-0.834,1.795-1.367
	c0.165-0.161,0.326-0.329,0.489-0.493c0.035,0.113,0.058,0.231,0.107,0.337c0.568,1.233-0.039,2.285-0.718,2.992
	c-0.302,0.314-0.453,0.295-0.777-0.022C14.118,13.759,13.892,13.231,13.639,12.72z"/>
<path fill-rule="evenodd" clip-rule="evenodd" fill="#5969E5" d="M12.345,10.131c0.045,0.001,0.089-0.003,0.133-0.011
	c0.591-0.065,1.071-0.368,1.53-0.716c0.076-0.057,0.136-0.14,0.217-0.186c0.232-0.131,0.468-0.144,0.634,0.095
	c0.163,0.233-0.004,0.404-0.162,0.555c-0.367,0.351-0.794,0.625-1.267,0.789c-0.505,0.174-1.015,0.41-1.611,0.298
	C11.813,10.542,12.242,10.438,12.345,10.131z"/>
<path fill-rule="evenodd" clip-rule="evenodd" fill="#003F86" d="M16.516,6.116c-0.013,0.67-0.1,0.739-0.695,0.543
	C15.794,5.998,15.879,5.932,16.516,6.116z"/>
</svg>
