<?xml version="1.0" encoding="utf-8"?>
<!-- Generator: Adobe Illustrator 16.0.0, SVG Export Plug-In . SVG Version: 6.00 Build 0)  -->
<!DOCTYPE svg PUBLIC "-//W3C//DTD SVG 1.1//EN" "http://www.w3.org/Graphics/SVG/1.1/DTD/svg11.dtd">
<svg version="1.1" id="Capa_1" xmlns="http://www.w3.org/2000/svg" xmlns:xlink="http://www.w3.org/1999/xlink" x="0px" y="0px"
	 width="22.532px" height="22.519px" viewBox="0 0 22.532 22.519" enable-background="new 0 0 22.532 22.519" xml:space="preserve">
<path fill-rule="evenodd" clip-rule="evenodd" fill="#FF114D" d="M11.281,22.523c-6.246,0.01-11.293-5.042-11.289-11.301
	c0.004-6.149,5.072-11.207,11.23-11.226c6.056-0.02,11.262,4.792,11.316,11.204C22.593,17.46,17.535,22.514,11.281,22.523z"/>
<path fill-rule="evenodd" clip-rule="evenodd" fill="#00CBF2" d="M11.615,6.63c0.571-0.505,1.143-1.011,1.872-1.287
	c0.272,0.14,0.291,0.42,0.361,0.668c0.093,0.323,0.202,0.638,0.372,0.93c0.347,0.592,0.458,0.61,0.947,0.15
	c0.19-0.179,0.355-0.39,0.595-0.513c0.377,0.004,0.591-0.159,0.571-0.56c0.413-0.49,0.763-1.051,1.412-1.281
	c0.139,0.076,0.194,0.203,0.207,0.351c0.11,1.345-0.002,2.649-0.692,3.85c-0.716,0.372-1.291-0.023-1.857-0.366
	c-0.754-0.458-0.744-0.473-1.368,0.144c-0.34,0.336-0.665,0.687-1.021,1.004c-0.138,0.123-0.303,0.309-0.494,0.189
	c-0.223-0.139-0.126-0.384-0.067-0.589c0.088-0.303,0.28-0.55,0.448-0.812c0.107-0.167,0.353-0.387,0.109-0.541
	c-0.209-0.132-0.363,0.152-0.487,0.316c-0.554,0.729-0.808,1.56-0.807,2.472c0.003,0.069-0.006,0.137-0.025,0.203
	c-1.209,1.411-2.594,2.65-3.895,3.972c-0.429,0.435-0.786,0.96-1.368,1.228c-0.496-0.031-1.002,0.061-1.479-0.173
	c-0.571-0.28-0.62-0.485-0.178-0.956c0.196-0.209,0.409-0.402,0.607-0.609c0.481-0.505,1.078-0.736,1.752-0.592
	c0.442,0.094,0.563-0.062,0.687-0.444c0.51-1.571,1.169-3.079,2.025-4.496C10.104,7.877,10.785,7.195,11.615,6.63z"/>
<path fill-rule="evenodd" clip-rule="evenodd" fill="#3FA8FF" d="M11.644,10.8c-0.111-0.071-0.166-0.177-0.146-0.305
	c0.135-0.883,0.38-1.725,0.948-2.44c0.045-0.056,0.096-0.108,0.146-0.159c0.192-0.196,0.434-0.404,0.673-0.166
	c0.203,0.202,0.124,0.488-0.074,0.712c-0.35,0.395-0.624,0.825-0.578,1.444c0.263-0.262,0.525-0.523,0.788-0.785
	c0.204-0.203,0.407-0.407,0.61-0.61c0.638-0.636,0.648-0.651,1.371-0.129c0.568,0.41,1.184,0.611,1.88,0.576
	c-0.188,0.601-0.589,1.071-0.958,1.561c-0.139,0.185-0.364,0.315-0.373,0.583c-0.585,0.751-1.385,1.237-2.16,1.754
	c-0.176-0.085-0.318-0.008-0.47,0.079c-1.334,0.767-2.745,1.364-4.203,1.847c-0.31,0.103-0.48,0.175-0.379,0.589
	c0.171,0.7-0.07,1.322-0.599,1.824c-0.226,0.215-0.432,0.452-0.664,0.658c-0.393,0.349-0.658,0.288-0.884-0.2
	c-0.218-0.472-0.269-0.965-0.144-1.474c0.069-0.097,0.125-0.206,0.208-0.288c1.588-1.593,3.178-3.183,4.771-4.771
	c0.066-0.066,0.156-0.107,0.234-0.161c0.247-0.193,0.543-0.155,0.827-0.183c0.963-0.095,1.8-0.608,2.154-1.32
	c-0.255-0.14-0.391,0.088-0.555,0.188C13.298,10.096,12.451,10.408,11.644,10.8z"/>
<path fill-rule="evenodd" clip-rule="evenodd" fill="#A6EAF9" d="M17.746,4.737c-0.419,0.475-0.859,0.928-1.344,1.336
	c-0.219,0.157-0.411,0.341-0.591,0.541c-0.202,0.394-0.578,0.632-0.86,0.954c-0.218,0.248-0.392,0.194-0.57-0.058
	c-0.335-0.473-0.596-0.978-0.732-1.544c-0.05-0.208-0.107-0.416-0.161-0.623c1.271-0.75,2.649-0.897,4.084-0.717
	C17.633,4.634,17.688,4.699,17.746,4.737z"/>
<path fill-rule="evenodd" clip-rule="evenodd" fill="#A6E9F8" d="M11.615,6.63c-0.631,0.722-1.287,1.423-1.773,2.257
	C9.385,8.679,8.925,8.48,8.537,8.148C7.999,7.688,7.998,7.483,8.558,7.02C9.494,6.246,10.504,6.035,11.615,6.63z"/>
<path fill-rule="evenodd" clip-rule="evenodd" fill="#00CAF1" d="M13.77,12.836c0.083-0.378,0.433-0.478,0.701-0.654
	c0.511-0.335,0.879-0.859,1.459-1.1c0.568,1.078,0.248,2.536-0.699,3.215c-0.238,0.17-0.445,0.143-0.633-0.065
	C14.228,13.823,13.876,13.402,13.77,12.836z"/>
<path fill-rule="evenodd" clip-rule="evenodd" fill="#586AE5" d="M11.644,10.8c0.45-0.437,0.964-0.741,1.583-0.899
	c0.39-0.099,0.709-0.376,1.016-0.64c0.177-0.152,0.355-0.27,0.561-0.074c0.235,0.225,0.106,0.423-0.074,0.611
	c-0.669,0.695-1.472,1.105-2.446,1.145c-0.213,0.009-0.428-0.001-0.642-0.003C11.637,10.893,11.638,10.846,11.644,10.8z"/>
<path fill-rule="evenodd" clip-rule="evenodd" fill="#002D79" d="M15.812,6.615c0.004-0.554,0.025-0.574,0.59-0.542
	c0.136,0.185,0.22,0.384,0.036,0.576C16.227,6.87,16.012,6.781,15.812,6.615z"/>
</svg>
