<?xml version="1.0" encoding="utf-8"?>
<!-- Generator: Adobe Illustrator 16.0.0, SVG Export Plug-In . SVG Version: 6.00 Build 0)  -->
<!DOCTYPE svg PUBLIC "-//W3C//DTD SVG 1.1//EN" "http://www.w3.org/Graphics/SVG/1.1/DTD/svg11.dtd">
<svg version="1.1" id="Capa_1" xmlns="http://www.w3.org/2000/svg" xmlns:xlink="http://www.w3.org/1999/xlink" x="0px" y="0px"
	 width="22.532px" height="22.519px" viewBox="0 0 22.532 22.519" enable-background="new 0 0 22.532 22.519" xml:space="preserve">
<path fill-rule="evenodd" clip-rule="evenodd" fill="#9FFF00" d="M11.281,0c5.927-0.055,11.231,4.746,11.255,11.25
	c0.022,6.247-5.065,11.279-11.321,11.268c-6.19-0.01-11.256-5.078-11.219-11.297C0.035,4.72,5.347-0.068,11.281,0z"/>
<path fill-rule="evenodd" clip-rule="evenodd" fill="#3FA8FF" d="M13.643,12.716c-1.468,0.818-2.982,1.53-4.589,2.032
	c-0.338,0.105-0.415,0.246-0.333,0.613c0.149,0.674-0.077,1.276-0.576,1.766c-0.223,0.219-0.434,0.448-0.662,0.661
	c-0.43,0.4-0.659,0.353-0.913-0.188c-0.21-0.448-0.272-0.916-0.141-1.4c-0.087-0.387,0.235-0.551,0.44-0.758
	c1.329-1.347,2.668-2.684,4.013-4.016c0.283-0.282,0.435-0.576,0.474-0.996c0.098-1.021,0.445-1.96,1.209-2.694
	c0.209-0.2,0.454-0.417,0.749-0.157c0.256,0.226,0.218,0.527,0.062,0.791c-0.341,0.575-0.695,1.142-0.952,1.762
	c0.027,0.237-0.217,0.364-0.248,0.633c0.869-0.065,1.611-0.381,2.267-0.92c0.11-0.09,0.254-0.217,0.17-0.356
	c-0.12-0.199-0.296-0.071-0.436,0.013c-0.521,0.313-0.973,0.796-1.67,0.68c-0.145-0.226,0.058-0.372,0.163-0.486
	c0.624-0.676,1.224-1.379,1.979-1.92c0.071-0.011,0.142-0.004,0.211,0.02c0.56,0.406,1.145,0.755,1.82,0.943
	c0.2,0.056,0.502,0.083,0.451,0.434c-0.269,0.656-0.7,1.196-1.201,1.686C15.43,11.799,14.61,12.349,13.643,12.716z"/>
<path fill-rule="evenodd" clip-rule="evenodd" fill="#00CBF2" d="M12.349,10.129c0.121-0.568,0.353-1.085,0.703-1.551
	c0.1-0.133,0.203-0.271,0.264-0.423c0.075-0.187,0.062-0.385-0.12-0.517c-0.19-0.138-0.312,0.021-0.427,0.134
	c-0.825,0.802-1.267,1.776-1.203,2.93c0.018,0.312-0.153,0.433-0.311,0.59c-1.433,1.442-2.873,2.877-4.309,4.317
	c-0.185,0.185-0.398,0.347-0.518,0.59c-0.368-0.114-0.759,0.029-1.131-0.114C5.076,16,4.842,15.943,4.652,15.792
	c-0.192-0.154-0.273-0.362-0.088-0.556c0.41-0.43,0.78-0.911,1.303-1.215c0.425-0.247,0.892-0.364,1.374-0.207
	c0.307,0.1,0.424-0.005,0.514-0.289c0.309-0.979,0.689-1.93,1.126-2.858c0.284-0.604,0.58-1.202,0.957-1.755
	c0.305-0.993,0.882-1.776,1.777-2.314c0.555-0.469,1.088-0.968,1.785-1.229c0.074,0.004,0.166,0.021,0.188,0.082
	c0.296,0.817,0.757,1.56,1.067,2.371c-0.459,0.63-1.078,1.108-1.602,1.677c-0.19,0.207-0.382,0.413-0.572,0.619
	C12.441,10.172,12.397,10.178,12.349,10.129z"/>
<path fill-rule="evenodd" clip-rule="evenodd" fill="#A6EAF9" d="M14.655,7.821c-0.527-0.603-0.909-1.277-1.063-2.073
	C13.567,5.615,13.466,5.496,13.4,5.37c1.192-0.714,2.495-0.921,3.859-0.828c0.208,0.015,0.436,0.03,0.559,0.253
	c-0.285,0.59-0.782,0.981-1.288,1.362c-0.376-0.014-0.575,0.168-0.604,0.542c-0.267,0.488-0.612,0.897-1.139,1.122l-0.066,0.003
	L14.655,7.821z"/>
<path fill-rule="evenodd" clip-rule="evenodd" fill="#00CBF2" d="M16.521,6.113c0.361-0.509,0.82-0.923,1.298-1.318
	c0.278,0.462,0.164,0.974,0.152,1.461c-0.025,1.038-0.285,2.022-0.84,2.914c-0.297-0.313-0.727-0.315-1.092-0.466
	c-0.487-0.201-0.946-0.43-1.252-0.884c0.283-0.444,0.768-0.709,1.037-1.165C16.167,6.617,16.342,6.362,16.521,6.113z"/>
<path fill-rule="evenodd" clip-rule="evenodd" fill="#A6EAF8" d="M11.615,6.599c-0.677,0.708-1.273,1.477-1.777,2.315
	C9.377,8.625,8.851,8.447,8.447,8.06c-0.416-0.4-0.425-0.598,0.021-0.983C9.415,6.259,10.448,5.975,11.615,6.599z"/>
<path fill-rule="evenodd" clip-rule="evenodd" fill="#00CBF1" d="M13.643,12.716c0.585-0.472,1.251-0.835,1.798-1.366
	c0.165-0.161,0.32-0.335,0.489-0.493c0.034,0.112,0.058,0.23,0.106,0.337c0.559,1.222-0.027,2.268-0.72,2.987
	c-0.302,0.314-0.455,0.295-0.776-0.021C14.125,13.751,13.894,13.227,13.643,12.716z"/>
<path fill-rule="evenodd" clip-rule="evenodd" fill="#5969E5" d="M12.349,10.129c0.045,0,0.089-0.003,0.133-0.012
	c0.591-0.066,1.072-0.368,1.53-0.716c0.076-0.058,0.136-0.14,0.218-0.186c0.231-0.131,0.467-0.144,0.633,0.095
	c0.163,0.233-0.004,0.404-0.162,0.556c-0.367,0.35-0.795,0.62-1.266,0.79c-0.505,0.183-1.021,0.379-1.612,0.319
	C11.816,10.54,12.246,10.435,12.349,10.129z"/>
<path fill-rule="evenodd" clip-rule="evenodd" fill="#003F86" d="M16.521,6.113c-0.014,0.671-0.102,0.739-0.696,0.543
	C15.798,5.996,15.884,5.929,16.521,6.113z"/>
</svg>
