<?xml version="1.0" encoding="utf-8"?>
<!-- Generator: Adobe Illustrator 16.0.0, SVG Export Plug-In . SVG Version: 6.00 Build 0)  -->
<!DOCTYPE svg PUBLIC "-//W3C//DTD SVG 1.1//EN" "http://www.w3.org/Graphics/SVG/1.1/DTD/svg11.dtd">
<svg version="1.1" id="Capa_1" xmlns="http://www.w3.org/2000/svg" xmlns:xlink="http://www.w3.org/1999/xlink" x="0px" y="0px"
	 width="22.532px" height="22.519px" viewBox="0 0 22.532 22.519" enable-background="new 0 0 22.532 22.519" xml:space="preserve">
<path fill-rule="evenodd" clip-rule="evenodd" fill="#FFA200" d="M11.282,22.521C5.03,22.534-0.049,17.489-0.009,11.232
	C0.032,4.813,5.227-0.008,11.277-0.002c6.193,0.006,11.262,5.067,11.263,11.266C22.542,17.475,17.507,22.509,11.282,22.521z"/>
<path fill-rule="evenodd" clip-rule="evenodd" fill="#D7EEFD" d="M18.115,14.963c0.383,0.009,0.768,0.004,1.148,0.032
	c0.406,0.03,0.584,0.224,0.583,0.581c-0.001,0.36-0.182,0.595-0.599,0.536c-0.939-0.131-1.574,0.229-2.093,0.986
	c-0.283,0.412-0.736,0.679-1.155,0.961c-0.711,0.479-1.457,0.746-2.35,0.716c-1.676-0.058-3.355-0.026-5.033-0.009
	c-0.472,0.005-0.89-0.104-1.303-0.323c-0.923-0.49-1.738-1.107-2.35-1.962c-0.189-0.266-0.399-0.378-0.72-0.353
	c-0.286,0.023-0.575,0.007-0.862,0.002c-0.337-0.006-0.542-0.16-0.563-0.514c-0.021-0.363,0.15-0.594,0.537-0.619
	c0.549-0.035,1.101-0.026,1.651-0.037c0.28-0.245,0.626-0.214,0.958-0.214c3.642-0.001,7.283-0.013,10.925,0.003
	C17.302,14.802,17.747,14.665,18.115,14.963z"/>
<path fill-rule="evenodd" clip-rule="evenodd" fill="#FC9652" d="M16.962,14.963c-2.696,0.008-5.394,0.019-8.09,0.021
	c-1.288,0.001-2.576-0.015-3.864-0.022c-0.005-0.116-0.013-0.232-0.013-0.35c-0.006-0.881,0.161-1.098,1.056-1.376
	c0.058-0.156,0.117-0.323,0.249-0.422c0.445-0.331,0.811-0.738,1.166-1.157c0.235-0.03,0.445-0.175,0.696-0.142
	c0.2,0.027,0.366-0.018,0.479-0.221c0.208-0.375,0.569-0.43,0.934-0.335c0.255,0.066,0.447,0.086,0.639-0.124
	c0.201-0.221,0.492-0.259,0.724-0.125c0.276,0.161,0.474,0.219,0.765,0.014c0.217-0.153,0.512-0.114,0.728,0.09
	c0.187,0.178,0.354,0.266,0.632,0.15c0.429-0.18,0.767,0.133,1.127,0.294c0.598,0.147,1.245,0.226,1.413,0.988
	c0.473,0.325,0.953,0.635,0.949,1.315c-0.002,0.202,0.255,0.27,0.358,0.423C17.117,14.294,17.41,14.613,16.962,14.963z"/>
<path fill-rule="evenodd" clip-rule="evenodd" fill="#FFF2DD" d="M13.197,4.604c0.268,0.339,0.598,0.593,1.014,0.725
	c0.601,0.051,1.221,0.246,1.742-0.25c0.427,0.15,0.72,0.465,0.962,0.825c0.487,0.722,0.229,1.376-0.625,1.557
	c-0.446,0.095-0.904,0.092-1.356,0.005c-0.967-0.288-1.888-0.652-2.537-1.485c-0.426-0.547-0.473-1.134-0.107-1.567
	c0.158-0.188,0.351-0.33,0.611-0.308C13.221,4.133,13.064,4.457,13.197,4.604z"/>
<path fill-rule="evenodd" clip-rule="evenodd" fill="#00CA33" d="M15.411,12.397c-0.189-0.776-0.271-0.828-1.11-0.808
	c-0.335,0.008-0.137-0.199-0.112-0.332c0.196-0.201-0.037-0.341-0.077-0.506c-0.117-0.476,0.036-0.74,0.534-0.777
	c0.203-0.016,0.306-0.031,0.333-0.244c0.015-0.116,0.06-0.231,0.106-0.342c0.17-0.397,0.463-0.613,0.807-0.601
	c0.389,0.015,0.592,0.273,0.749,0.583c0.042,0.085,0.067,0.181,0.085,0.273c0.044,0.235,0.121,0.336,0.417,0.337
	c0.413,0,0.654,0.327,0.479,0.676c-0.219,0.436-0.023,0.693,0.202,0.988c-0.018,0.097-0.082,0.163-0.138,0.238
	c-0.369,0.505-0.881-0.141-1.21,0.126C16.144,12.28,15.905,12.637,15.411,12.397z"/>
<path fill-rule="evenodd" clip-rule="evenodd" fill="#007A48" d="M15.411,12.397c0.35,0.03,0.612-0.007,0.771-0.423
	c0.142-0.369,0.504-0.459,0.75-0.198c0.263,0.279,0.426,0.172,0.646,0.016c0.077-0.055,0.164-0.098,0.246-0.146
	c0.096,0.003,0.192-0.001,0.287,0.01c0.619,0.074,0.886,0.469,0.69,1.054c-0.067,0.2-0.199,0.379-0.311,0.585
	c0.035,0.04,0.079,0.09,0.123,0.141c0.388,0.454,0.375,0.683-0.147,0.94c-0.284,0.141-0.425,0.275-0.351,0.588
	c-0.384,0.061-0.769,0.058-1.153,0c0.148-0.479,0.014-0.838-0.449-1.061c-0.128-0.062-0.194-0.12-0.187-0.314
	c0.026-0.688-0.06-0.783-0.715-1.027C15.521,12.526,15.43,12.512,15.411,12.397z"/>
<path fill-rule="evenodd" clip-rule="evenodd" fill="#FFEEA9" d="M13.197,4.604c-0.188-0.062-0.078-0.431-0.354-0.369
	c-0.208,0.046-0.387,0.167-0.504,0.372c-0.233,0.41-0.183,0.82,0.179,1.253c0.502,0.6,1.149,1,1.85,1.318
	c0.194,0.088,0.412,0.122,0.566,0.287c-1.198-0.109-2.238-0.599-3.166-1.342c-0.166-0.133-0.313-0.296-0.442-0.465
	c-0.587-0.765-0.374-1.414,0.545-1.676c0.136-0.039,0.277-0.075,0.418-0.081c0.308-0.012,0.615-0.004,0.974-0.004
	C13.237,4.162,13.217,4.383,13.197,4.604z"/>
<path fill-rule="evenodd" clip-rule="evenodd" fill="#FF3946" d="M7.466,11.656c-0.072,0.146-0.172,0.283-0.164,0.458
	c0.01,0.241-0.059,0.399-0.342,0.424c-0.281,0.024-0.442,0.251-0.597,0.457c-0.085,0.113-0.143,0.246-0.313,0.24
	c-0.731-0.338-0.82-0.869-0.243-1.453C6.292,11.29,6.778,11.253,7.466,11.656z"/>
<path fill-rule="evenodd" clip-rule="evenodd" fill="#FFB432" d="M15.953,5.079c0.063,0.41-0.239,0.483-0.523,0.521
	c-0.432,0.056-0.846-0.031-1.219-0.271c0.078-0.028,0.212-0.002,0.18-0.145c-0.015-0.062-0.087-0.111-0.133-0.165
	c-0.151-0.176-0.407-0.319-0.285-0.604c0.135-0.311,0.438-0.246,0.693-0.238C15.285,4.198,15.656,4.59,15.953,5.079z"/>
<path fill-rule="evenodd" clip-rule="evenodd" fill="#FF2B35" d="M8.79,5.908c0.38,0.024,0.876,0.498,0.929,0.879
	c0.028,0.207-0.086,0.325-0.252,0.374C9.149,7.253,8.824,7.32,8.501,7.391C8.23,7.449,8.146,7.292,8.195,7.066
	C8.267,6.744,8.372,6.43,8.462,6.11C8.509,5.941,8.635,5.901,8.79,5.908z"/>
<path fill-rule="evenodd" clip-rule="evenodd" fill="#00C92F" d="M5.983,5.898c-0.195-0.056-0.452-0.117-0.702-0.2
	C4.833,5.549,4.787,5.426,5.003,5.032c0.106-0.193,0.256-0.349,0.438-0.468c0.427-0.277,0.603-0.21,0.756,0.292
	c0.07,0.229,0.131,0.461,0.192,0.691C6.473,5.857,6.314,5.937,5.983,5.898z"/>
</svg>
