<?xml version="1.0" encoding="utf-8"?>
<!-- Generator: Adobe Illustrator 16.0.0, SVG Export Plug-In . SVG Version: 6.00 Build 0)  -->
<!DOCTYPE svg PUBLIC "-//W3C//DTD SVG 1.1//EN" "http://www.w3.org/Graphics/SVG/1.1/DTD/svg11.dtd">
<svg version="1.1" id="Capa_1" xmlns="http://www.w3.org/2000/svg" xmlns:xlink="http://www.w3.org/1999/xlink" x="0px" y="0px"
	 width="22.532px" height="22.519px" viewBox="0 0 22.532 22.519" enable-background="new 0 0 22.532 22.519" xml:space="preserve">
<path fill-rule="evenodd" clip-rule="evenodd" fill="#FF114D" d="M11.298,22.521C5.051,22.542-0.008,17.497-0.013,11.242
	C-0.017,5.088,5.036,0.02,11.197-0.003c6.251-0.022,11.339,5.022,11.347,11.252C22.552,17.459,17.521,22.501,11.298,22.521z"/>
<path fill-rule="evenodd" clip-rule="evenodd" fill="#D7EEFF" d="M18.122,14.959c0.383,0.01,0.767,0.004,1.147,0.032
	c0.405,0.03,0.584,0.226,0.583,0.582c-0.001,0.359-0.183,0.595-0.598,0.537c-0.937-0.129-1.575,0.223-2.095,0.981
	c-0.297,0.433-0.773,0.709-1.213,1.002c-0.694,0.464-1.427,0.704-2.29,0.677c-1.676-0.054-3.354-0.026-5.032-0.01
	c-0.472,0.004-0.891-0.104-1.303-0.322c-0.901-0.479-1.704-1.077-2.306-1.906c-0.223-0.308-0.462-0.444-0.838-0.407
	c-0.284,0.027-0.574,0.014-0.861-0.003c-0.308-0.018-0.475-0.193-0.494-0.506c-0.021-0.335,0.134-0.572,0.463-0.615
	c0.331-0.043,0.668-0.032,1.003-0.044c0.231-0.207,0.518-0.186,0.798-0.192c3.938-0.046,7.875-0.019,11.813-0.017
	C17.311,14.797,17.754,14.665,18.122,14.959z"/>
<path fill-rule="evenodd" clip-rule="evenodd" fill="#FD9752" d="M16.966,14.96c-2.696,0.008-5.394,0.019-8.09,0.021
	c-1.288,0.001-2.576-0.015-3.864-0.022c-0.412-0.882-0.183-1.397,0.829-1.871C6.49,12.746,7,12.243,7.453,11.677
	c0.21-0.032,0.39-0.193,0.614-0.159c0.289,0.044,0.513-0.027,0.641-0.312c0.019-0.041,0.063-0.07,0.096-0.104
	c0.104-0.109,0.267-0.222,0.375-0.159c0.682,0.392,1.24-0.635,1.909-0.153c0.188,0.135,0.335,0.135,0.506-0.009
	c0.181-0.151,0.468-0.21,0.6-0.089c0.404,0.368,0.854,0.262,1.308,0.241c0.287-0.014,0.424,0.303,0.697,0.322
	c0.589,0.159,1.239,0.231,1.407,0.988c0.474,0.325,0.953,0.635,0.949,1.315c-0.001,0.202,0.256,0.27,0.358,0.423
	C17.121,14.291,17.414,14.61,16.966,14.96z"/>
<path fill-rule="evenodd" clip-rule="evenodd" fill="#FFF2DD" d="M15.981,5.045c0.463,0.236,0.812,0.596,1.05,1.047
	c0.298,0.563,0.12,1.03-0.473,1.273c-0.525,0.217-1.075,0.181-1.623,0.098c-0.969-0.29-1.892-0.656-2.542-1.493
	c-0.354-0.454-0.492-0.931-0.173-1.453c0.313-0.513,0.686-0.519,1.106-0.038c0.407,0.552,1.011,0.745,1.635,0.915
	C15.391,5.51,15.683,5.278,15.981,5.045z"/>
<path fill-rule="evenodd" clip-rule="evenodd" fill="#00C933" d="M15.414,12.395c-0.189-0.776-0.27-0.825-1.112-0.808
	c-0.337,0.008-0.127-0.202-0.103-0.332c0.201-0.202-0.038-0.339-0.08-0.502c-0.123-0.484-0.003-0.722,0.507-0.794
	c0.235-0.034,0.344-0.103,0.379-0.322c0.012-0.07,0.036-0.139,0.063-0.205c0.186-0.455,0.465-0.679,0.834-0.657
	c0.417,0.024,0.653,0.294,0.76,0.654c0.095,0.32,0.175,0.538,0.592,0.547c0.324,0.007,0.449,0.293,0.396,0.639
	c-0.091,0.607-0.088,0.625,0.188,1.034c-0.022,0.095-0.09,0.159-0.146,0.234c-0.371,0.499-0.883-0.14-1.212,0.125
	C16.147,12.276,15.909,12.634,15.414,12.395z"/>
<path fill-rule="evenodd" clip-rule="evenodd" fill="#007A48" d="M15.414,12.395c0.353,0.032,0.618-0.007,0.772-0.424
	c0.127-0.344,0.508-0.464,0.695-0.24c0.333,0.399,0.559,0.132,0.829-0.016c0.042-0.023,0.085-0.044,0.127-0.066
	c0.992,0.035,1.285,0.534,0.811,1.385c-0.046,0.082-0.109,0.154-0.172,0.24c0.054,0.06,0.101,0.108,0.144,0.16
	c0.385,0.451,0.371,0.678-0.152,0.938c-0.284,0.141-0.422,0.277-0.346,0.588c-0.386,0.062-0.771,0.059-1.156,0.001
	c0.148-0.479,0.014-0.838-0.449-1.061c-0.129-0.062-0.193-0.121-0.187-0.314c0.026-0.688-0.061-0.785-0.715-1.028
	C15.525,12.523,15.434,12.509,15.414,12.395z"/>
<path fill-rule="evenodd" clip-rule="evenodd" fill="#FFEDAA" d="M13.188,4.61c-0.157-0.084-0.076-0.374-0.273-0.378
	c-0.216-0.005-0.401,0.124-0.534,0.312c-0.278,0.396-0.23,0.868,0.142,1.313c0.501,0.6,1.148,0.998,1.848,1.318
	c0.193,0.088,0.412,0.122,0.565,0.287c-1.302-0.133-2.428-0.658-3.378-1.55c-0.377-0.353-0.694-0.781-0.494-1.328
	c0.201-0.554,0.742-0.64,1.244-0.677c0.345-0.025,0.715-0.103,1.045,0.104C13.382,4.234,13.404,4.455,13.188,4.61z"/>
<path fill-rule="evenodd" clip-rule="evenodd" fill="#FFAE20" d="M13.188,4.61c-0.002-0.215-0.047-0.441,0.164-0.598
	c1.071-0.152,1.975,0.122,2.629,1.032c-0.158,0.479-0.253,0.581-0.74,0.553C14.431,5.55,13.715,5.266,13.188,4.61z"/>
<path fill-rule="evenodd" clip-rule="evenodd" fill="#FF404D" d="M7.453,11.677c-0.049,0.134-0.136,0.268-0.137,0.402
	c-0.003,0.283-0.088,0.437-0.398,0.47c-0.253,0.026-0.402,0.247-0.545,0.438c-0.087,0.115-0.143,0.253-0.317,0.25
	c-0.282-0.183-0.663,0.194-0.914-0.163c0.33-0.123,0.585-0.23,0.631-0.698c0.057-0.599,0.69-0.701,1.14-0.923
	C7.128,11.346,7.318,11.49,7.453,11.677z"/>
<path fill-rule="evenodd" clip-rule="evenodd" fill="#FF9500" d="M7.061,9.78C6.354,9.778,5.798,8.988,6.084,8.383
	C6.19,8.157,6.342,8.034,6.571,8.267c0.268,0.271,0.546,0.531,0.805,0.81C7.494,9.203,7.743,9.303,7.618,9.53
	C7.509,9.727,7.288,9.788,7.061,9.78z"/>
<path fill-rule="evenodd" clip-rule="evenodd" fill="#00C433" d="M6.414,5.623c0.025,0.254-0.118,0.313-0.308,0.275
	C5.85,5.848,5.597,5.779,5.346,5.705C4.819,5.549,4.755,5.354,5.08,4.899c0.082-0.114,0.187-0.219,0.299-0.304
	C5.853,4.234,6.044,4.301,6.215,4.88C6.288,5.131,6.351,5.386,6.414,5.623z"/>
<path fill-rule="evenodd" clip-rule="evenodd" fill="#FF9700" d="M5.142,13.073c0.304,0.06,0.643-0.083,0.914,0.163
	c-0.971,0.291-1.085,0.479-1.044,1.722c-0.241,0.037-0.481,0.039-0.723-0.001C4.009,13.984,4.22,13.518,5.142,13.073z"/>
</svg>
