<?xml version="1.0" encoding="utf-8"?>
<!-- Generator: Adobe Illustrator 16.0.0, SVG Export Plug-In . SVG Version: 6.00 Build 0)  -->
<!DOCTYPE svg PUBLIC "-//W3C//DTD SVG 1.1//EN" "http://www.w3.org/Graphics/SVG/1.1/DTD/svg11.dtd">
<svg version="1.1" id="Capa_1" xmlns="http://www.w3.org/2000/svg" xmlns:xlink="http://www.w3.org/1999/xlink" x="0px" y="0px"
	 width="22.532px" height="22.519px" viewBox="0 0 22.532 22.519" enable-background="new 0 0 22.532 22.519" xml:space="preserve">
<path fill-rule="evenodd" clip-rule="evenodd" fill="#9FFF00" d="M11.294,0.001c6.202-0.005,11.252,5.054,11.247,11.268
	c-0.006,6.195-5.069,11.248-11.276,11.25C5.028,22.522-0.057,17.453-0.009,11.204C0.042,4.674,5.392-0.084,11.294,0.001z"/>
<path fill-rule="evenodd" clip-rule="evenodd" fill="#D8EFFF" d="M18.121,14.97c0.383,0.01,0.766,0.02,1.148,0.031
	c0.328,0.009,0.554,0.137,0.576,0.5c0.022,0.36-0.144,0.549-0.548,0.619c-0.023,0.004-0.049,0.012-0.071,0.008
	c-0.983-0.214-1.577,0.314-2.151,1.023c-0.549,0.677-1.33,1.087-2.115,1.459c-0.268,0.127-0.545,0.157-0.838,0.156
	c-1.871-0.006-3.741-0.007-5.612,0.002c-0.32,0.002-0.613-0.062-0.9-0.198c-1.011-0.48-1.903-1.119-2.576-2.021
	c-0.226-0.302-0.458-0.456-0.837-0.417c-0.261,0.026-0.529,0.021-0.79-0.006c-0.425-0.044-0.586-0.219-0.586-0.581
	c0-0.365,0.158-0.518,0.599-0.547c0.286-0.02,0.574-0.017,0.862-0.024c0.3-0.201,0.65-0.162,0.977-0.163
	c3.877-0.011,7.753-0.037,11.629,0.007C17.302,14.834,17.731,14.739,18.121,14.97z"/>
<path fill-rule="evenodd" clip-rule="evenodd" fill="#FC9752" d="M16.954,14.973c-0.238,0.012-0.477,0.033-0.714,0.034
	c-3.821,0.007-7.643,0.012-11.464,0.014c-0.165,0-0.33-0.029-0.496-0.046c-0.008-0.035-0.004-0.07,0.01-0.104
	c0.277-0.18,0.514-0.352,0.573-0.744c0.087-0.57,0.523-0.875,1.052-1.046c0.561-0.442,1.211-0.793,1.524-1.489
	c0.305,0.013,0.582-0.237,0.906-0.082c0.142,0.067,0.213-0.042,0.251-0.168c0.045-0.145,0.142-0.251,0.268-0.324
	c0.102-0.06,0.255-0.171,0.316-0.137c0.63,0.348,1.13-0.412,1.734-0.187c0.045,0.017,0.1,0.019,0.136,0.045
	c0.394,0.294,0.704-0.187,1.08-0.112c0.346,0.068,0.557,0.51,1.035,0.27c0.35-0.176,0.682,0.084,0.914,0.39
	c0.701,0.034,1.356,0.138,1.512,0.998c0.484,0.302,0.985,0.578,0.963,1.28c-0.007,0.217,0.273,0.311,0.396,0.483
	C17.166,14.353,17.351,14.663,16.954,14.973z"/>
<path fill-rule="evenodd" clip-rule="evenodd" fill="#FFF2DC" d="M16.055,5.074c0.4,0.234,0.719,0.554,0.941,0.958
	c0.338,0.617,0.149,1.124-0.521,1.355c-0.552,0.191-1.119,0.227-1.684,0.023c-0.921-0.231-1.728-0.66-2.339-1.403
	c-0.229-0.278-0.407-0.593-0.406-0.974c0.002-0.369,0.188-0.636,0.491-0.821s0.545-0.062,0.754,0.177
	C14.216,5.405,14.869,5.567,16.055,5.074z"/>
<path fill-rule="evenodd" clip-rule="evenodd" fill="#00CB34" d="M15.406,12.437c-0.14-0.812-0.214-0.873-1.093-0.879
	c-0.191-0.001-0.233-0.115-0.233-0.272c0.214-0.076,0.196-0.191,0.122-0.388c-0.25-0.65-0.193-0.754,0.47-0.918
	c0.162-0.039,0.239-0.1,0.289-0.255c0.065-0.203,0.144-0.409,0.259-0.586c0.346-0.534,0.924-0.542,1.283-0.025
	c0.081,0.116,0.144,0.249,0.188,0.384c0.094,0.276,0.167,0.494,0.56,0.507c0.379,0.012,0.477,0.274,0.367,0.679
	c-0.174,0.641-0.097,0.759,0.597,0.883c0.122,0.021,0.231,0.048,0.307,0.153c-0.553,0.169-1.082,0.519-1.696,0.22
	c-0.208-0.102-0.401-0.059-0.479,0.154C16.163,12.598,15.794,12.528,15.406,12.437z"/>
<path fill-rule="evenodd" clip-rule="evenodd" fill="#007B49" d="M15.406,12.437c0.382-0.007,0.666-0.086,0.818-0.53
	c0.133-0.389,0.384-0.419,0.718-0.129c0.229,0.199,0.37,0.196,0.605,0.034c0.293-0.202,0.646-0.088,0.974-0.093
	c0.406,0.471,0.457,0.751,0.126,1.264c-0.143,0.222-0.152,0.309,0.034,0.513c0.314,0.345,0.255,0.626-0.195,0.837
	c-0.313,0.147-0.446,0.308-0.366,0.638c-0.388,0.063-0.777,0.058-1.166,0.003c0.172-0.506,0.021-0.875-0.47-1.093
	c-0.117-0.052-0.174-0.095-0.177-0.246c-0.017-0.866-0.026-0.868-0.823-1.096C15.451,12.53,15.433,12.472,15.406,12.437z"/>
<path fill-rule="evenodd" clip-rule="evenodd" fill="#FFEFAA" d="M13.165,4.527c-0.134-0.154-0.231-0.415-0.505-0.223
	c-0.28,0.198-0.533,0.434-0.455,0.826c0.093,0.463,0.375,0.811,0.718,1.12c0.555,0.498,1.223,0.811,1.868,1.16
	c-1.317-0.104-2.394-0.714-3.339-1.596c-0.086-0.08-0.15-0.185-0.215-0.283c-0.48-0.74-0.184-1.438,0.691-1.577
	c0.471-0.074,0.949-0.064,1.423,0.012C13.423,4.197,13.393,4.395,13.165,4.527z"/>
<path fill-rule="evenodd" clip-rule="evenodd" fill="#FFAE1A" d="M13.165,4.527c-0.009-0.211,0.05-0.399,0.187-0.562
	c1.094-0.099,2.022,0.202,2.704,1.108c-0.121,0.32-0.338,0.465-0.695,0.474C14.453,5.568,13.703,5.284,13.165,4.527z"/>
<path fill-rule="evenodd" clip-rule="evenodd" fill="#FF3C47" d="M7.439,11.591c-0.046,0.183-0.123,0.363-0.131,0.547
	c-0.012,0.279-0.083,0.458-0.404,0.444c-0.321-0.015-0.457,0.227-0.558,0.467c-0.081,0.192-0.194,0.163-0.335,0.114
	c-0.217,0.041-0.417,0.022-0.575-0.154c-0.002-0.236-0.033-0.474,0.04-0.706C5.736,11.474,6.503,11.196,7.439,11.591z"/>
<path fill-rule="evenodd" clip-rule="evenodd" fill="#00CC2E" d="M5.771,4.382C6.037,4.39,6.111,4.489,6.151,4.648
	c0.07,0.278,0.171,0.548,0.237,0.826c0.099,0.411-0.007,0.496-0.45,0.381C5.73,5.8,5.524,5.739,5.318,5.679
	c-0.47-0.137-0.522-0.266-0.303-0.713C5.19,4.612,5.501,4.46,5.771,4.382z"/>
<path fill-rule="evenodd" clip-rule="evenodd" fill="#FF9B00" d="M5.437,13.009c0.209-0.012,0.397,0.05,0.575,0.154
	c-0.21,0.19-0.513,0.227-0.706,0.462c-0.171,0.21-0.302,0.403-0.318,0.691c-0.031,0.555-0.05,0.554-0.697,0.554
	C3.941,13.912,4.365,13.223,5.437,13.009z"/>
<path fill-rule="evenodd" clip-rule="evenodd" fill="#FF2E35" d="M8.5,7.392C8.252,7.414,8.141,7.323,8.191,7.104
	c0.065-0.278,0.142-0.556,0.227-0.828c0.146-0.47,0.288-0.519,0.713-0.258c0.187,0.113,0.338,0.264,0.448,0.454
	C9.825,6.9,9.776,7.033,9.297,7.179C9.023,7.263,8.744,7.328,8.5,7.392z"/>
<path fill-rule="evenodd" clip-rule="evenodd" fill="#FF9B00" d="M6.011,8.659c0.027-0.188,0.062-0.395,0.25-0.478
	c0.192-0.085,0.294,0.11,0.407,0.22c0.292,0.28,0.574,0.571,0.859,0.858c0.144,0.145,0.185,0.319-0.033,0.393
	C7.123,9.776,6.741,9.777,6.402,9.533C6.107,9.32,5.996,9.018,6.011,8.659z"/>
</svg>
