<?xml version="1.0" encoding="utf-8"?>
<!-- Generator: Adobe Illustrator 16.0.0, SVG Export Plug-In . SVG Version: 6.00 Build 0)  -->
<!DOCTYPE svg PUBLIC "-//W3C//DTD SVG 1.1//EN" "http://www.w3.org/Graphics/SVG/1.1/DTD/svg11.dtd">
<svg version="1.1" id="Capa_1" xmlns="http://www.w3.org/2000/svg" xmlns:xlink="http://www.w3.org/1999/xlink" x="0px" y="0px"
	 width="12.778px" height="12.771px" viewBox="0 0 12.778 12.771" enable-background="new 0 0 12.778 12.771" xml:space="preserve">
<path fill-rule="evenodd" clip-rule="evenodd" fill="#4BFC00" d="M8.165,12.771c-1.223,0-2.417,0-3.63,0c0-4.259,0-8.5,0-12.771
	c1.198,0,2.402,0,3.63,0C8.165,4.244,8.165,8.494,8.165,12.771z"/>
<path fill-rule="evenodd" clip-rule="evenodd" fill="#FFA200" d="M9.15,3.661c1.221,0,2.416,0,3.628,0c0,3.034,0,6.052,0,9.099
	c-1.196,0-2.4,0-3.628,0C9.15,9.742,9.15,6.716,9.15,3.661z"/>
<path fill-rule="evenodd" clip-rule="evenodd" fill="#FF114D" d="M3.628,12.771c-1.22,0-2.415,0-3.628,0c0-2.578,0-5.14,0-7.73
	c1.197,0,2.4,0,3.628,0C3.628,7.603,3.628,10.173,3.628,12.771z"/>
</svg>
