<?xml version="1.0" encoding="utf-8"?>
<!-- Generator: Adobe Illustrator 16.0.0, SVG Export Plug-In . SVG Version: 6.00 Build 0)  -->
<!DOCTYPE svg PUBLIC "-//W3C//DTD SVG 1.1//EN" "http://www.w3.org/Graphics/SVG/1.1/DTD/svg11.dtd">
<svg version="1.1" id="Capa_1" xmlns="http://www.w3.org/2000/svg" xmlns:xlink="http://www.w3.org/1999/xlink" x="0px" y="0px"
	 width="2.729px" height="9.426px" viewBox="0 0 2.729 9.426" enable-background="new 0 0 2.729 9.426" xml:space="preserve">
<path fill-rule="evenodd" clip-rule="evenodd" fill="#FFFFFF" d="M1.365,6.054c-0.757,0-1.36-0.589-1.364-1.332
	c-0.005-0.745,0.593-1.344,1.346-1.35c0.776-0.006,1.388,0.59,1.383,1.35C2.726,5.465,2.123,6.054,1.365,6.054z"/>
<path fill-rule="evenodd" clip-rule="evenodd" fill="#FFFFFF" d="M1.358,2.686C0.604,2.683,0.001,2.089,0,1.347
	C0,0.59,0.619-0.01,1.39,0c0.75,0.011,1.346,0.615,1.34,1.359C2.724,2.1,2.116,2.688,1.358,2.686z"/>
<path fill-rule="evenodd" clip-rule="evenodd" fill="#FFFFFF" d="M1.366,6.741c0.756,0,1.36,0.591,1.363,1.332
	c0.003,0.758-0.613,1.36-1.383,1.353c-0.751-0.008-1.35-0.61-1.346-1.354C0.004,7.33,0.608,6.74,1.366,6.741z"/>
</svg>
