<?xml version="1.0" encoding="utf-8"?>
<!-- Generator: Adobe Illustrator 16.0.0, SVG Export Plug-In . SVG Version: 6.00 Build 0)  -->
<!DOCTYPE svg PUBLIC "-//W3C//DTD SVG 1.1//EN" "http://www.w3.org/Graphics/SVG/1.1/DTD/svg11.dtd">
<svg version="1.1" id="Capa_1" xmlns="http://www.w3.org/2000/svg" xmlns:xlink="http://www.w3.org/1999/xlink" x="0px" y="0px"
	 width="13.073px" height="13.081px" viewBox="0 0 13.073 13.081" enable-background="new 0 0 13.073 13.081" xml:space="preserve">
<path fill-rule="evenodd" clip-rule="evenodd" fill="#FFFFFF" d="M6.513,13.081C2.908,13.069-0.015,10.112,0,6.495
	C0.014,2.913,2.972-0.011,6.568,0c3.602,0.01,6.53,2.972,6.513,6.586C13.064,10.169,10.106,13.094,6.513,13.081z M3.595,4.532
	C3.452,4.628,3.339,4.675,3.268,4.758C2.734,5.37,2.199,5.981,1.693,6.615C1.593,6.741,1.545,6.988,1.593,7.142
	C1.825,7.879,2.088,8.608,2.367,9.33C2.42,9.468,2.571,9.617,2.71,9.663c0.735,0.241,1.479,0.459,2.227,0.662
	c0.111,0.03,0.295-0.027,0.382-0.111c0.55-0.53,1.091-1.072,1.612-1.631c0.091-0.098,0.133-0.306,0.101-0.439
	C6.829,7.294,6.603,6.45,6.373,5.607C6.346,5.504,6.275,5.357,6.192,5.33C5.328,5.052,4.458,4.795,3.595,4.532z M9.991,8.828
	c0.149-0.078,0.311-0.116,0.399-0.218c0.45-0.512,0.888-1.036,1.313-1.569c0.07-0.088,0.099-0.251,0.074-0.364
	c-0.165-0.772-0.333-1.546-0.541-2.308c-0.048-0.177-0.226-0.384-0.395-0.452c-0.652-0.266-1.321-0.492-1.994-0.703
	C8.723,3.175,8.503,3.229,8.413,3.323C7.841,3.92,7.287,4.535,6.743,5.157C6.677,5.234,6.665,5.402,6.692,5.512
	c0.21,0.85,0.428,1.697,0.666,2.538c0.034,0.119,0.178,0.264,0.295,0.291C8.423,8.519,9.198,8.666,9.991,8.828z M0.34,6.046
	C0.251,6.258,0.403,6.378,0.643,6.448C0.746,6.479,0.85,6.51,0.948,6.553C1.167,6.647,1.289,6.589,1.447,6.39
	c0.512-0.646,1.07-1.252,1.597-1.886c0.102-0.123,0.179-0.299,0.194-0.457c0.057-0.57,0.092-1.145,0.113-1.718
	C3.356,2.204,3.3,1.994,3.22,1.965C2.981,1.878,2.776,1.566,2.455,1.857C1.232,2.969,0.527,4.337,0.34,6.046z M6.935,0.906
	C7.476,1.511,8.002,2.1,8.53,2.686C8.585,2.746,8.648,2.816,8.722,2.84c0.849,0.272,1.701,0.538,2.579,0.813
	c0.438-0.515,0.441-0.589-0.036-1.141c-0.865-0.999-1.941-1.65-3.215-2.009C7.532,0.357,7.165,0.442,6.935,0.906z M6.535,12.217
	c-0.451-0.484-0.885-0.957-1.33-1.419c-0.074-0.076-0.198-0.116-0.307-0.146c-0.623-0.165-1.26-0.288-1.869-0.492
	c-0.712-0.238-0.702-0.269-1.128,0.369c-0.018,0.027-0.021,0.063-0.032,0.1c0.902,1.008,2.005,1.647,3.311,1.983
	C5.764,12.763,6.21,12.685,6.535,12.217z M10.172,11.578c1.388-1.04,2.234-2.403,2.514-4.131c-0.236-0.099-0.441-0.184-0.595-0.247
	c-0.543,0.603-1.063,1.176-1.575,1.757c-0.064,0.072-0.088,0.188-0.112,0.286c-0.13,0.509-0.218,1.031-0.392,1.523
	C9.899,11.088,9.899,11.33,10.172,11.578z M6.931,0.35C5.467,0.257,4.184,0.64,2.999,1.441C3.521,1.792,3.53,1.776,4.06,1.592
	c0.664-0.233,1.332-0.47,2.015-0.637C6.44,0.866,6.704,0.708,6.931,0.35z M9.711,11.509c-0.838,0.251-1.604,0.52-2.392,0.699
	c-0.348,0.079-0.56,0.247-0.807,0.535c1.254,0.01,2.337-0.327,3.354-0.963C9.79,11.646,9.731,11.544,9.711,11.509z"/>
</svg>
