<?xml version="1.0" encoding="utf-8"?>
<!-- Generator: Adobe Illustrator 16.0.0, SVG Export Plug-In . SVG Version: 6.00 Build 0)  -->
<!DOCTYPE svg PUBLIC "-//W3C//DTD SVG 1.1//EN" "http://www.w3.org/Graphics/SVG/1.1/DTD/svg11.dtd">
<svg version="1.1" id="Capa_1" xmlns="http://www.w3.org/2000/svg" xmlns:xlink="http://www.w3.org/1999/xlink" x="0px" y="0px"
	 width="118.75px" height="30.625px" viewBox="0 0 118.75 30.625" enable-background="new 0 0 118.75 30.625" xml:space="preserve">
<g>
	<path fill-rule="evenodd" clip-rule="evenodd" fill="#FFFFFF" d="M29.687,15.414c0.045,6.282-4.112,12.014-10.37,13.831
		c-0.804,0.233-1.625,0.384-2.458,0.477c-0.818,0.091-1.637,0.106-2.454,0.052c-2.054-0.137-3.998-0.679-5.813-1.655
		c-2.453-1.318-4.37-3.192-5.75-5.609c-0.467-0.817-0.807-1.693-1.118-2.58c-0.306-0.872-0.523-1.768-0.629-2.686
		c-0.115-1.002-0.149-2.005-0.058-3.015c0.119-1.3,0.393-2.561,0.846-3.783C2.371,9.123,3.044,7.902,3.897,6.78
		c0.134-0.176,0.271-0.353,0.427-0.509c0.657-0.663,1.771-0.439,2.115,0.428C6.607,7.122,6.558,7.537,6.307,7.92
		C6.241,8.02,6.162,8.11,6.088,8.205c-1.212,1.549-1.982,3.296-2.329,5.23c-0.142,0.793-0.175,1.594-0.156,2.397
		c0.132,5.161,3.759,9.721,8.848,11.004c0.932,0.235,1.878,0.36,2.837,0.36c2.163,0,4.194-0.523,6.047-1.649
		c2.939-1.785,4.781-4.373,5.513-7.732c0.263-1.207,0.308-2.432,0.167-3.666c-0.269-2.356-1.156-4.448-2.682-6.258
		c-1.731-2.052-3.917-3.364-6.545-3.936c-0.72-0.156-1.449-0.226-2.182-0.262c-0.137-0.008-0.274-0.006-0.409-0.021
		c-0.6-0.063-1.08-0.549-1.14-1.135c-0.072-0.706,0.371-1.237,0.948-1.398c0.129-0.036,0.271-0.037,0.406-0.039
		c0.529-0.005,1.056,0.023,1.583,0.086c0.85,0.1,1.683,0.271,2.501,0.517c4.83,1.449,8.564,5.402,9.767,10.238
		C29.548,13.09,29.693,14.254,29.687,15.414z"/>
	<path fill-rule="evenodd" clip-rule="evenodd" fill="#FFFFFF" d="M26.5,15.36c0.032,3.5-1.575,6.736-4.203,8.823
		c-0.214,0.169-0.436,0.331-0.668,0.474c-0.683,0.416-1.481,0.098-1.806-0.504c-0.214-0.396-0.252-1.122,0.3-1.584
		c0.092-0.077,0.194-0.14,0.29-0.211c1.63-1.221,2.717-2.81,3.229-4.784c0.272-1.053,0.331-2.116,0.2-3.199
		c-0.396-3.293-2.786-6.202-6.133-7.16c-0.811-0.231-1.639-0.319-2.477-0.347c-2.142,0.084-4.04,0.786-5.638,2.235
		c-1.398,1.269-2.302,2.833-2.654,4.685c-0.919,4.84,2.21,8.979,6.348,9.979c1.816,0.438,3.59,0.31,5.321-0.394
		c0.125-0.051,0.254-0.096,0.383-0.137c0.02-0.007,0.073,0.024,0.075,0.042c0.013,0.101,0.017,0.202,0.02,0.304
		c0.021,0.706,0.345,1.234,0.944,1.6c0.086,0.053,0.179,0.099,0.263,0.155c0.016,0.011,0.021,0.076,0.006,0.088
		c-0.05,0.044-0.107,0.084-0.168,0.112c-0.835,0.401-1.708,0.691-2.617,0.867c-0.738,0.145-1.484,0.223-2.239,0.214
		c-2.488-0.031-4.736-0.779-6.71-2.294c-2.229-1.711-3.625-3.961-4.187-6.714c-0.212-1.04-0.256-2.094-0.166-3.159
		c0.338-3.99,2.892-7.612,6.682-9.254c0.977-0.423,1.993-0.697,3.05-0.833c0.75-0.096,1.5-0.116,2.249-0.056
		c2.236,0.18,4.254,0.947,6.02,2.337c2.073,1.633,3.41,3.744,4.017,6.312C26.425,13.774,26.515,14.604,26.5,15.36z"/>
	<path fill-rule="evenodd" clip-rule="evenodd" fill="#FFFFFF" d="M117.669,13.671c0,2.184,0,4.368,0,6.551
		c0,0.171-0.007,0.341-0.013,0.512c-0.002,0.066-0.065,0.133-0.125,0.138c-0.067,0.006-0.136,0.014-0.203,0.014
		c-0.632,0.001-1.263,0.001-1.894,0c-0.068,0-0.139-0.001-0.202-0.02c-0.042-0.014-0.098-0.056-0.105-0.093
		c-0.021-0.099-0.022-0.203-0.024-0.305c-0.007-0.289-0.009-0.579-0.018-0.868c-0.001-0.021-0.041-0.045-0.067-0.061
		c-0.009-0.006-0.035,0.004-0.044,0.014c-0.105,0.11-0.209,0.223-0.315,0.333c-0.533,0.557-1.173,0.934-1.922,1.111
		c-1.081,0.257-2.103,0.104-3.04-0.503c-0.811-0.526-1.394-1.246-1.762-2.14c-0.229-0.555-0.358-1.136-0.424-1.732
		c-0.08-0.716-0.072-1.431,0.01-2.145c0.074-0.647,0.222-1.277,0.505-1.868c0.519-1.084,1.333-1.847,2.482-2.219
		c0.779-0.253,1.575-0.274,2.372-0.071c0.573,0.146,1.07,0.437,1.517,0.818c0.117,0.1,0.225,0.209,0.341,0.311
		c0.021,0.019,0.06,0.021,0.09,0.027c0.036,0.009,0.069-0.045,0.07-0.117c0.002-0.153,0.004-0.308,0.004-0.461
		c0-1.279,0-2.559,0-3.839c0-0.136,0.001-0.272,0.005-0.409c0.004-0.122,0.072-0.195,0.182-0.202
		c0.051-0.003,0.103-0.005,0.153-0.005c0.7,0,1.399-0.001,2.099,0.001c0.068,0,0.139-0.001,0.202,0.02
		c0.041,0.013,0.082,0.057,0.102,0.098c0.021,0.044,0.021,0.099,0.022,0.149c0.003,0.154,0.003,0.308,0.003,0.461
		C117.669,9.337,117.669,11.504,117.669,13.671z M114.907,15.726c-0.001-0.708-0.018-0.903-0.114-1.4
		c-0.063-0.32-0.154-0.632-0.318-0.915c-0.44-0.764-1.106-1.15-1.987-1.112c-0.754,0.032-1.321,0.414-1.727,1.042
		c-0.187,0.29-0.302,0.612-0.37,0.949c-0.18,0.899-0.14,1.801,0.031,2.696c0.091,0.479,0.3,0.902,0.629,1.269
		c0.735,0.82,2.111,0.947,2.98,0.092c0.404-0.398,0.635-0.881,0.76-1.425C114.888,16.501,114.912,16.078,114.907,15.726z"/>
	<path fill-rule="evenodd" clip-rule="evenodd" fill="#FFFFFF" d="M20.581,16.764c0.043,0,0.084-0.013,0.108,0.002
		c0.085,0.056,0.163,0.122,0.247,0.181c0.563,0.382,1.165,0.455,1.803,0.214c0.11-0.042,0.217-0.095,0.326-0.141
		c0.014-0.006,0.042-0.004,0.047,0.005c0.018,0.026,0.043,0.061,0.039,0.088c-0.082,0.473-0.231,0.926-0.412,1.368
		c-0.921,2.257-2.979,4.285-5.944,4.827c-4.286,0.783-8.175-1.944-9.181-5.849c-1.108-4.299,1.466-8.644,5.763-9.753
		c0.097-0.025,0.2-0.028,0.301-0.033c0.019-0.002,0.056,0.043,0.054,0.063c-0.006,0.049-0.025,0.098-0.047,0.144
		c-0.352,0.755-0.271,1.456,0.256,2.105c0.041,0.052,0.07,0.113,0.102,0.173c0.005,0.009-0.004,0.032-0.013,0.039
		c-0.028,0.019-0.058,0.037-0.089,0.048c-0.16,0.058-0.323,0.109-0.482,0.168c-1.761,0.65-3.066,2.231-3.399,4.05
		c-0.543,2.967,1.407,5.638,4.093,6.232c2.827,0.625,5.439-1.015,6.286-3.502C20.484,17.05,20.533,16.905,20.581,16.764z"/>
	<path fill-rule="evenodd" clip-rule="evenodd" fill="#FFFFFF" d="M92.521,16.134c0.007,0.769,0.015,1.537,0.021,2.305
		c0.007,0.727,0.151,1.424,0.438,2.091c0.027,0.063,0.051,0.127,0.073,0.19c0.025,0.07-0.018,0.147-0.083,0.152
		c-0.068,0.005-0.136,0.013-0.204,0.013c-0.683,0.001-1.366,0.001-2.049,0.001c-0.034,0-0.068,0-0.103-0.001
		c-0.173-0.007-0.23-0.048-0.291-0.229c-0.054-0.162-0.1-0.326-0.15-0.489c-0.021-0.065-0.043-0.13-0.064-0.194
		c-0.053-0.16-0.106-0.171-0.255-0.051c-0.121,0.096-0.237,0.195-0.36,0.288c-0.554,0.418-1.167,0.713-1.853,0.828
		c-0.784,0.133-1.566,0.117-2.324-0.156c-0.83-0.299-1.438-0.848-1.771-1.669c-0.3-0.74-0.305-1.501-0.043-2.254
		c0.247-0.711,0.724-1.229,1.395-1.564c0.306-0.153,0.629-0.263,0.957-0.36c0.573-0.171,1.161-0.279,1.746-0.396
		c0.637-0.127,1.271-0.262,1.887-0.466c0.308-0.103,0.337-0.102,0.327-0.478c-0.005-0.188-0.016-0.375-0.074-0.557
		c-0.112-0.349-0.331-0.595-0.688-0.699c-0.179-0.052-0.364-0.09-0.55-0.116c-0.408-0.057-0.816-0.052-1.221,0.048
		c-0.366,0.09-0.656,0.286-0.856,0.603c-0.1,0.158-0.176,0.331-0.264,0.496c-0.043,0.083-0.116,0.118-0.213,0.101
		c-0.722-0.129-1.444-0.259-2.166-0.39c-0.094-0.018-0.148-0.101-0.123-0.188c0.176-0.597,0.45-1.141,0.87-1.606
		c0.349-0.388,0.771-0.671,1.261-0.852c0.451-0.165,0.917-0.265,1.396-0.306c0.717-0.062,1.434-0.05,2.149,0.009
		c0.357,0.029,0.709,0.097,1.056,0.194c0.433,0.123,0.824,0.327,1.177,0.604c0.416,0.328,0.696,0.741,0.807,1.268
		c0.106,0.504,0.163,1.012,0.167,1.524c0.007,0.769,0.002,1.536,0.002,2.305C92.537,16.134,92.529,16.134,92.521,16.134z
		 M89.819,16.694c-0.004,0-0.009,0-0.013,0c0-0.223,0.001-0.443-0.001-0.665c-0.001-0.073-0.069-0.13-0.131-0.116
		c-0.034,0.007-0.066,0.017-0.099,0.024c-0.53,0.125-1.062,0.246-1.591,0.377c-0.298,0.073-0.593,0.155-0.886,0.247
		c-0.145,0.045-0.29,0.104-0.42,0.183c-0.513,0.311-0.725,0.868-0.501,1.462c0.21,0.559,0.628,0.879,1.225,0.946
		c0.604,0.068,1.146-0.106,1.634-0.46c0.455-0.329,0.709-0.773,0.751-1.335C89.803,17.136,89.809,16.915,89.819,16.694z"/>
	<path fill-rule="evenodd" clip-rule="evenodd" fill="#FFFFFF" d="M53.686,15.67c0,1.52,0,3.038-0.001,4.558
		c0,0.171-0.009,0.341-0.017,0.511c-0.003,0.064-0.071,0.129-0.132,0.136c-0.017,0.001-0.034,0.006-0.051,0.006
		c-0.734,0-1.468,0-2.202-0.002c-0.087,0-0.162-0.073-0.165-0.161c-0.007-0.238-0.009-0.477-0.015-0.716
		c-0.003-0.136-0.012-0.271-0.02-0.407c-0.002-0.041-0.027-0.063-0.067-0.063c-0.016,0-0.036-0.001-0.045,0.009
		c-0.072,0.072-0.142,0.146-0.211,0.221c-0.65,0.701-1.454,1.132-2.388,1.292c-0.732,0.125-1.465,0.084-2.169-0.187
		c-1.02-0.39-1.655-1.115-1.886-2.185c-0.068-0.316-0.124-0.637-0.13-0.962c-0.004-0.257-0.018-0.513-0.018-0.769
		c-0.001-1.98-0.002-3.961,0-5.94c0-0.628-0.045-0.581,0.58-0.582c0.58-0.001,1.161-0.001,1.741,0.001
		c0.102,0,0.204,0.009,0.305,0.016c0.06,0.005,0.122,0.073,0.126,0.14c0.006,0.067,0.013,0.136,0.013,0.204
		c0.001,0.222,0.001,0.444,0.001,0.666c0,1.297-0.003,2.594,0.001,3.893c0.002,0.563,0.013,1.126,0.034,1.688
		c0.01,0.255,0.036,0.513,0.089,0.762c0.135,0.628,0.521,1.024,1.154,1.156c0.819,0.169,1.519-0.069,2.097-0.663
		c0.243-0.25,0.404-0.551,0.456-0.899c0.038-0.253,0.081-0.507,0.091-0.762c0.027-0.665,0.049-1.331,0.054-1.996
		c0.009-1.195,0.002-2.391,0.003-3.585c0-0.153,0.006-0.307,0.015-0.46c0.004-0.086,0.077-0.147,0.173-0.152
		c0.085-0.004,0.171-0.008,0.256-0.008c0.632,0,1.264-0.001,1.895,0.001c0.102,0,0.204,0.012,0.305,0.02
		c0.062,0.005,0.096,0.058,0.101,0.101c0.017,0.152,0.024,0.307,0.024,0.46c0.002,1.041,0.001,2.082,0.001,3.123
		C53.686,14.646,53.686,15.158,53.686,15.67z"/>
	<path fill-rule="evenodd" clip-rule="evenodd" fill="#FFFFFF" d="M33.742,15.626c0-1.569,0-3.141,0-4.71
		c0-0.492-0.015-0.488,0.468-0.487c0.546,0.001,1.092,0,1.638,0c0.085,0,0.17,0.001,0.256,0.005c0.123,0.005,0.195,0.07,0.199,0.182
		c0.005,0.119,0.005,0.239,0.006,0.358c0.001,0.188-0.003,0.376,0.002,0.563c0.002,0.08-0.035,0.185,0.051,0.231
		c0.102,0.056,0.143-0.058,0.199-0.111c0.122-0.118,0.234-0.248,0.359-0.364c0.549-0.511,1.183-0.869,1.922-1.012
		c0.89-0.172,1.763-0.12,2.609,0.241c1.002,0.426,1.543,1.199,1.72,2.25c0.07,0.421,0.106,0.846,0.104,1.274
		c-0.003,0.461,0.001,0.921,0.002,1.382c0,1.655,0,3.311,0,4.967c0,0.49,0.015,0.491-0.466,0.49c-0.614-0.001-1.229,0-1.843-0.001
		c-0.102,0-0.204-0.007-0.306-0.013c-0.066-0.004-0.134-0.066-0.137-0.127c-0.006-0.153-0.015-0.307-0.015-0.46
		c-0.001-1.535,0-3.071-0.001-4.607c0-0.341,0.004-0.684-0.013-1.024c-0.018-0.34-0.049-0.681-0.097-1.018
		c-0.052-0.365-0.214-0.683-0.488-0.935c-0.304-0.279-0.672-0.399-1.076-0.408c-0.866-0.02-1.986,0.479-2.204,1.812
		c-0.057,0.353-0.085,0.711-0.104,1.068c-0.021,0.357-0.016,0.717-0.017,1.075c-0.001,1.349,0,2.696-0.001,4.045
		c0,0.153-0.005,0.307-0.021,0.459c-0.004,0.039-0.054,0.08-0.091,0.107c-0.024,0.019-0.065,0.021-0.099,0.021
		c-0.785,0.001-1.57,0-2.355,0c-0.017,0-0.034-0.006-0.05-0.008c-0.065-0.006-0.133-0.066-0.135-0.128
		c-0.007-0.17-0.015-0.341-0.015-0.511C33.742,18.699,33.742,17.163,33.742,15.626z"/>
	<path fill-rule="evenodd" clip-rule="evenodd" fill="#FFFFFF" d="M106.567,15.62c0,1.553,0.001,3.105,0,4.659
		c0,0.152-0.008,0.306-0.015,0.459c-0.003,0.064-0.069,0.127-0.132,0.134c-0.017,0.002-0.033,0.009-0.05,0.009
		c-0.733,0-1.467-0.001-2.201-0.004c-0.088,0-0.161-0.073-0.165-0.16c-0.006-0.153-0.009-0.307-0.011-0.461
		c-0.003-0.204,0-0.409-0.009-0.613c-0.001-0.043-0.04-0.088-0.072-0.122c-0.007-0.009-0.063,0.014-0.085,0.034
		c-0.05,0.046-0.092,0.101-0.138,0.151c-0.637,0.712-1.432,1.155-2.364,1.333c-0.713,0.135-1.425,0.106-2.122-0.131
		c-1.114-0.38-1.792-1.144-2.023-2.298c-0.07-0.352-0.124-0.706-0.125-1.066c0-0.222-0.008-0.443-0.008-0.665
		c0-1.945,0-3.891,0-5.836c0-0.153,0.007-0.308,0.013-0.46c0.003-0.068,0.064-0.133,0.125-0.139
		c0.034-0.004,0.068-0.012,0.102-0.012c0.751-0.001,1.502-0.002,2.252-0.001c0.05,0,0.106,0.002,0.15,0.022
		c0.042,0.019,0.097,0.061,0.102,0.098c0.017,0.151,0.022,0.306,0.022,0.459c0.002,1.416-0.001,2.833,0.002,4.249
		c0.001,0.546,0.005,1.092,0.025,1.638c0.011,0.289,0.037,0.58,0.09,0.864c0.118,0.631,0.496,1.04,1.124,1.185
		c0.814,0.187,1.519-0.043,2.107-0.626c0.247-0.244,0.415-0.541,0.475-0.889c0.034-0.202,0.073-0.404,0.086-0.607
		c0.046-0.698,0.079-1.396,0.076-2.097c-0.005-1.229-0.001-2.457,0-3.687c0-0.153,0.007-0.306,0.014-0.459
		c0.003-0.068,0.065-0.133,0.126-0.139c0.068-0.005,0.136-0.013,0.204-0.013c0.7-0.001,1.399-0.001,2.099,0.001
		c0.067,0,0.135,0.012,0.202,0.021c0.058,0.008,0.096,0.057,0.1,0.102c0.015,0.152,0.021,0.306,0.021,0.459
		C106.568,12.547,106.567,14.083,106.567,15.62z"/>
	<path fill-rule="evenodd" clip-rule="evenodd" fill="#FFFFFF" d="M72.73,17.967c0.064-0.093,0.168-0.107,0.268-0.125
		c0.219-0.036,0.438-0.066,0.657-0.101c0.489-0.074,0.978-0.151,1.467-0.222c0.099-0.014,0.202-0.002,0.312-0.002
		c0.032,0.062,0.067,0.12,0.093,0.182c0.046,0.109,0.08,0.226,0.131,0.333c0.25,0.526,0.665,0.856,1.228,0.997
		c0.609,0.151,1.219,0.125,1.825-0.024c0.198-0.049,0.389-0.127,0.559-0.247c0.362-0.254,0.473-0.598,0.366-1.034
		c-0.037-0.153-0.139-0.277-0.283-0.347c-0.152-0.073-0.31-0.146-0.473-0.188c-0.412-0.109-0.828-0.203-1.243-0.304
		c-0.729-0.177-1.457-0.362-2.165-0.613c-0.257-0.091-0.509-0.195-0.759-0.305c-0.3-0.13-0.563-0.317-0.801-0.543
		c-0.521-0.493-0.794-1.101-0.828-1.814c-0.013-0.29-0.012-0.58,0.054-0.866c0.206-0.885,0.733-1.524,1.504-1.978
		c0.236-0.139,0.491-0.239,0.754-0.315c0.41-0.118,0.827-0.201,1.255-0.23c0.631-0.044,1.262-0.038,1.893,0.014
		c0.426,0.035,0.845,0.114,1.253,0.245c1.166,0.371,1.893,1.171,2.255,2.322c0.027,0.085-0.026,0.158-0.129,0.179
		c-0.334,0.065-0.669,0.131-1.004,0.193c-0.369,0.07-0.737,0.14-1.106,0.207c-0.067,0.011-0.137,0.021-0.203,0.014
		c-0.046-0.004-0.108-0.027-0.129-0.063c-0.061-0.102-0.1-0.217-0.158-0.32c-0.2-0.361-0.502-0.6-0.894-0.722
		c-0.146-0.046-0.298-0.084-0.449-0.097c-0.494-0.04-0.988-0.043-1.477,0.071c-0.168,0.039-0.328,0.094-0.479,0.175
		c-0.139,0.075-0.25,0.181-0.315,0.325c-0.099,0.22-0.083,0.432,0.065,0.626c0.096,0.126,0.224,0.213,0.37,0.266
		c0.256,0.094,0.512,0.191,0.775,0.262c0.676,0.178,1.356,0.341,2.034,0.51c0.464,0.116,0.921,0.253,1.367,0.426
		c0.35,0.136,0.689,0.296,1.006,0.501c0.54,0.352,0.904,0.837,1.041,1.464c0.211,0.963,0.073,1.866-0.54,2.668
		c-0.47,0.613-1.074,1.041-1.804,1.292c-0.487,0.167-0.988,0.268-1.5,0.306c-0.545,0.04-1.092,0.041-1.637-0.001
		c-0.616-0.047-1.218-0.166-1.788-0.411c-1.18-0.508-1.983-1.361-2.354-2.603C72.735,18.037,72.735,18.001,72.73,17.967z"/>
	<path fill-rule="evenodd" clip-rule="evenodd" fill="#FFFFFF" d="M55.892,8.333c0.091-0.058,0.176-0.114,0.264-0.166
		c0.691-0.406,1.384-0.812,2.076-1.216c0.073-0.043,0.149-0.082,0.226-0.12c0.061-0.03,0.152,0.017,0.154,0.08
		c0.005,0.153,0.011,0.306,0.011,0.459c0.001,0.871,0,1.742,0.002,2.613c0,0.118,0.016,0.236,0.032,0.354
		c0.004,0.025,0.043,0.062,0.07,0.067c0.083,0.015,0.169,0.022,0.253,0.023c0.41,0.002,0.82,0,1.229,0.003
		c0.067,0,0.136,0.01,0.201,0.027c0.027,0.008,0.052,0.043,0.066,0.072s0.02,0.066,0.02,0.1c0.001,0.598,0.001,1.195,0,1.793
		c0,0.017-0.005,0.033-0.007,0.051c-0.007,0.063-0.069,0.128-0.133,0.132c-0.153,0.007-0.306,0.015-0.459,0.017
		c-0.324,0.003-0.649,0.002-0.973,0.003c-0.051,0.001-0.102,0.008-0.153,0.014c-0.055,0.006-0.131,0.08-0.135,0.135
		c-0.006,0.085-0.013,0.17-0.013,0.255c0.001,1.485,0.001,2.971,0.004,4.456c0.001,0.238,0.005,0.478,0.025,0.716
		c0.028,0.345,0.288,0.59,0.639,0.621c0.154,0.014,0.307,0.002,0.457-0.038c0.198-0.053,0.396-0.104,0.594-0.156
		c0.067-0.017,0.142,0.028,0.155,0.094c0.003,0.017,0.01,0.033,0.012,0.05c0.065,0.576,0.133,1.152,0.193,1.729
		c0.02,0.181-0.043,0.239-0.21,0.299c-0.453,0.16-0.917,0.273-1.397,0.292c-0.324,0.013-0.648,0.016-0.972-0.001
		c-0.415-0.02-0.803-0.148-1.171-0.339c-0.429-0.222-0.727-0.558-0.878-1.021c-0.107-0.325-0.182-0.658-0.194-1.001
		c-0.016-0.495-0.034-0.99-0.036-1.485c-0.005-1.314-0.002-2.629-0.002-3.943c0-0.153-0.001-0.307-0.007-0.461
		c-0.005-0.141-0.079-0.208-0.232-0.211c-0.239-0.005-0.478-0.003-0.717-0.008c-0.067-0.001-0.138-0.006-0.201-0.027
		c-0.042-0.015-0.086-0.058-0.105-0.099c-0.021-0.043-0.017-0.1-0.017-0.15c-0.001-0.547-0.001-1.093,0-1.639
		c0-0.052-0.001-0.107,0.019-0.151c0.019-0.041,0.061-0.091,0.1-0.1c0.099-0.02,0.202-0.022,0.304-0.024
		c0.205-0.004,0.41-0.001,0.615-0.004c0.177-0.004,0.234-0.063,0.236-0.256c0.005-0.428,0.002-0.854,0.006-1.281
		C55.845,8.719,55.821,8.548,55.892,8.333z"/>
	<path fill-rule="evenodd" clip-rule="evenodd" fill="#FFFFFF" d="M93.444,13.645c0-2.169,0-4.337,0-6.506
		c0-0.171,0.003-0.342,0.009-0.512c0.004-0.109,0.082-0.181,0.204-0.181c0.768-0.002,1.537-0.002,2.305-0.002
		c0.033,0,0.067,0.008,0.101,0.012c0.061,0.007,0.125,0.07,0.131,0.136c0.008,0.085,0.016,0.17,0.017,0.255
		c0.002,0.358,0.001,0.717,0.001,1.075c0,4.063,0,8.127,0,12.191c0,0.171,0,0.342-0.003,0.512c-0.005,0.19-0.062,0.25-0.237,0.258
		c-0.068,0.002-0.136,0.003-0.204,0.003c-0.632,0-1.264,0-1.896-0.001c-0.103,0-0.206-0.003-0.306-0.02
		c-0.045-0.008-0.094-0.045-0.099-0.103c-0.01-0.103-0.022-0.204-0.022-0.306c-0.003-0.376-0.001-0.751-0.001-1.127
		C93.443,17.435,93.443,15.541,93.444,13.645z"/>
	<path fill-rule="evenodd" clip-rule="evenodd" fill="#FFFFFF" d="M67.303,13.046c-0.181,0-0.302-0.107-0.439-0.169
		c-0.316-0.144-0.643-0.224-0.992-0.2c-0.534,0.034-0.943,0.27-1.205,0.743c-0.21,0.378-0.328,0.786-0.382,1.212
		c-0.065,0.508-0.111,1.018-0.113,1.531c-0.005,1.348-0.011,2.695-0.018,4.044c0,0.171-0.005,0.341-0.011,0.512
		c-0.003,0.084-0.08,0.155-0.167,0.159c-0.085,0.005-0.171,0.007-0.256,0.007c-0.631,0.001-1.263,0.001-1.895,0
		c-0.102,0-0.205-0.001-0.306-0.019c-0.04-0.007-0.085-0.053-0.105-0.092c-0.022-0.043-0.023-0.1-0.024-0.15
		c-0.003-0.136-0.003-0.272-0.003-0.409c0-3.038-0.001-6.075,0-9.112c0-0.171,0.005-0.341,0.012-0.512
		c0.004-0.092,0.069-0.149,0.169-0.154c0.085-0.004,0.17-0.008,0.255-0.008c0.563,0,1.127-0.001,1.69,0.001
		c0.102,0,0.204,0.009,0.305,0.017c0.06,0.004,0.125,0.072,0.126,0.138c0.006,0.256,0.007,0.512,0.015,0.768
		c0.002,0.102,0.014,0.203,0.024,0.304c0.001,0.011,0.023,0.021,0.038,0.026c0.014,0.005,0.039,0.011,0.045,0.004
		c0.057-0.063,0.112-0.128,0.166-0.193c0.172-0.211,0.333-0.434,0.517-0.634c0.388-0.422,0.876-0.64,1.449-0.663
		c0.646-0.027,1.253,0.111,1.816,0.435c0.083,0.049,0.114,0.124,0.087,0.215c-0.014,0.05-0.025,0.1-0.042,0.148
		c-0.217,0.61-0.434,1.221-0.653,1.83C67.376,12.902,67.336,12.976,67.303,13.046z"/>
	<path fill-rule="evenodd" clip-rule="evenodd" fill="#FFFFFF" d="M23.321,15.128c0,0.094-0.001,0.23,0,0.367
		c0.007,0.606-0.563,1.161-1.175,1.205c-0.724,0.052-1.313-0.47-1.397-1.145c-0.019-0.151-0.018-0.306-0.03-0.459
		c-0.19-2.412-1.737-3.959-3.271-4.599c-0.508-0.211-1.031-0.355-1.581-0.397c-0.221-0.017-0.442-0.036-0.662-0.066
		c-0.543-0.075-0.914-0.382-1.075-0.897c-0.277-0.887,0.403-1.624,1.114-1.666c0.237-0.015,0.479-0.008,0.716,0.013
		c1.605,0.141,3.058,0.685,4.32,1.691c1.599,1.276,2.586,2.923,2.935,4.945c0.026,0.151,0.054,0.303,0.07,0.455
		C23.304,14.746,23.309,14.916,23.321,15.128z"/>
	<path fill-rule="evenodd" clip-rule="evenodd" fill="#FFFFFF" d="M71.807,15.654c0,1.5,0,3.001,0,4.501
		c0,0.154,0.001,0.308-0.003,0.461c-0.006,0.219-0.054,0.268-0.278,0.268c-0.768,0.001-1.535-0.002-2.302-0.005
		c-0.094,0-0.165-0.066-0.171-0.153c-0.008-0.119-0.015-0.238-0.015-0.357c-0.001-3.137-0.001-6.274-0.001-9.412
		c0-0.086,0-0.171,0.003-0.256c0.008-0.22,0.052-0.268,0.276-0.269c0.733-0.002,1.466-0.001,2.2,0c0.051,0,0.106-0.003,0.151,0.016
		c0.042,0.018,0.085,0.056,0.106,0.096c0.022,0.042,0.027,0.099,0.028,0.148c0.005,0.154,0.005,0.308,0.005,0.461
		C71.807,12.652,71.807,14.153,71.807,15.654z"/>
	<path fill-rule="evenodd" clip-rule="evenodd" fill="#FFFFFF" d="M13.931,3.76c-0.183,0.035-0.349,0.071-0.516,0.099
		c-2.192,0.362-4.119,1.285-5.798,2.733C7.488,6.704,7.357,6.813,7.224,6.917C7.208,6.929,7.147,6.916,7.141,6.9
		c-0.04-0.094-0.071-0.19-0.103-0.288c-0.222-0.671-0.686-1.08-1.359-1.267C5.614,5.328,5.544,5.324,5.478,5.31
		C5.43,5.299,5.382,5.285,5.335,5.272c0.004-0.039-0.003-0.08,0.013-0.103c0.051-0.067,0.108-0.131,0.17-0.188
		C7.473,3.16,9.75,1.958,12.367,1.406c0.284-0.061,0.568-0.115,0.854-0.161c0.15-0.023,0.305-0.024,0.457-0.033
		c0.047-0.003,0.095,0.066,0.076,0.106c-0.035,0.077-0.071,0.154-0.107,0.23c-0.306,0.657-0.259,1.289,0.132,1.897
		C13.833,3.53,13.919,3.596,13.931,3.76z"/>
	<path fill-rule="evenodd" clip-rule="evenodd" fill="#FFFFFF" d="M70.406,8.999c-0.375,0-0.751,0.002-1.126-0.001
		c-0.179-0.001-0.234-0.062-0.238-0.253c-0.005-0.238-0.004-0.478-0.005-0.717c0-0.41,0-0.819,0.001-1.229
		c0-0.068,0.009-0.137,0.016-0.204c0.007-0.068,0.067-0.133,0.127-0.139c0.051-0.005,0.102-0.013,0.152-0.013
		c0.717-0.001,1.434-0.001,2.151-0.001c0.051,0.001,0.102,0.006,0.153,0.01c0.08,0.007,0.15,0.084,0.158,0.172
		c0.003,0.033,0.008,0.067,0.008,0.102c0,0.665,0.001,1.331,0,1.997c0,0.051-0.016,0.101-0.021,0.151
		c-0.006,0.061-0.055,0.096-0.098,0.106C71.603,9,71.516,9,71.431,9c-0.342,0.002-0.683,0-1.024,0C70.406,9,70.406,9,70.406,8.999z"
		/>
</g>
</svg>
