<?xml version="1.0" encoding="utf-8"?>
<!-- Generator: Adobe Illustrator 16.0.0, SVG Export Plug-In . SVG Version: 6.00 Build 0)  -->
<!DOCTYPE svg PUBLIC "-//W3C//DTD SVG 1.1//EN" "http://www.w3.org/Graphics/SVG/1.1/DTD/svg11.dtd">
<svg version="1.1" id="Capa_1" xmlns="http://www.w3.org/2000/svg" xmlns:xlink="http://www.w3.org/1999/xlink" x="0px" y="0px"
	 width="22.532px" height="22.519px" viewBox="0 0 22.532 22.519" enable-background="new 0 0 22.532 22.519" xml:space="preserve">
<path fill-rule="evenodd" clip-rule="evenodd" fill="#FF114D" d="M11.229,22.518C4.954,22.54-0.094,17.293,0.001,11.098
	C0.097,4.889,5.173-0.096,11.481,0.002c6.369,0.1,11.153,5.422,11.049,11.458C22.426,17.573,17.379,22.561,11.229,22.518z"/>
<path fill-rule="evenodd" clip-rule="evenodd" fill="#FF9200" d="M6.363,17.686c-0.208,0.047-0.416,0.126-0.626,0.136
	c-0.592,0.028-0.939-0.307-0.958-0.9c-0.01-0.311,0.023-0.613,0.115-0.918c0.395-1.319,1.059-2.506,1.756-3.677
	c0.747-1.254,1.583-2.448,2.483-3.596c0.6-0.764,1.279-1.423,2.286-1.624c0.548-0.109,1.094-0.063,1.642-0.013
	c0.187,0.014,0.193,0.165,0.229,0.295c0.07,0.778-0.034,1.558,0.251,2.334c0.239,0.651-0.2,1.273-1.036,1.666
	c-0.293,0.138-0.417,0.42-0.609,0.582c-0.638,0.536-1.008,1.36-1.787,1.707c-0.229,0.102-0.295,0.132-0.337,0.388
	c-0.097,0.579-0.539,0.732-1.074,0.685c0.053,0.493-0.108,0.88-0.563,1.113c-0.228,0.117-0.414-0.008-0.676-0.191
	c0.219,0.466,0.15,0.818-0.205,1.088c-0.354,0.269-0.668,0.171-0.989-0.105C6.493,16.987,6.76,17.313,6.363,17.686z"/>
<path fill-rule="evenodd" clip-rule="evenodd" fill="#FF6200" d="M6.363,17.686C6.471,17.309,6.396,17,6.067,16.75
	c-0.116-0.088-0.334-0.229-0.18-0.398c0.177-0.195,0.34,0.003,0.482,0.127c0.036,0.031,0.074,0.063,0.102,0.101
	c0.232,0.316,0.493,0.23,0.74,0.036c0.267-0.209,0.287-0.483,0.079-0.79c-0.04-0.059-0.096-0.108-0.134-0.168
	c-0.058-0.091-0.044-0.181,0.031-0.259c0.082-0.085,0.167-0.072,0.25-0.002c0.037,0.031,0.07,0.066,0.107,0.096
	c0.444,0.352,0.645,0.32,0.932-0.147c0.105-0.171,0.177-0.337-0.014-0.51c-0.1-0.091-0.252-0.21-0.145-0.357
	c0.102-0.138,0.247-0.048,0.384,0.015c0.356,0.165,0.711,0.051,0.897-0.259c0.123-0.204,0.037-0.362-0.09-0.52
	c-0.062-0.076-0.109-0.165-0.029-0.254c0.072-0.082,0.166-0.064,0.263-0.038c0.387,0.105,0.738-0.018,0.962-0.274
	c0.239-0.275-0.141-0.418-0.103-0.68c0.245-0.207,0.614,0.139,0.89-0.18c0.177-0.205,0.411-0.305,0.277-0.637
	c-0.093-0.231-0.001-0.318,0.271-0.336c1.054-0.071,1.618-1,1.195-1.945c-0.083-0.186-0.096-0.367-0.096-0.557
	c-0.002-0.503,0.001-1.006,0.002-1.509c0.479,0.038,0.533,0.467,0.604,0.775c0.132,0.578,0.467,0.882,0.987,1.101
	c0.375,0.157,0.825,0.307,0.834,0.852c0.035,1.282-0.435,2.335-1.438,3.139c-2.044,1.639-4.221,3.067-6.611,4.153
	C7.153,17.491,6.772,17.642,6.363,17.686z"/>
<path fill-rule="evenodd" clip-rule="evenodd" fill="#8BAA26" d="M15.568,10.032c-0.339-0.495-0.86-0.737-1.391-0.931
	c-0.285-0.105-0.415-0.232-0.466-0.531c-0.078-0.463-0.228-0.912-0.568-1.265c0-0.082-0.011-0.159-0.083-0.211
	c-0.141-0.287-0.401-0.47-0.612-0.697c-0.244-0.263-0.373-0.55-0.199-0.911c0.174-0.362,0.411-0.51,0.874-0.479
	c0.787,0.053,1.24,0.54,1.549,1.278c0.258-0.35,0.477-0.686,0.735-0.989c0.323-0.377,0.756-0.511,1.234-0.375
	c0.501,0.143,0.803,0.5,0.927,1.004c0.079,0.325-0.084,0.608-0.183,0.943c0.536,0.117,1.089,0.205,1.398,0.74
	c0.143,0.247,0.151,0.507,0.102,0.765c-0.14,0.721-0.738,0.932-2.071,0.716c0.073,0.233,0.159,0.44,0.201,0.656
	c0.08,0.41-0.062,0.729-0.351,0.859c-0.301,0.137-0.545,0.045-0.853-0.315C15.736,10.2,15.65,10.118,15.568,10.032z"/>
</svg>
