<?xml version="1.0" encoding="utf-8"?>
<!-- Generator: Adobe Illustrator 16.0.0, SVG Export Plug-In . SVG Version: 6.00 Build 0)  -->
<!DOCTYPE svg PUBLIC "-//W3C//DTD SVG 1.1//EN" "http://www.w3.org/Graphics/SVG/1.1/DTD/svg11.dtd">
<svg version="1.1" id="Capa_1" xmlns="http://www.w3.org/2000/svg" xmlns:xlink="http://www.w3.org/1999/xlink" x="0px" y="0px"
	 width="22.532px" height="22.519px" viewBox="0 0 22.532 22.519" enable-background="new 0 0 22.532 22.519" xml:space="preserve">
<path fill-rule="evenodd" clip-rule="evenodd" fill="#9FFF00" d="M11.305,0.002c6.2-0.038,11.24,5.14,11.226,11.276
	c-0.015,6.048-4.935,11.245-11.272,11.24C5.031,22.514,0.036,17.486,0.002,11.267C-0.032,5.113,5.059-0.076,11.305,0.002z"/>
<path fill-rule="evenodd" clip-rule="evenodd" fill="#FF9300" d="M6.371,17.65c-0.302,0.219-0.647,0.147-0.97,0.105
	c-0.394-0.051-0.587-0.316-0.624-0.756c-0.044-0.538,0.101-1.042,0.291-1.535c0.63-1.64,1.531-3.134,2.508-4.583
	c0.547-0.812,1.12-1.606,1.734-2.373c0.937-1.166,2.083-1.703,3.577-1.403c0.069,0.014,0.143,0.009,0.215,0.013
	c0.063,0.032,0.109,0.081,0.141,0.144C13.407,8.122,13.27,9,13.538,9.876c0.247,0.805-0.528,1.22-1.104,1.573
	c-0.279,0.172-0.415,0.463-0.623,0.594c-0.72,0.451-0.967,1.446-1.903,1.611c-0.117,0.021-0.162,0.078-0.157,0.185
	c0.004,0.095,0.028,0.198-0.012,0.284c-0.209,0.45-0.498,0.764-1.057,0.577c0.079,0.495-0.099,0.855-0.547,1.089
	c-0.25,0.13-0.441-0.103-0.731-0.092c0.282,0.401,0.224,0.738-0.138,1.013c-0.397,0.304-0.752,0.195-1.112-0.149
	C6.287,16.938,6.901,17.191,6.371,17.65z"/>
<path fill-rule="evenodd" clip-rule="evenodd" fill="#FF6300" d="M6.371,17.65c0.091-0.204,0.163-0.401-0.057-0.58
	c-0.111-0.09-0.208-0.2-0.304-0.307c-0.108-0.12-0.286-0.244-0.123-0.422c0.187-0.204,0.288,0.029,0.403,0.122
	c0.439,0.35,0.568,0.374,0.871,0.143c0.337-0.258,0.352-0.372,0.103-0.748c-0.052-0.079-0.119-0.154-0.147-0.241
	c-0.02-0.058,0-0.145,0.032-0.201c0.057-0.098,0.165-0.09,0.256-0.062c0.066,0.021,0.124,0.07,0.182,0.112
	c0.13,0.096,0.227,0.294,0.417,0.229c0.232-0.08,0.375-0.293,0.531-0.473c0.138-0.159-0.02-0.257-0.107-0.361
	c-0.11-0.131-0.24-0.259-0.069-0.431s0.311-0.054,0.428,0.07c0.161,0.171,0.321,0.224,0.47,0.01
	c0.144-0.208,0.561-0.313,0.287-0.692c-0.088-0.121-0.173-0.237-0.048-0.382c0.091-0.104,0.191-0.1,0.32-0.059
	c0.523,0.169,0.878-0.057,0.85-0.585c-0.02-0.356-0.081-0.641,0.404-0.344c0.134,0.083,0.222,0.028,0.313-0.061
	c0.207-0.202,0.435-0.413,0.405-0.725c-0.03-0.323,0.078-0.407,0.363-0.299c0.167,0.063,0.271-0.025,0.381-0.124
	c0.213-0.192,0.435-0.375,0.643-0.573c0.273-0.26,0.37-0.649,0.209-0.925c-0.358-0.616-0.203-1.258-0.245-1.891
	c-0.014-0.191-0.005-0.384-0.006-0.576c0.538,0.05,0.53,0.54,0.634,0.876c0.145,0.47,0.38,0.772,0.841,0.959
	c0.409,0.166,0.829,0.369,0.938,0.878c0.06,1.313-0.424,2.365-1.454,3.195c-1.911,1.54-3.948,2.877-6.164,3.936
	C7.431,17.356,6.923,17.571,6.371,17.65z"/>
<path fill-rule="evenodd" clip-rule="evenodd" fill="#8AAC26" d="M15.545,9.989c-0.385-0.402-0.818-0.731-1.36-0.886
	c-0.292-0.083-0.408-0.268-0.475-0.554c-0.107-0.458-0.213-0.928-0.578-1.274c-0.01-0.053-0.02-0.106-0.029-0.159
	c-0.12-0.333-0.432-0.502-0.647-0.753c-0.323-0.377-0.373-0.637-0.181-0.97c0.205-0.355,0.632-0.531,1.055-0.401
	c0.625,0.192,1.071,0.601,1.353,1.279c0.306-0.33,0.449-0.69,0.721-0.953c0.579-0.561,0.956-0.63,1.59-0.242
	c0.569,0.349,0.723,0.837,0.488,1.549c-0.029,0.089-0.058,0.179-0.085,0.265c0.188,0.127,0.389,0.05,0.573,0.091
	c0.651,0.147,1.06,0.777,0.914,1.409c-0.137,0.589-0.758,0.96-1.39,0.826c-0.227-0.048-0.45-0.108-0.683-0.165
	c-0.031,0.265,0.135,0.404,0.175,0.584c0.059,0.263,0.07,0.522-0.099,0.757c-0.252,0.35-0.573,0.368-0.913,0.069
	C15.811,10.319,15.755,10.084,15.545,9.989z"/>
</svg>
