<?xml version="1.0" encoding="utf-8"?>
<!-- Generator: Adobe Illustrator 16.0.0, SVG Export Plug-In . SVG Version: 6.00 Build 0)  -->
<!DOCTYPE svg PUBLIC "-//W3C//DTD SVG 1.1//EN" "http://www.w3.org/Graphics/SVG/1.1/DTD/svg11.dtd">
<svg version="1.1" id="Capa_1" xmlns="http://www.w3.org/2000/svg" xmlns:xlink="http://www.w3.org/1999/xlink" x="0px" y="0px"
	 width="22.532px" height="22.519px" viewBox="0 0 22.532 22.519" enable-background="new 0 0 22.532 22.519" xml:space="preserve">
<path fill-rule="evenodd" clip-rule="evenodd" fill="#FFA200" d="M11.223,22.516C4.986,22.55-0.097,17.313,0.001,11.094
	C0.099,4.888,5.174-0.093,11.487,0.004c6.344,0.098,11.149,5.404,11.043,11.462C22.423,17.58,17.382,22.557,11.223,22.516z"/>
<path fill-rule="evenodd" clip-rule="evenodd" fill="#FF9300" d="M6.373,17.702c-0.184,0.048-0.365,0.119-0.552,0.139
	c-0.585,0.062-1.009-0.318-1.037-0.903c-0.017-0.361,0.038-0.706,0.144-1.055c0.435-1.432,1.219-2.686,1.973-3.957
	c0.682-1.149,1.49-2.209,2.29-3.274s1.828-1.738,3.241-1.604c0.189,0.018,0.382,0.003,0.573,0.003
	c0.193-0.026,0.228,0.121,0.275,0.253c0.098,0.849-0.023,1.702,0.25,2.558c0.227,0.708-0.39,1.131-0.931,1.458
	c-0.325,0.197-0.55,0.562-0.798,0.708c-0.756,0.444-0.932,1.5-1.877,1.677c-0.116,0.021-0.168,0.063-0.164,0.177
	c0.002,0.048,0.007,0.1-0.012,0.142c-0.192,0.446-0.459,0.788-1.017,0.716c-0.014,0.48-0.239,0.83-0.654,1.063
	c-0.111,0.062-0.229,0.079-0.344,0.022c-0.17-0.086-0.291-0.181-0.177,0.141c0.14,0.396-0.173,0.615-0.432,0.825
	c-0.315,0.258-0.58,0.08-0.867-0.129C6.539,16.991,6.723,17.326,6.373,17.702z"/>
<path fill-rule="evenodd" clip-rule="evenodd" fill="#FF6300" d="M6.373,17.702c0.126-0.447-0.055-0.772-0.399-1.041
	c-0.092-0.072-0.191-0.191-0.1-0.304c0.112-0.139,0.258-0.074,0.379,0.021c0.057,0.044,0.105,0.099,0.16,0.145
	c0.429,0.358,0.421,0.351,0.801-0.016c0.235-0.228,0.39-0.437,0.057-0.7c-0.037-0.029-0.068-0.069-0.095-0.108
	c-0.076-0.113-0.08-0.226,0.031-0.317c0.091-0.074,0.178-0.031,0.253,0.036c0.072,0.063,0.145,0.127,0.207,0.2
	c0.176,0.209,0.322,0.132,0.47-0.036c0.079-0.09,0.16-0.181,0.255-0.253c0.264-0.202,0.211-0.385-0.011-0.579
	c-0.071-0.062-0.137-0.161-0.076-0.253c0.078-0.117,0.225-0.127,0.313-0.041c0.374,0.364,0.583,0.058,0.82-0.176
	c0.168-0.166,0.293-0.327,0.081-0.547c-0.068-0.071-0.117-0.167-0.054-0.255c0.088-0.12,0.22-0.091,0.322-0.026
	c0.143,0.089,0.272,0.232,0.431,0.041c0.177-0.213,0.484-0.335,0.51-0.651c0.01-0.124-0.199-0.217-0.078-0.436
	c0.41,0.167,0.75,0.024,1.004-0.344c0.027-0.039,0.093-0.078,0.088-0.109c-0.07-0.486,0.144-0.592,0.612-0.68
	c0.303-0.057,0.67-0.353,0.883-0.69c0.159-0.253,0.304-0.571,0.139-0.813C13.059,9.3,13.161,8.802,13.142,8.31
	c-0.014-0.335-0.001-0.672,0.001-1.007c0.432,0.022,0.444,0.409,0.586,0.68c0.129,0.246,0.129,0.54,0.277,0.78
	c0.296,0.282,0.716,0.341,1.037,0.573c0.255,0.184,0.597,0.313,0.535,0.731c-0.055,1.42-0.63,2.517-1.8,3.394
	c-1.78,1.334-3.605,2.579-5.607,3.554C7.592,17.296,7,17.547,6.373,17.702z"/>
<path fill-rule="evenodd" clip-rule="evenodd" fill="#83A015" d="M15.578,10.067c-0.329-0.534-0.887-0.741-1.42-0.978
	c-0.104-0.046-0.23-0.042-0.288-0.167c0.857-1.148,1.846-2.184,2.792-3.255c0.14-0.158,0.285-0.327,0.517-0.363
	c0.606,0.465,0.425,1.045,0.216,1.603c0.135,0.204,0.318,0.108,0.47,0.133c0.662,0.107,1.087,0.61,1.036,1.237
	c-0.047,0.573-0.555,0.962-1.212,0.96c-0.285-0.001-0.548-0.127-0.839-0.165c-0.04,0.302,0.163,0.484,0.173,0.72
	c0.014,0.326-0.011,0.628-0.336,0.804c-0.282,0.152-0.588,0.056-0.875-0.264C15.732,10.245,15.655,10.155,15.578,10.067z"/>
<path fill-rule="evenodd" clip-rule="evenodd" fill="#92B231" d="M17.179,5.304c-0.352,0.535-0.846,0.947-1.249,1.44
	c-0.565,0.691-1.189,1.337-1.744,2.041c-0.079,0.101-0.195,0.126-0.315,0.137c-0.142-0.388-0.288-0.773-0.423-1.164
	c-0.063-0.182-0.14-0.346-0.305-0.456c-0.003-0.108-0.037-0.199-0.139-0.251c-0.122-0.271-0.378-0.427-0.563-0.644
	c-0.229-0.269-0.372-0.545-0.19-0.911c0.188-0.376,0.482-0.488,0.88-0.476c0.473,0.015,0.802,0.267,1.108,0.584
	c0.179,0.187,0.33,0.39,0.418,0.734c0.262-0.375,0.443-0.68,0.67-0.949C15.869,4.746,16.52,4.724,17.179,5.304z"/>
</svg>
