<?xml version="1.0" encoding="utf-8"?>
<!-- Generator: Adobe Illustrator 16.0.0, SVG Export Plug-In . SVG Version: 6.00 Build 0)  -->
<!DOCTYPE svg PUBLIC "-//W3C//DTD SVG 1.1//EN" "http://www.w3.org/Graphics/SVG/1.1/DTD/svg11.dtd">
<svg version="1.1" id="Capa_1" xmlns="http://www.w3.org/2000/svg" xmlns:xlink="http://www.w3.org/1999/xlink" x="0px" y="0px"
	 width="14.982px" height="12.501px" viewBox="0 0 14.982 12.501" enable-background="new 0 0 14.982 12.501" xml:space="preserve">
<path fill-rule="evenodd" clip-rule="evenodd" fill="#FFFFFF" d="M14.965,6.032c0.007,0.121,0.016,0.213,0.016,0.305
	c0.001,1.452,0.003,2.904,0,4.355c-0.003,1.063-0.717,1.801-1.777,1.803C9.4,12.503,5.596,12.503,1.792,12.496
	c-1.061-0.002-1.779-0.74-1.782-1.799c-0.003-1.452-0.001-2.903,0-4.355c0-0.094,0.008-0.187,0.014-0.317
	c0.931,0.308,1.838,0.607,2.746,0.909c1.376,0.458,2.753,0.912,4.126,1.38c0.404,0.139,0.79,0.14,1.194,0.004
	c2.159-0.726,4.321-1.441,6.481-2.161C14.694,6.115,14.818,6.078,14.965,6.032z"/>
<path fill-rule="evenodd" clip-rule="evenodd" fill="#FFFFFF" d="M4.995,1.88c0-0.224-0.005-0.401,0.001-0.578
	C5.02,0.549,5.515,0.03,6.263,0.014c0.815-0.019,1.631-0.017,2.446-0.001c0.768,0.014,1.265,0.531,1.286,1.307
	c0.005,0.167,0,0.335,0,0.561c0.145,0,0.27,0,0.396,0c0.912,0,1.823-0.002,2.734,0.001c1.15,0.005,1.854,0.716,1.856,1.868
	c0,0.419,0,0.838,0,1.28c-0.678,0.226-1.348,0.448-2.017,0.672c-1.692,0.565-3.383,1.14-5.082,1.687
	C7.652,7.462,7.356,7.466,7.125,7.392C4.87,6.658,2.625,5.896,0.369,5.16C0.073,5.063-0.02,4.926,0.003,4.63
	C0.029,4.309,0.007,3.983,0.01,3.659c0.007-1.032,0.726-1.764,1.766-1.776C2.699,1.872,3.623,1.88,4.546,1.88
	C4.676,1.88,4.807,1.88,4.995,1.88z M8.722,1.289c-0.841,0-1.639,0-2.44,0c0,0.206,0,0.388,0,0.568c0.827,0,1.626,0,2.44,0
	C8.722,1.661,8.722,1.487,8.722,1.289z"/>
</svg>
